<?xml version="1.0" encoding="UTF-8" standalone="no"?>
<svg
   width="150px"
   height="150px"
   viewBox="0 0 17.007797 17.003906"
   version="1.1"
   id="svg378"
   sodipodi:docname="Iconos-L&amp;I-COM-WEB.ai"
   xmlns:inkscape="http://www.inkscape.org/namespaces/inkscape"
   xmlns:sodipodi="http://sodipodi.sourceforge.net/DTD/sodipodi-0.dtd"
   xmlns="http://www.w3.org/2000/svg"
   xmlns:svg="http://www.w3.org/2000/svg">
  <sodipodi:namedview
     id="namedview378"
     pagecolor="#ffffff"
     bordercolor="#000000"
     borderopacity="0.25"
     inkscape:showpageshadow="2"
     inkscape:pageopacity="0.0"
     inkscape:pagecheckerboard="0"
     inkscape:deskcolor="#d1d1d1"
     inkscape:document-units="pt" />
  <defs
     id="defs46" />
  <path
     fill-rule="nonzero"
     fill="#eae1d8"
     fill-opacity="1"
     d="m 17.007807,8.5038935 c 0,4.6953095 -3.80859,8.4999995 -8.5038995,8.4999995 -4.69531,0 -8.50391,-3.80469 -8.50391,-8.4999995 0,-4.69922 3.8086,-8.503910008789 8.50391,-8.503910008789 4.6953095,0 8.5038995,3.804690008789 8.5038995,8.503910008789"
     id="path278" />
  <path
     fill-rule="nonzero"
     fill="#000000"
     fill-opacity="1"
     d="m 5.2890575,6.1952935 c 0.3086,3.46485 1.35938,5.5390695 3.21485,6.3359395 1.8554695,-0.79687 2.9101495,-2.8710895 3.2148395,-6.3359395 l -3.2148395,-1.46093 z m 3.21485,6.7460995 -0.0703,-0.0273 c -2.07032,-0.84375 -3.22657,-3.0742195 -3.53516,-6.8203095 l -0.0117,-0.12891 3.61719,-1.64843 3.6171895,1.64843 -0.0117,0.13672 c -0.30469,3.74219 -1.46094,5.9765695 -3.5312495,6.8203195 z m 0,0"
     id="path279" />
  <path
     fill-rule="nonzero"
     fill="#000000"
     fill-opacity="1"
     d="m 7.0976575,9.4296735 c 0.26562,0.9726495 0.82031,1.6171895 1.40625,1.6171895 0.58984,0 1.14453,-0.64454 1.40625,-1.6171895 -0.89844,-0.375 -1.91016,-0.375 -2.8125,0 m 1.40625,1.9960895 c -0.8125,0 -1.52344,-0.80859 -1.8125,-2.0624995 l -0.0352,-0.14453 0.13672,-0.0703 c 1.08594,-0.50781 2.34375,-0.50781 3.4257795,0 l 0.13672,0.0703 -0.0352,0.14453 C 10.027267,10.617173 9.3163275,11.425763 8.5038275,11.425763"
     id="path280" />
  <path
     fill-rule="nonzero"
     fill="#000000"
     fill-opacity="1"
     d="m 8.5039075,6.6445135 c -0.42188,0 -0.76172,0.34375 -0.76172,0.76563 0,0.41797 0.33984,0.75781 0.76172,0.75781 0.42187,0 0.76172,-0.33984 0.76172,-0.75781 0.004,-0.42188 -0.33203,-0.76563 -0.75391,-0.77344 -0.004,0 -0.004,0 -0.008,0 z m 0,1.90625 c -0.62891,0 -1.14063,-0.51172 -1.14063,-1.14062 0,-0.63282 0.51172,-1.14453 1.14063,-1.14453 0.63281,0 1.14062,0.51171 1.14062,1.14453 0,0.6289 -0.50781,1.14062 -1.14062,1.14062"
     id="path281" />
</svg>
