<?xml version="1.0" encoding="UTF-8" standalone="no"?>
<svg
   width="150px"
   height="150px"
   viewBox="0 0 17.535164 17.535152"
   version="1.1"
   id="svg378"
   sodipodi:docname="Iconos-L&amp;I-COM-WEB.ai"
   xmlns:inkscape="http://www.inkscape.org/namespaces/inkscape"
   xmlns:sodipodi="http://sodipodi.sourceforge.net/DTD/sodipodi-0.dtd"
   xmlns="http://www.w3.org/2000/svg"
   xmlns:svg="http://www.w3.org/2000/svg">
  <sodipodi:namedview
     id="namedview378"
     pagecolor="#ffffff"
     bordercolor="#000000"
     borderopacity="0.25"
     inkscape:showpageshadow="2"
     inkscape:pageopacity="0.0"
     inkscape:pagecheckerboard="0"
     inkscape:deskcolor="#d1d1d1"
     inkscape:document-units="pt" />
  <defs
     id="defs46" />
  <path
     fill-rule="nonzero"
     fill="#eae1d8"
     fill-opacity="1"
     d="m 17.53516,8.7656225 c 0,4.8437495 -3.92579,8.7695295 -8.76563,8.7695295 C 3.92578,17.535152 0,13.609372 0,8.7656225 0,3.9257825 3.92578,2.4999999e-6 8.76953,2.4999999e-6 c 4.83984,0 8.76563,3.9257800000001 8.76563,8.7656200000001"
     id="path213" />
  <path
     fill-rule="nonzero"
     fill="#000000"
     fill-opacity="1"
     d="m 5.69141,12.710932 v -0.34765 h 6.61718 v 0.34765 z m 5.92187,0.69532 h -0.34766 v -0.34766 h 0.34766 z m -4.875,0 H 6.39062 v -0.34766 h 0.34766 z m -0.34375,-2.60547 c 0.22266,0.0117 0.61719,0.0781 0.87109,0.33594 0.25782,0.2539 0.32422,0.64843 0.33594,0.875 -0.22265,-0.0195 -0.61719,-0.082 -0.87109,-0.33985 -0.25391,-0.2539 -0.32031,-0.64844 -0.33594,-0.87109 M 6.80469,6.7929725 h 4.39453 c 0.082,0 0.15234,0.0547 0.16797,0.13671 0.0273,0.13672 0.0625,0.32813 0.0977,0.5586 H 6.53521 c 0.0352,-0.23047 0.0703,-0.42188 0.0977,-0.5586 0.0156,-0.082 0.0859,-0.13671 0.17188,-0.13671 m 1.24609,4.0976495 c -0.11719,0.11719 -0.20703,0.25391 -0.26953,0.39453 -0.0625,-0.14062 -0.14844,-0.27734 -0.26953,-0.39453 -0.043,-0.0469 -0.0937,-0.0859 -0.14844,-0.125 0.0664,-0.33594 0.28125,-0.625 0.41797,-0.7773395 0.13672,0.1523395 0.35156,0.4413995 0.41797,0.7773395 -0.0547,0.0391 -0.10156,0.0781 -0.14844,0.125 m -0.0898,1.1211 c 0.0117,-0.22657 0.0781,-0.61719 0.33593,-0.875 0.25391,-0.25391 0.64844,-0.32032 0.875,-0.33594 -0.0195,0.22265 -0.082,0.61719 -0.33984,0.87109 -0.25391,0.25781 -0.64844,0.32031 -0.87109,0.33985 m 2.93359,-0.71094 c -0.44922,0.46875 -1.10547,0.71484 -1.89453,0.71484 h -0.0312 c 0.0391,-0.0312 0.0742,-0.0625 0.10937,-0.0977 0.48438,-0.48047 0.44532,-1.27344 0.44141,-1.30469 -0.004,-0.0898 -0.0742,-0.16016 -0.16406,-0.16406 -0.0195,-0.004 -0.42969,-0.0195 -0.83985,0.14062 -0.15234,-0.55859 -0.59765,-0.9648395 -0.61718,-0.9843695 -0.0664,-0.0586 -0.16797,-0.0586 -0.23438,0 -0.0195,0.0195 -0.46484,0.4257795 -0.61719,0.9843695 -0.15625,-0.0625 -0.3164,-0.0977 -0.45312,-0.11719 C 6.4416,10.062453 6.37128,9.5897925 6.38691,9.0624525 c 0.0156,-0.45703 0.0547,-0.8711 0.10156,-1.22657 h 5.02734 c 0.043,0.35547 0.082,0.76954 0.0977,1.22657 0.0312,0.9492205 -0.21875,1.7226495 -0.71875,2.2382805 M 9.00023,4.0780725 c 0.22656,0.25 0.57422,0.70703 0.57422,1.09766 0,0.0781 -0.0156,0.14844 -0.0469,0.21875 -0.0781,-0.32813 -0.37109,-0.60938 -0.40625,-0.64453 -0.0664,-0.0664 -0.17187,-0.0664 -0.23828,0 -0.0391,0.0352 -0.33203,0.3164 -0.41015,0.64453 -0.0273,-0.0703 -0.043,-0.14063 -0.043,-0.21875 0,-0.41797 0.375,-0.87891 0.57031,-1.09766 m -0.19922,1.46875 c 0,-0.13281 0.10547,-0.29687 0.19922,-0.41406 0.0937,0.11719 0.19922,0.28125 0.19922,0.41406 0,0.10938 -0.0898,0.19922 -0.19922,0.19922 -0.10938,0 -0.19922,-0.0898 -0.19922,-0.19922 m 3.50781,6.4687505 H 10.5158 c 0.23438,-0.125 0.44532,-0.28125 0.62891,-0.47265 0.57031,-0.58594 0.85156,-1.44922 0.81641,-2.4921905 -0.0312,-0.98047 -0.17188,-1.79297 -0.25,-2.1875 -0.0508,-0.2461 -0.26563,-0.42188 -0.51172,-0.42188 H 9.17596 v -0.36328 c 0.42188,-0.082 0.74609,-0.45703 0.74609,-0.90234 0,-0.71094 -0.76953,-1.44141 -0.80468,-1.47266 -0.0625,-0.0625 -0.16797,-0.0625 -0.23438,0 -0.0352,0.0312 -0.80078,0.76172 -0.80078,1.47266 0,0.44531 0.32031,0.82031 0.74219,0.90234 v 0.36328 H 6.80487 c -0.25,0 -0.46485,0.17578 -0.51172,0.42188 -0.082,0.39453 -0.21875,1.20703 -0.25391,2.1875 -0.0156,0.51172 0.0469,0.9804705 0.1836,1.3945305 -0.008,0 -0.0156,0.004 -0.0156,0.004 -0.0898,0.004 -0.16016,0.0742 -0.16406,0.16406 -0.004,0.0312 -0.0391,0.82422 0.4414,1.30469 0.0352,0.0352 0.0703,0.0664 0.10938,0.0977 H 5.69162 c -0.19141,0 -0.34766,0.15625 -0.34766,0.34766 v 0.34765 c 0,0.19141 0.15625,0.34766 0.34766,0.34766 h 0.34765 v 0.523439 c 0,0.0977 0.0781,0.175781 0.17578,0.175781 h 0.69532 c 0.0977,0 0.17578,-0.0781 0.17578,-0.175781 v -0.523439 h 3.83203 v 0.523439 c 0,0.0977 0.0742,0.175781 0.17187,0.175781 h 0.69532 c 0.0977,0 0.17578,-0.0781 0.17578,-0.175781 v -0.523439 h 0.34765 c 0.19141,0 0.34766,-0.15625 0.34766,-0.34766 v -0.34765 c 0,-0.19141 -0.15625,-0.34766 -0.34766,-0.34766"
     id="path377" />
</svg>
