<?xml version="1.0" encoding="UTF-8" standalone="no"?>
<svg
   width="150px"
   height="150px"
   viewBox="0 0 17.007797 17.003906"
   version="1.1"
   id="svg378"
   sodipodi:docname="Iconos-L&amp;I-COM-WEB.ai"
   xmlns:inkscape="http://www.inkscape.org/namespaces/inkscape"
   xmlns:sodipodi="http://sodipodi.sourceforge.net/DTD/sodipodi-0.dtd"
   xmlns="http://www.w3.org/2000/svg"
   xmlns:svg="http://www.w3.org/2000/svg">
  <sodipodi:namedview
     id="namedview378"
     pagecolor="#ffffff"
     bordercolor="#000000"
     borderopacity="0.25"
     inkscape:showpageshadow="2"
     inkscape:pageopacity="0.0"
     inkscape:pagecheckerboard="0"
     inkscape:deskcolor="#d1d1d1"
     inkscape:document-units="pt" />
  <defs
     id="defs46" />
  <path
     fill-rule="nonzero"
     fill="#eae1d8"
     fill-opacity="1"
     d="m 17.007807,8.5038935 c 0,4.6953095 -3.80859,8.4999995 -8.5038995,8.4999995 -4.69531,0 -8.5039100000001,-3.80469 -8.5039100000001,-8.4999995 0,-4.69922 3.8086000000001,-8.503910008789 8.5039100000001,-8.503910008789 4.6953095,0 8.5038995,3.804690008789 8.5038995,8.503910008789"
     id="path302" />
  <path
     fill-rule="nonzero"
     fill="#000000"
     fill-opacity="1"
     d="M 11.542967,12.167953 V 9.9335735 c 0.54688,-0.21875 0.97266,-0.49609 1.21484,-0.8125 v 1.9804695 c 0,0.46094 -0.48437,0.82032 -1.21484,1.06641 M 4.2460975,9.1210735 c 0.24609,0.32032 0.66796,0.59766 1.21484,0.81641 v 2.2382795 c -0.73438,-0.25 -1.21484,-0.60937 -1.21484,-1.07031 z m 2.91796,1.2382895 c 0.40235,0.0508 0.8086,0.0781 1.21485,0.082 v 2.14062 c -0.41016,0 -0.82031,-0.0273 -1.21485,-0.0703 z m -0.24218,-0.0391 v 2.16407 c -0.41016,-0.0508 -0.82032,-0.12891 -1.21485,-0.24219 v -2.21485 c 0.39453,0.13282 0.80078,0.23047 1.21485,0.29297 m 1.70312,2.26172 v -2.14062 c 0.40625,-0.004 0.8125,-0.0312 1.21485,-0.082 v 2.15625 c -0.39454,0.043 -0.80469,0.0664 -1.21485,0.0664 m 1.4570295,-0.0977 v -2.16407 c 0.41407,-0.0625 0.82032,-0.16015 1.21485,-0.28906 v 2.21484 c -0.39844,0.10938 -0.80469,0.19141 -1.21485,0.23829 m -4.1093695,-5.3867195 -0.0508,0.19531 c -0.88672,0.27734 -1.44532,0.69922 -1.44532,1.17969 0,0.85547 1.77344,1.52734 4.03125,1.52734 2.2617195,0 4.0312495,-0.67187 4.0312495,-1.52734 0,-0.48047 -0.55468,-0.90235 -1.4414,-1.17969 l -0.0508,-0.19531 c 1.03515,0.3164 1.71875,0.82031 1.71875,1.375 0,0.93359 -1.94532,1.7265595 -4.2578195,1.7265595 -2.30859,0 -4.26171,-0.7890595 -4.26171,-1.7265595 0,-0.55469 0.68359,-1.0586 1.71875,-1.375 z m 6.3242195,1.375 c 0,0.62109 -1.52735,1.28906 -3.7968795,1.28906 -2.26562,0 -3.78515,-0.66797 -3.78515,-1.28906 0,-0.32422 0.41015,-0.65625 1.1289,-0.90625 l -0.25,0.95703 c -0.0117,0.0312 -0.0156,0.0625 -0.0156,0.0977 0,0.19141 0.14843,0.34766 0.33984,0.36329 0.16406,0.0117 0.31641,-0.0859 0.36719,-0.24219 l 0.44922,-1.22656 0.61328,-0.26563 0.0508,-0.008 -0.16016,1.29687 c 0,0.004 0,0.0117 0,0.0156 0,0.23828 0.1875,0.43359 0.52344,0.54687 0.23828,0.0781 0.48828,0.11328 0.73828,0.10938 0.25391,0.004 0.50391,-0.0312 0.74219,-0.10938 0.33984,-0.11328 0.52734,-0.30859 0.52734,-0.54687 0,-0.004 0,-0.0117 0,-0.0156 l -0.16015,-1.29297 h 0.0469 l 0.6132795,0.26563 0.44532,1.22656 c 0.0547,0.15625 0.20703,0.25781 0.37109,0.2461 0.19141,-0.0156 0.33594,-0.17188 0.33984,-0.36329 0,-0.0312 -0.004,-0.0664 -0.0117,-0.0977 l -0.25,-0.95703 c 0.71485,0.25 1.13282,0.58203 1.13282,0.90625 m -5.7695295,-1.7461 0.76562,-0.3164 c 0.18359,-0.0781 0.37891,-0.11719 0.57813,-0.11719 h 1.26562 c 0.19531,0 0.39453,0.0391 0.57422,0.11719 l 0.7617195,0.3125 c 0.16015,0.082 0.27734,0.22656 0.32422,0.39843 l 0.38672,1.46485 c 0,0.0117 0,0.0234 0,0.0352 0,0.0664 -0.0547,0.1211 -0.1211,0.1211 -0.0508,0 -0.0976,-0.0352 -0.11328,-0.082 l -0.46875,-1.27735 c -0.0117,-0.0312 -0.0352,-0.0586 -0.0664,-0.0703 l -0.9062495,-0.39062 c -0.0391,-0.0156 -0.0859,-0.0117 -0.12109,0.0156 -0.0352,0.0273 -0.0508,0.0703 -0.0469,0.11328 l 0.19531,1.51172 c -0.008,0.16797 -0.22656,0.26953 -0.35938,0.3125 -0.43359,0.12891 -0.89843,0.12891 -1.33203,0 -0.13281,-0.043 -0.35156,-0.14453 -0.35937,-0.3125 l 0.19531,-1.51172 c 0.008,-0.0703 -0.043,-0.1289 -0.10938,-0.13672 -0.0234,-0.004 -0.043,0 -0.0625,0.008 l -0.90625,0.39062 c -0.0312,0.0117 -0.0547,0.0391 -0.0664,0.0703 l -0.46485,1.27735 c -0.0273,0.0625 -0.0976,0.0937 -0.16015,0.0703 -0.0469,-0.0195 -0.0781,-0.0625 -0.0781,-0.10938 0,-0.0117 0,-0.0234 0.004,-0.0312 l 0.38281,-1.46875 c 0.043,-0.16796 0.15235,-0.3125 0.3086,-0.39453 m 4.3867095,0.0742 c -0.0859,-0.125 -0.20312,-0.23047 -0.34375,-0.29687 l -0.7656195,-0.32032 c -0.21484,-0.0859 -0.44141,-0.13281 -0.67188,-0.13281 h -1.26581 c -0.23047,0 -0.45703,0.0469 -0.66797,0.13281 l -0.77734,0.32422 c -0.13672,0.0664 -0.25,0.16797 -0.33594,0.29297 -1.26172,0.34375 -2.08594,0.95703 -2.08594,1.66797 v 2.6289095 c 0,0.55468 0.5,1.01172 1.44922,1.32031 0.81641,0.26562 1.89453,0.41016 3.05078,0.41016 2.2382795,0 4.4999995,-0.53516 4.4999995,-1.72657 V 8.4726635 c 0,-0.71094 -0.82422,-1.32422 -2.08594,-1.67188"
     id="path303" />
  <path
     fill-rule="nonzero"
     fill="#000000"
     fill-opacity="1"
     d="m 8.4999975,4.2812335 c 0.39063,0 0.70703,0.31641 0.70703,0.70313 0,0.39062 -0.3164,0.70312 -0.70703,0.70312 -0.38672,0 -0.70312,-0.3125 -0.70312,-0.70312 0,-0.38672 0.3164,-0.70313 0.70312,-0.70313 m 0.94922,0.70313 c 0,-0.52344 -0.42578,-0.94532 -0.94922,-0.94532 -0.51953,0 -0.94531,0.42188 -0.94531,0.94532 0,0.52343 0.42578,0.94921 0.94531,0.94921 0.52344,0 0.94922,-0.42578 0.94922,-0.94921"
     id="path304" />
  <path
     fill-rule="nonzero"
     fill="#000000"
     fill-opacity="1"
     d="m 12.070307,4.2109235 c 0.0234,-0.0664 0.0586,-0.12891 0.0977,-0.1836 0.0469,-0.0469 0.043,-0.125 -0.004,-0.17187 -0.0508,-0.0469 -0.125,-0.043 -0.17187,0.008 -0.004,0.004 -0.008,0.008 -0.0117,0.0117 -0.23047,0.28125 -0.23047,0.6875 0,0.97266 0.043,0.0469 0.0781,0.10547 0.0977,0.16406 0.0351,0.10547 0.0351,0.21875 0,0.32422 -0.0195,0.0664 -0.0547,0.125 -0.0977,0.17969 -0.043,0.0547 -0.0352,0.1289 0.0195,0.17187 0.0234,0.0195 0.0508,0.0273 0.0781,0.0273 0.0391,0 0.0742,-0.0156 0.0976,-0.043 0.23047,-0.28516 0.23047,-0.69141 0,-0.97266 -0.043,-0.0508 -0.0742,-0.10547 -0.0976,-0.16406 -0.0391,-0.10547 -0.0391,-0.21875 -0.008,-0.32422"
     id="path305" />
  <path
     fill-rule="nonzero"
     fill="#000000"
     fill-opacity="1"
     d="m 11.398437,4.2109235 c 0.0234,-0.0664 0.0547,-0.12891 0.0977,-0.1836 0.043,-0.0508 0.0351,-0.1289 -0.0156,-0.17187 -0.0547,-0.043 -0.13281,-0.0352 -0.17187,0.0195 -0.23047,0.28516 -0.23047,0.6875 0,0.97266 0.0391,0.0469 0.0742,0.10547 0.0976,0.16406 0.0352,0.10547 0.0352,0.21875 0,0.32422 -0.0234,0.0664 -0.0586,0.125 -0.0976,0.17969 -0.0469,0.0508 -0.0391,0.1289 0.008,0.17187 0.004,0.004 0.004,0.004 0.008,0.004 0.0195,0.0195 0.0469,0.0273 0.0781,0.0312 0.0351,0 0.0703,-0.0156 0.0937,-0.0469 0.23437,-0.28125 0.23437,-0.6914 0,-0.97265 -0.0391,-0.0508 -0.0742,-0.10547 -0.0937,-0.16407 -0.0391,-0.10547 -0.0391,-0.22265 -0.004,-0.32812"
     id="path306" />
  <path
     fill-rule="nonzero"
     fill="#000000"
     fill-opacity="1"
     d="m 5.6054675,4.2109235 c 0.0234,-0.0664 0.0547,-0.12891 0.0977,-0.1836 0.0469,-0.0469 0.043,-0.125 -0.008,-0.17187 -0.0469,-0.0469 -0.125,-0.043 -0.17187,0.008 -0.004,0.004 -0.004,0.008 -0.008,0.0117 -0.23438,0.28125 -0.23438,0.6875 0,0.97266 0.043,0.0469 0.0742,0.10547 0.0976,0.16406 0.0352,0.10547 0.0352,0.21875 0,0.32422 -0.0234,0.0664 -0.0547,0.125 -0.0976,0.17969 -0.043,0.0547 -0.0352,0.1289 0.0156,0.17187 0.0234,0.0195 0.0508,0.0273 0.082,0.0273 0.0352,0 0.0703,-0.0156 0.0977,-0.043 0.23047,-0.28516 0.23047,-0.69141 0,-0.97266 -0.043,-0.0508 -0.0742,-0.10547 -0.0977,-0.16406 -0.0391,-0.10547 -0.043,-0.21875 -0.008,-0.32422"
     id="path307" />
  <path
     fill-rule="nonzero"
     fill="#000000"
     fill-opacity="1"
     d="m 4.9335975,4.2109235 c 0.0195,-0.0664 0.0547,-0.12891 0.0937,-0.1836 0.043,-0.0508 0.0351,-0.1289 -0.0156,-0.17187 -0.0508,-0.043 -0.12891,-0.0352 -0.17187,0.0195 -0.23047,0.28125 -0.23047,0.6875 0,0.97266 0.043,0.0469 0.0742,0.10547 0.0976,0.16406 0.0352,0.10547 0.0352,0.21875 0,0.32422 -0.0234,0.0664 -0.0547,0.125 -0.0976,0.17969 -0.043,0.0508 -0.0352,0.1289 0.0156,0.17187 0.0234,0.0195 0.0508,0.0273 0.0781,0.0273 0.0391,0.004 0.0742,-0.0156 0.0976,-0.043 0.23438,-0.28516 0.23438,-0.69141 0,-0.97266 -0.0391,-0.0508 -0.0742,-0.10547 -0.0976,-0.16406 -0.0352,-0.10547 -0.0352,-0.21875 0,-0.32422"
     id="path308" />
</svg>
