<?xml version="1.0" encoding="UTF-8" standalone="no"?>
<svg
   width="150px"
   height="150px"
   viewBox="0 0 17.003906 17.003906"
   version="1.1"
   id="svg378"
   sodipodi:docname="Iconos-L&amp;I-COM-WEB.ai"
   xmlns:inkscape="http://www.inkscape.org/namespaces/inkscape"
   xmlns:sodipodi="http://sodipodi.sourceforge.net/DTD/sodipodi-0.dtd"
   xmlns="http://www.w3.org/2000/svg"
   xmlns:svg="http://www.w3.org/2000/svg">
  <sodipodi:namedview
     id="namedview378"
     pagecolor="#ffffff"
     bordercolor="#000000"
     borderopacity="0.25"
     inkscape:showpageshadow="2"
     inkscape:pageopacity="0.0"
     inkscape:pagecheckerboard="0"
     inkscape:deskcolor="#d1d1d1"
     inkscape:document-units="pt" />
  <defs
     id="defs46" />
  <path
     fill-rule="nonzero"
     fill="#eae1d8"
     fill-opacity="1"
     d="m 17.003901,8.5038935 c 0,4.6953095 -3.80468,8.4999995 -8.4999998,8.4999995 -4.69921,0 -8.5038999500001,-3.80469 -8.5038999500001,-8.4999995 0,-4.69922 3.8046899500001,-8.503910008789 8.5038999500001,-8.503910008789 4.6953198,0 8.4999998,3.804690008789 8.4999998,8.503910008789"
     id="path291" />
  <path
     fill-rule="nonzero"
     fill="#000000"
     fill-opacity="1"
     d="M 12.839841,10.124983 H 4.1640612 V 5.2226435 c 0,-0.1836 0.15234,-0.33203 0.33594,-0.33203 h 8.0038998 c 0.1875,0 0.33594,0.14843 0.33594,0.33203 z m -0.33594,0.66797 H 4.5000012 c -0.1836,0 -0.33594,-0.14844 -0.33594,-0.33203 h 8.6757798 c 0,0.18359 -0.14844,0.33203 -0.33594,0.33203 m -2.6874998,1.60156 h -2.6289 l 0.63672,-1.26953 h 1.35937 z M 12.503901,4.5585735 H 4.5000012 c -0.3711,0 -0.66797,0.29688 -0.66797,0.66407 v 5.2382795 c 0,0.36719 0.29687,0.66406 0.66797,0.66406 h 2.94922 l -0.63282,1.26953 h -0.98437 c -0.0898,0.004 -0.16406,0.082 -0.16016,0.17578 0.004,0.0859 0.0742,0.15625 0.16016,0.16016 h 5.3398398 c 0.0899,0 0.16797,-0.0742 0.16797,-0.16797 0,-0.0898 -0.0781,-0.16797 -0.16797,-0.16797 h -0.98047 l -0.6367098,-1.26953 h 2.9492098 c 0.3711,0 0.66797,-0.29687 0.66797,-0.66406 V 5.2226435 c 0,-0.36719 -0.29687,-0.66407 -0.66797,-0.66407"
     id="path292" />
  <path
     fill-rule="nonzero"
     fill="#000000"
     fill-opacity="1"
     d="m 8.6835912,9.2070135 c 0,0.0469 -0.0391,0.0859 -0.082,0.0859 h -3.5 c -0.0469,0 -0.082,-0.0391 -0.082,-0.0859 v -0.44922 c 0,-0.30468 0.19531,-0.57812 0.48437,-0.67187 0.28516,-0.082 1.05079,-0.40235 1.34766,-0.38281 0.28906,-0.0195 1.06641,0.30468 1.34766,0.38281 0.28906,0.0937 0.48437,0.36719 0.48437,0.67187 z m -2.70703,-2.71094 c 0.0352,-1.15625 1.71094,-1.15625 1.75,0 -0.0391,1.15625 -1.71484,1.15625 -1.75,0 m 2.32813,1.27344 -0.78907,-0.26562 c 0.98828,-0.64063 0.53125,-2.21875 -0.66406,-2.21485 -1.19531,0 -1.65234,1.57422 -0.66406,2.21485 l -0.78906,0.26562 c -0.42579,0.14063 -0.71485,0.53906 -0.71485,0.98828 v 0.44922 c 0,0.23047 0.1875,0.41797 0.41797,0.41797 h 3.5 c 0.22656,0 0.41406,-0.1875 0.41406,-0.41797 v -0.44922 c 0,-0.44922 -0.28515,-0.84765 -0.71093,-0.98828"
     id="path293" />
  <path
     fill-rule="nonzero"
     fill="#000000"
     fill-opacity="1"
     d="m 9.8359412,6.8085735 h 1.3359298 c 0.0937,-0.004 0.16407,-0.0781 0.16407,-0.17187 -0.004,-0.0898 -0.0742,-0.16016 -0.16407,-0.16406 H 9.8359412 c -0.0899,0.004 -0.16407,0.0781 -0.16407,0.17187 0.004,0.0898 0.0742,0.16016 0.16407,0.16406"
     id="path294" />
  <path
     fill-rule="nonzero"
     fill="#000000"
     fill-opacity="1"
     d="M 12.199221,7.4765435 H 9.8359412 c -0.0899,0 -0.16407,0.0781 -0.16016,0.16797 0,0.0898 0.0703,0.16406 0.16016,0.16406 h 2.3632798 c 0.0898,0 0.16797,-0.0742 0.16797,-0.16796 0,-0.0898 -0.0781,-0.16407 -0.16797,-0.16407"
     id="path295" />
  <path
     fill-rule="nonzero"
     fill="#000000"
     fill-opacity="1"
     d="M 12.199221,8.4765435 H 9.8359412 c -0.0899,0 -0.16407,0.0781 -0.16016,0.16797 0,0.0898 0.0703,0.16406 0.16016,0.16406 h 2.3632798 c 0.0898,0 0.16797,-0.0742 0.16797,-0.16406 0,-0.0937 -0.0781,-0.16797 -0.16797,-0.16797"
     id="path296" />
</svg>
