<?xml version="1.0" encoding="UTF-8" standalone="no"?>
<svg
   width="150px"
   height="150px"
   viewBox="0 0 17.003906 17.003906"
   version="1.1"
   id="svg378"
   sodipodi:docname="Iconos-L&amp;I-COM-WEB.ai"
   xmlns:inkscape="http://www.inkscape.org/namespaces/inkscape"
   xmlns:sodipodi="http://sodipodi.sourceforge.net/DTD/sodipodi-0.dtd"
   xmlns="http://www.w3.org/2000/svg"
   xmlns:svg="http://www.w3.org/2000/svg">
  <sodipodi:namedview
     id="namedview378"
     pagecolor="#ffffff"
     bordercolor="#000000"
     borderopacity="0.25"
     inkscape:showpageshadow="2"
     inkscape:pageopacity="0.0"
     inkscape:pagecheckerboard="0"
     inkscape:deskcolor="#d1d1d1"
     inkscape:document-units="pt" />
  <defs
     id="defs46" />
  <path
     fill-rule="nonzero"
     fill="#eae1d8"
     fill-opacity="1"
     d="m 17.003906,8.4999987 c 0,4.6992203 -3.804688,8.5039103 -8.5039058,8.5039103 C 3.8046872,17.003909 2.5e-7,13.199219 2.5e-7,8.4999987 2.5e-7,3.8046887 3.8046872,-1.2500001e-6 8.5000002,-1.2500001e-6 13.199218,-1.2500001e-6 17.003906,3.8046887 17.003906,8.4999987"
     id="path367" />
  <path
     fill-rule="nonzero"
     fill="#000000"
     fill-opacity="1"
     d="m 8.6093752,11.871089 c -1.695313,0 -3.070313,-1.37109 -3.070313,-3.0664003 0,-1.69531 1.375,-3.06641 3.070313,-3.06641 1.6914058,0 3.0664058,1.3711 3.0664058,3.06641 -0.0039,1.6953103 -1.375,3.0664003 -3.0664058,3.0664003 m 0,-6.3789003 c -1.832031,0 -3.316407,1.48047 -3.316407,3.3125 0,1.8320303 1.484376,3.3164003 3.316407,3.3164003 1.8281248,0 3.3124998,-1.48437 3.3124998,-3.3164003 -0.0039,-1.82813 -1.484375,-3.3125 -3.3124998,-3.3125"
     id="path368" />
  <path
     fill-rule="nonzero"
     fill="#000000"
     fill-opacity="1"
     d="m 8.6093752,11.097659 c -1.269531,0 -2.296875,-1.02735 -2.296875,-2.2929703 0,-1.26563 1.027344,-2.29297 2.296875,-2.29297 1.265625,0 2.2929688,1.02734 2.2929688,2.29297 0,1.2656203 -1.0273438,2.2929703 -2.2929688,2.2929703 m 0,-4.8359403 c -1.40625,0 -2.542969,1.14062 -2.542969,2.54297 0,1.4023403 1.136719,2.5390603 2.542969,2.5390603 1.4023428,0 2.5390618,-1.13672 2.5390618,-2.5390603 0,-1.40235 -1.136719,-2.53906 -2.5390618,-2.54297"
     id="path369" />
  <path
     fill-rule="nonzero"
     fill="#000000"
     fill-opacity="1"
     d="m 13.351562,5.4921887 c -0.195312,-0.0156 -0.394531,0.0469 -0.546875,0.17578 -0.167969,0.16406 -0.253906,0.39453 -0.238281,0.62891 v 2.15234 c 0,0.0664 0.05469,0.12109 0.125,0.12109 h 0.324219 c 0.06641,0 0.121093,-0.0547 0.121093,-0.12109 0,-0.0664 -0.05469,-0.125 -0.121093,-0.125 H 12.8125 v -2.02734 c -0.01172,-0.16407 0.04297,-0.32422 0.15625,-0.44532 0.07031,-0.0586 0.15625,-0.0977 0.25,-0.10937 v 6.2539003 c 0,0.0664 0.05469,0.125 0.121094,0.125 0.07031,0 0.125,-0.0586 0.125,-0.125 V 5.6132787 c 0,-0.0625 -0.04688,-0.11328 -0.113282,-0.12109"
     id="path370" />
  <path
     fill-rule="nonzero"
     fill="#000000"
     fill-opacity="1"
     d="m 4.8437502,5.3359387 c -0.06641,0 -0.125,0.0547 -0.125,0.125 v 1.74219 c 0,0.0195 -0.02344,0.45312 -0.394532,0.53515 v -2.27734 c 0,-0.0703 -0.05469,-0.125 -0.125,-0.125 -0.06641,0 -0.121093,0.0547 -0.121093,0.125 v 2.28515 c -0.421875,-0.043 -0.460938,-0.49218 -0.460938,-0.54296 v -1.74219 c 0,-0.0703 -0.05469,-0.125 -0.125,-0.125 -0.06641,0 -0.121093,0.0547 -0.121093,0.125 v 1.75 c -0.0039,0.40625 0.3046871,0.74609 0.707031,0.78125 v 4.0039003 c 0,0.0664 0.05469,0.125 0.121093,0.125 0.07031,0 0.125,-0.0586 0.125,-0.125 V 7.9882787 c 0.375,-0.0742 0.644532,-0.39844 0.640626,-0.78125 v -1.74609 c 0,-0.0703 -0.05469,-0.125 -0.121094,-0.125"
     id="path371" />
</svg>
