<?xml version="1.0" encoding="UTF-8" standalone="no"?>
<svg
   width="150px"
   height="150px"
   viewBox="0 0 17.898445 17.898422"
   version="1.1"
   id="svg378"
   sodipodi:docname="Iconos-L&amp;I-COM-WEB.ai"
   xmlns:inkscape="http://www.inkscape.org/namespaces/inkscape"
   xmlns:sodipodi="http://sodipodi.sourceforge.net/DTD/sodipodi-0.dtd"
   xmlns="http://www.w3.org/2000/svg"
   xmlns:svg="http://www.w3.org/2000/svg">
  <sodipodi:namedview
     id="namedview378"
     pagecolor="#ffffff"
     bordercolor="#000000"
     borderopacity="0.25"
     inkscape:showpageshadow="2"
     inkscape:pageopacity="0.0"
     inkscape:pagecheckerboard="0"
     inkscape:deskcolor="#d1d1d1"
     inkscape:document-units="pt" />
  <defs
     id="defs46" />
  <path
     fill-rule="nonzero"
     fill="#eae1d8"
     fill-opacity="1"
     d="m 17.898436,8.9492162 c 0,4.9414098 -4.00781,8.9492198 -8.9492198,8.9492198 -4.94531,0 -8.94921995,-4.00781 -8.94921995,-8.9492198 0,-4.9414 4.00390995,-8.9492199500001 8.94921995,-8.9492199500001 4.9414098,0 8.9492198,4.0078199500001 8.9492198,8.9492199500001"
     id="path208" />
  <path
     fill-rule="nonzero"
     fill="#000000"
     fill-opacity="1"
     d="m 7.3320262,10.820316 h 1.10938 c -0.10547,0.10156 -0.1875,0.22656 -0.26563,0.33984 -0.15234,0.23828 -0.26171,0.38281 -0.45703,0.38281 -0.16406,0 -0.26953,-0.10156 -0.38672,-0.27344 z m 0,-1.6210998 H 10.824216 V 10.453126 H 7.3320262 Z m 0,-1.62109 h 3.4921898 v 1.2539 H 7.3320262 Z m 3.4921898,3.3281198 c -0.0742,0.082 -0.13281,0.17188 -0.1875,0.25391 -0.15625,0.23828 -0.26172,0.38281 -0.46094,0.38281 -0.1953098,0 -0.3046798,-0.14453 -0.4609298,-0.38281 -0.0742,-0.11328 -0.15625,-0.23828 -0.2656299,-0.33984 h 1.3749997 z m -6.7929698,0.0742 c 0.19922,0 0.30469,0.14453 0.46094,0.38281 0.16016,0.2461 0.36328,0.55079 0.76953,0.55079 0.40625,0 0.60547,-0.30469 0.76563,-0.54688 0.15625,-0.23828 0.26172,-0.38672 0.46093,-0.38672 0.19922,0 0.30469,0.14844 0.46094,0.38672 0.0156,0.0195 0.0312,0.043 0.0469,0.0625 v 0.004 c 0.15234,0.22656 0.35156,0.48047 0.72265,0.48047 0.40625,0 0.60938,-0.30469 0.76953,-0.54688 0.15625,-0.23828 0.26172,-0.38281 0.46094,-0.38281 0.19922,0 0.30469,0.14453 0.46094,0.38281 0.16016,0.24219 0.36328,0.54688 0.7656198,0.54688 0.40625,0 0.60938,-0.30469 0.76954,-0.54688 0.15625,-0.23828 0.26171,-0.38281 0.46093,-0.38281 0.19922,0 0.30469,0.14453 0.46094,0.38281 0.16016,0.24219 0.36328,0.54688 0.76953,0.54688 0.40625,0 0.60547,-0.30469 0.76953,-0.54688 0.15625,-0.23828 0.26172,-0.38672 0.46094,-0.38672 0.10156,0 0.18359,-0.082 0.18359,-0.18359 0,-0.10156 -0.082,-0.1836 -0.18359,-0.1836 -0.41016,0 -0.60937,0.30469 -0.76953,0.54688 -0.15625,0.23828 -0.26563,0.38281 -0.46094,0.38281 -0.19922,0 -0.30469,-0.14453 -0.46094,-0.38281 -0.16015,-0.24219 -0.36328,-0.54688 -0.76953,-0.54688 -0.0781,0 -0.14843,0.0117 -0.21484,0.0312 V 6.1718963 c 0,-0.39844 0.32812,-0.72266 0.72656,-0.72266 0.39844,0 0.72266,0.32422 0.72266,0.72266 0,0.10156 0.082,0.18359 0.18359,0.18359 0.10156,0 0.1836,-0.082 0.1836,-0.18359 0,-0.60156 -0.48829,-1.09375 -1.08985,-1.09375 -0.60156,0 -1.09375,0.49219 -1.09375,1.09375 v 1.03515 H 7.3320462 v -1.03515 c 0,-0.39844 0.32422,-0.72266 0.72266,-0.72266 0.39844,0 0.72266,0.32422 0.72266,0.72266 0,0.10156 0.082,0.18359 0.18359,0.18359 0.10547,0 0.1875,-0.082 0.1875,-0.18359 0,-0.60156 -0.49219,-1.09375 -1.09375,-1.09375 -0.60156,0 -1.09375,0.49219 -1.09375,1.09375 v 4.6210897 c -0.12109,-0.10547 -0.26953,-0.17969 -0.47266,-0.17969 -0.40625,0 -0.60546,0.30469 -0.76562,0.54688 -0.15625,0.23828 -0.26563,0.38281 -0.46094,0.38281 -0.19922,0 -0.30469,-0.14453 -0.46094,-0.38281 -0.16015,-0.24219 -0.36328,-0.54688 -0.76953,-0.54688 -0.10156,0 -0.18359,0.082 -0.18359,0.1836 0,0.10156 0.082,0.18359 0.18359,0.18359"
     id="path209" />
</svg>
