<?xml version="1.0" encoding="UTF-8" standalone="no"?>
<svg
   width="150px"
   height="150px"
   viewBox="0 0 17.007797 17.003918"
   version="1.1"
   id="svg378"
   sodipodi:docname="Iconos-L&amp;I-COM-WEB.ai"
   xmlns:inkscape="http://www.inkscape.org/namespaces/inkscape"
   xmlns:sodipodi="http://sodipodi.sourceforge.net/DTD/sodipodi-0.dtd"
   xmlns="http://www.w3.org/2000/svg"
   xmlns:svg="http://www.w3.org/2000/svg">
  <sodipodi:namedview
     id="namedview378"
     pagecolor="#ffffff"
     bordercolor="#000000"
     borderopacity="0.25"
     inkscape:showpageshadow="2"
     inkscape:pageopacity="0.0"
     inkscape:pagecheckerboard="0"
     inkscape:deskcolor="#d1d1d1"
     inkscape:document-units="pt" />
  <defs
     id="defs46" />
  <path
     fill-rule="nonzero"
     fill="#eae1d8"
     fill-opacity="1"
     d="m 17.007811,8.4999987 c 0,4.6953103 -3.80859,8.5039103 -8.5039098,8.5039103 -4.69531,0 -8.5038999500001,-3.8086 -8.5038999500001,-8.5039103 C 1.2499999e-6,3.8046887 3.8085912,-1.25e-6 8.5039012,-1.25e-6 c 4.6953198,0 8.5039098,3.80468995 8.5039098,8.49999995"
     id="path374" />
  <path
     fill-rule="nonzero"
     fill="#000000"
     fill-opacity="1"
     d="m 9.0898412,4.5664087 c 0,-0.0586 0.008,-0.125 0,-0.1836 -0.0312,-0.23437 -0.10937,-0.4414 -0.34765,-0.53125 -0.10157,-0.0391 -0.21875,-0.043 -0.33204,-0.043 -0.22656,0 -0.39453,0.11329 -0.47265,0.32813 -0.15625,0.44141 -0.0859,0.86328 0.17187,1.24609 0.19532,0.28516 0.57032,0.26953 0.75782,-0.0234 0.15625,-0.23829 0.23828,-0.50391 0.22265,-0.79297 m -0.92969,7.5312503 c 0.0117,-0.0156 0.0234,-0.0352 0.0352,-0.0508 -0.0312,-0.0156 -0.0664,-0.0234 -0.0937,-0.0469 -0.32031,-0.26562 -0.66797,-0.49219 -1.03125,-0.69922 -0.46875,-0.26172 -0.94922,-0.49219 -1.48437,-0.57812 -0.19141,-0.0352 -0.37891,-0.0391 -0.56641,0.0156 -0.082,0.0234 -0.10156,0.0547 -0.0703,0.13281 0.0703,0.1836 0.18359,0.33594 0.3164,0.48047 0.25,0.26953 0.54297,0.48438 0.85157,0.6836 0.0781,0.0469 0.15234,0.0664 0.24218,0.0664 0.5625,-0.004 1.12891,-0.004 1.69532,-0.004 z m 0.60938,-0.0508 c 0.0117,0.0156 0.0234,0.0312 0.0352,0.043 0.0195,0.004 0.043,0.008 0.0664,0.008 0.60156,0 1.2070298,0.004 1.8085998,0 0.0351,0 0.0781,-0.0117 0.10937,-0.0312 0.29297,-0.1836 0.57422,-0.37891 0.82031,-0.625 0.16797,-0.16797 0.32032,-0.35157 0.40625,-0.57813 0.0234,-0.0664 0.0117,-0.0977 -0.0625,-0.12109 -0.28125,-0.0898 -0.55468,-0.0391 -0.82422,0.0312 -0.41796,0.10547 -0.80468,0.28515 -1.1796798,0.49609 -0.38282,0.21485 -0.75,0.44531 -1.08594,0.72656 -0.0273,0.0234 -0.0625,0.0352 -0.0937,0.0508 m -0.26563,-6.1718803 c -0.15234,0 -0.15234,0 -0.16796,0.11719 -0.0664,0.4375 -0.32032,0.71875 -0.73047,0.86719 -0.34766,0.125 -0.67969,0.27734 -0.94532,0.54687 -0.23437,0.23047 -0.39843,0.50391 -0.53125,0.79688 -0.15625,0.33984 -0.27734,0.6875 -0.32031,1.0625 -0.008,0.082 0.0195,0.10546 0.0977,0.10156 0.29687,-0.0117 0.59375,-0.0391 0.8789,-0.12891 0.21485,-0.0664 0.41407,-0.1601499 0.5625,-0.33984 0.19532,-0.23047 0.36329,-0.48047 0.47657,-0.76172 0.10156,-0.25391 0.17578,-0.51953 0.26172,-0.78516 0.0273,-0.082 0.0937,-0.125 0.17578,-0.10547 0.0703,0.0156 0.11328,0.0859 0.0976,0.1640701 -0.0898,0.41406 -0.23437,0.80859 -0.44922,1.17578 -0.0312,0.0547 -0.0703,0.11719 -0.0781,0.17578 -0.0352,0.26562 -0.0508,0.53516 -0.0937,0.79687 -0.082,0.5078202 -0.25391,0.9765702 -0.66797,1.3203202 -0.0664,0.0586 -0.0273,0.082 0.0234,0.11328 0.46094,0.2539 0.90625,0.54297 1.30469,0.89453 0.0586,0.0547 0.10546,0.0508 0.16406,0 0.40234,-0.35547 0.84765,-0.64453 1.3125,-0.90234 0.0625,-0.0312 0.0742,-0.0547 0.0117,-0.10547 -0.21485,-0.1836 -0.38282,-0.40625 -0.48828,-0.67188 -0.13672,-0.3515602 -0.20704,-0.7226502 -0.24219,-1.1015602 -0.0156,-0.16406 0.008,-0.33594 -0.0859,-0.49219 -0.0898,-0.14453 -0.16797,-0.30078 -0.22656,-0.46484 -0.082,-0.23828 -0.14844,-0.48438 -0.21094,-0.73438 -0.0273,-0.10156 0.0234,-0.17968 0.10547,-0.1914 0.0859,-0.0156 0.15625,0.0352 0.17969,0.13281 0.0117,0.0547 0.0156,0.11328 0.0273,0.16797 0.0898,0.46875 0.29297,0.88281 0.57813,1.26172 0.0781,0.10156 0.16796,0.20312 0.27343,0.27343 0.3906298,0.25391 0.8359398,0.29297 1.2812498,0.3086 0.0664,0 0.0781,-0.0352 0.0703,-0.0937 -0.0352,-0.35938 -0.14844,-0.69531 -0.29297,-1.02344 -0.12891,-0.28906 -0.28125,-0.5625 -0.50391,-0.79297 -0.27734,-0.29297 -0.6249998,-0.46484 -0.9999998,-0.59765 -0.41016,-0.14454 -0.66016,-0.4336 -0.72656,-0.86719 -0.0117,-0.082 -0.0274,-0.15235 -0.1211,-0.11719 m -2.84765,6.1953102 c -0.0274,-0.0234 -0.0547,-0.0508 -0.082,-0.0703 -0.28907,-0.21484 -0.55469,-0.45703 -0.75782,-0.76172 -0.10156,-0.15625 -0.17187,-0.32422 -0.17187,-0.51562 0,-0.0859 0.0273,-0.15235 0.10547,-0.17578 0.13281,-0.043 0.26562,-0.0937 0.40234,-0.10938 0.44531,-0.0391 0.86719,0.0664 1.27735,0.23438 0.0351,0.0156 0.0781,0.0234 0.10546,0.043 0.14063,0.10547 0.2461,0.0352 0.35547,-0.0547 0.23828,-0.1875 0.38282,-0.44141 0.46875,-0.7226602 0.0664,-0.22266 0.0977,-0.45703 0.14453,-0.6875 0.008,-0.0195 0.004,-0.043 0.004,-0.0781 -0.0312,0.0156 -0.0508,0.0195 -0.0664,0.0312 -0.32812,0.26953 -0.72265,0.3789 -1.13671,0.41796 -0.20704,0.0195 -0.41407,0.0156 -0.6211,0.0156 -0.12109,0.004 -0.16406,-0.043 -0.16406,-0.16016 0.008,-0.43359 0.10937,-0.85156 0.28516,-1.24218 0.12109,-0.26954 0.26562,-0.53516 0.4375,-0.77735 0.26171,-0.36719 0.6289,-0.61719 1.05078,-0.78125 0.1289,-0.0508 0.25781,-0.10156 0.38281,-0.16015 0.23828,-0.11719 0.33203,-0.32813 0.38281,-0.57032 0.0274,-0.1289 0.004,-0.21875 -0.0976,-0.3125 -0.21875,-0.21484 -0.32032,-0.49609 -0.36719,-0.79687 -0.0391,-0.26172 -0.0274,-0.52344 0.0664,-0.78125 0.17579,-0.46094 0.66016,-0.60156 1.04688,-0.50781 0.39062,0.0898 0.58594,0.35937 0.65234,0.73437 0.0781,0.4375 -0.004,0.85156 -0.2539,1.22656 -0.0469,0.0703 -0.11719,0.12891 -0.17578,0.19922 -0.0195,0.0273 -0.0469,0.0664 -0.043,0.0977 0.0234,0.13281 0.0469,0.26562 0.0937,0.38672 0.0859,0.23828 0.29297,0.34765 0.51562,0.41797 0.7148498,0.23828 1.2187498,0.69921 1.5468798,1.37109 0.1914,0.39453 0.3125,0.80469 0.38281,1.23047 0.0156,0.0977 0.0117,0.20312 0.0117,0.30078 0,0.0781 -0.0508,0.12109 -0.11719,0.125 -0.59766,0.0273 -1.17969,-0.0156 -1.6992198,-0.35547 -0.0508,-0.0312 -0.0976,-0.0703 -0.16797,-0.11719 0,0.0508 0,0.082 0.004,0.10938 0.0508,0.42578 0.14844,0.8398402 0.41797,1.1835902 0.0898,0.11719 0.2148398,0.20313 0.3320298,0.29297 0.0273,0.0234 0.0937,0.0195 0.12891,0.004 0.28125,-0.12891 0.5664,-0.23438 0.87109,-0.28516 0.3125,-0.0508 0.625,-0.0742 0.93359,0.043 0.15235,0.0625 0.1836,0.10156 0.17188,0.26953 -0.0195,0.24609 -0.14844,0.44531 -0.30078,0.63281 -0.1836,0.22657 -0.39844,0.42188 -0.63672,0.59375 -0.0234,0.0195 -0.0469,0.043 -0.0703,0.0586 0.004,0.0117 0.004,0.0195 0.008,0.0234 0.0351,0.004 0.0664,0.008 0.10156,0.008 0.42969,0 0.85938,0 1.29297,0.004 0.0352,0 0.0781,0.004 0.11328,0.0156 0.0625,0.0234 0.0977,0.0742 0.0937,0.14453 -0.008,0.0742 -0.0586,0.11719 -0.12891,0.12891 -0.0312,0.004 -0.0625,0.004 -0.0898,0.004 -2.8124998,0 -5.6210898,0 -8.4335898,0 -0.14063,0 -0.21094,-0.0469 -0.21485,-0.14453 -0.004,-0.0898 0.0859,-0.15234 0.22266,-0.15234 0.42187,0 0.84766,0 1.27344,0 0.0351,0 0.0703,0 0.10156,-0.004 z m 0,0"
     id="path376" />
</svg>
