<?xml version="1.0" encoding="UTF-8" standalone="no"?>
<svg
   width="150px"
   height="150px"
   viewBox="0 0 17.003906 17.003906"
   version="1.1"
   id="svg378"
   sodipodi:docname="Iconos-L&amp;I-COM-WEB.ai"
   xmlns:inkscape="http://www.inkscape.org/namespaces/inkscape"
   xmlns:sodipodi="http://sodipodi.sourceforge.net/DTD/sodipodi-0.dtd"
   xmlns="http://www.w3.org/2000/svg"
   xmlns:svg="http://www.w3.org/2000/svg">
  <sodipodi:namedview
     id="namedview378"
     pagecolor="#ffffff"
     bordercolor="#000000"
     borderopacity="0.25"
     inkscape:showpageshadow="2"
     inkscape:pageopacity="0.0"
     inkscape:pagecheckerboard="0"
     inkscape:deskcolor="#d1d1d1"
     inkscape:document-units="pt" />
  <defs
     id="defs46" />
  <path
     fill-rule="nonzero"
     fill="#eae1d8"
     fill-opacity="1"
     d="m 17.003906,8.5038935 c 0,4.6953095 -3.804687,8.4999995 -8.4999998,8.4999995 C 3.8046872,17.003893 2.4999999e-7,13.199203 2.4999999e-7,8.5038935 2.4999999e-7,3.8046735 3.8046872,-1.6508789e-5 8.5039062,-1.6508789e-5 c 4.6953128,0 8.4999998,3.804690008789 8.4999998,8.503910008789"
     id="path77" />
  <path
     fill-rule="nonzero"
     fill="#000000"
     fill-opacity="1"
     d="m 8.0117192,12.316393 c -0.01172,0.004 -0.02734,0 -0.04297,-0.004 -0.07813,-0.0156 -0.125,-0.0937 -0.105469,-0.17187 l 0.914062,-3.7499995 c 0.01953,-0.0781 0.09766,-0.125 0.175782,-0.10547 0.07813,0.0156 0.125,0.0937 0.105468,0.17187 l -0.917968,3.7499995 c -0.01563,0.0625 -0.06641,0.10547 -0.128906,0.10938"
     id="path214" />
  <path
     fill-rule="nonzero"
     fill="#000000"
     fill-opacity="1"
     d="m 10.503906,8.2343635 c 0.207031,-0.0156 0.449219,0 0.722656,0.0859 0.53125,0.16797 0.84375,0.48828 1.007813,0.71485 0.04687,-0.11328 0.08594,-0.23438 0.117187,-0.35547 0.507813,-1.875 -0.59375,-3.82422 -2.4492188,-4.33985 -0.898437,-0.25 -1.832031,-0.13281 -2.640624,0.32813 -0.816407,0.46484 -1.402344,1.22656 -1.652344,2.14062 -0.02734,0.10938 -0.05469,0.22266 -0.07422,0.33594 0.222656,-0.10547 0.570313,-0.20703 1.035156,-0.1289 0.597657,0.10156 0.859375,0.49218 0.960938,0.72656 0.257812,-0.13672 0.785156,-0.35156 1.359375,-0.19922 0.589844,0.15625 0.902344,0.61328 1.03125,0.85937 0.1249998,-0.0664 0.3242178,-0.14453 0.5820308,-0.16796 m 1.765625,1.25781 c -0.0039,0 -0.01172,0 -0.01563,0 -0.05859,0 -0.105469,-0.0352 -0.128906,-0.0898 -0.01172,-0.0195 -0.253907,-0.57421 -0.984375,-0.80468 -0.722656,-0.23047 -1.1757818,0.10937 -1.1953128,0.12109 -0.03516,0.0312 -0.08203,0.0391 -0.128906,0.0273 -0.04297,-0.0156 -0.07813,-0.0469 -0.09375,-0.0898 0,-0.008 -0.253906,-0.66406 -0.90625,-0.83594 -0.65625,-0.17578 -1.273437,0.25 -1.28125,0.25391 -0.03906,0.0273 -0.08984,0.0312 -0.136719,0.0156 -0.04297,-0.0195 -0.07813,-0.0586 -0.08594,-0.10546 -0.0039,-0.0234 -0.128907,-0.57032 -0.789063,-0.6836 -0.6875,-0.11328 -1.050781,0.22266 -1.070312,0.23438 -0.04297,0.043 -0.105469,0.0508 -0.160156,0.0273 -0.05078,-0.0273 -0.08594,-0.082 -0.08203,-0.14062 0.01953,-0.23047 0.0625,-0.46094 0.121094,-0.69141 0.269531,-0.98438 0.902344,-1.80859 1.785156,-2.3125 0.875,-0.49609 1.890625,-0.625 2.859375,-0.35547 2.0117188,0.55859 3.1992188,2.66406 2.6523438,4.69531 -0.0625,0.22657 -0.144531,0.44532 -0.242187,0.65235 -0.02344,0.0469 -0.06641,0.0781 -0.117188,0.082"
     id="path215" />
  <path
     fill-rule="nonzero"
     fill="#000000"
     fill-opacity="1"
     d="m 9.8710932,8.7499835 c -0.03125,0.004 -0.06641,-0.004 -0.09375,-0.0234 -0.06641,-0.043 -0.08203,-0.13281 -0.03906,-0.19922 1.3515618,-2.01953 0.6171878,-3.70312 0.4257808,-4.07421 -1.0937498,0.12109 -1.8554688,0.73437 -2.2656248,1.82031 -0.324218,0.84375 -0.300781,1.66797 -0.300781,1.67969 0.0039,0.0781 -0.05859,0.14453 -0.140625,0.14453 -0.07813,0.004 -0.144531,-0.0586 -0.148438,-0.13672 0,-0.0352 -0.07422,-3.54688 2.9218758,-3.80469 0.05078,-0.004 0.105468,0.0234 0.132812,0.0664 0.01172,0.0234 0.320312,0.51953 0.425781,1.32031 0.101563,0.73437 0.03906,1.875 -0.8124998,3.14453 -0.02344,0.0391 -0.06641,0.0586 -0.105469,0.0625"
     id="path216" />
  <path
     fill-rule="nonzero"
     fill="#000000"
     fill-opacity="1"
     d="m 5.0351562,13.535143 c -0.03125,0.004 -0.0625,-0.004 -0.08984,-0.0234 -0.06641,-0.043 -0.08594,-0.13281 -0.04297,-0.19922 0.03906,-0.0625 1.027344,-1.53906 3.644532,-1.23437 2.4726558,0.28906 3.5624998,-0.13282 3.5742178,-0.14063 0.07422,-0.0273 0.15625,0.008 0.1875,0.082 0.03125,0.0742 -0.0039,0.15625 -0.07812,0.1875 -0.04688,0.0195 -1.15625,0.45703 -3.7187498,0.15625 -2.4375,-0.28125 -3.359376,1.09375 -3.367188,1.10547 -0.02734,0.0391 -0.06641,0.0625 -0.109375,0.0664"
     id="path217" />
  <path
     fill-rule="nonzero"
     fill="#000000"
     fill-opacity="1"
     d="m 10.253906,4.4452935 c -0.01953,0 -0.03516,0 -0.05469,-0.008 -0.07813,-0.0234 -0.117188,-0.10547 -0.09375,-0.17969 l 0.175781,-0.55468 c 0.02344,-0.0742 0.105469,-0.11719 0.183593,-0.0937 0.07422,0.0234 0.117188,0.10546 0.08984,0.17968 l -0.175781,0.55469 c -0.01953,0.0586 -0.07031,0.0937 -0.125,0.10156"
     id="path218" />
</svg>
