<?xml version="1.0" encoding="UTF-8" standalone="no"?>
<svg
   width="150px"
   height="150px"
   viewBox="0 0 17.003906 17.003906"
   version="1.1"
   id="svg378"
   sodipodi:docname="Iconos-L&amp;I-COM-WEB.ai"
   xmlns:inkscape="http://www.inkscape.org/namespaces/inkscape"
   xmlns:sodipodi="http://sodipodi.sourceforge.net/DTD/sodipodi-0.dtd"
   xmlns="http://www.w3.org/2000/svg"
   xmlns:svg="http://www.w3.org/2000/svg">
  <sodipodi:namedview
     id="namedview378"
     pagecolor="#ffffff"
     bordercolor="#000000"
     borderopacity="0.25"
     inkscape:showpageshadow="2"
     inkscape:pageopacity="0.0"
     inkscape:pagecheckerboard="0"
     inkscape:deskcolor="#d1d1d1"
     inkscape:document-units="pt" />
  <defs
     id="defs46" />
  <path
     fill-rule="nonzero"
     fill="#eae1d8"
     fill-opacity="1"
     d="m 17.003901,8.4999987 c 0,4.6992203 -3.80468,8.5039103 -8.4999998,8.5039103 -4.69921,0 -8.5038999500001,-3.80469 -8.5038999500001,-8.5039103 C 1.2499999e-6,3.8046887 3.8046912,-1.2500001e-6 8.5039012,-1.2500001e-6 13.199221,-1.2500001e-6 17.003901,3.8046887 17.003901,8.4999987"
     id="path334" />
  <path
     fill-rule="nonzero"
     fill="#000000"
     fill-opacity="1"
     d="m 10.523441,7.5351587 h -0.17969 l 0.74219,-1.25391 c 0.0781,-0.14062 0.0781,-0.3125 0,-0.44922 -0.0781,-0.14453 -0.23047,-0.23437 -0.39454,-0.22656 H 8.9960912 c 0.19922,-0.84375 1.0429698,-1.36719 1.8906298,-1.17188 0.84375,0.19922 1.36718,1.04688 1.16797,1.89063 -0.16407,0.71094 -0.80079,1.21484 -1.53125,1.21094 m -1.0429698,0.58593 -1.40235,2.3906303 -1.40625,-2.3906303 z m 1.2109298,-2.07812 -0.9531198,1.62891 h -3.32422 l -0.95312,-1.62891 z m -0.16796,-2.09766 c -0.9765698,-0.004 -1.8124998,0.69141 -1.9882898,1.64844 h -3.07421 c -0.16016,0 -0.30469,0.0859 -0.38282,0.22656 -0.0898,0.13282 -0.0898,0.3125 0,0.44532 l 2.77344,4.7500003 v 1.95312 h -1.37109 c -0.1211,0 -0.22266,0.10156 -0.22266,0.22656 0,0.125 0.10156,0.22266 0.22266,0.22266 h 3.1914 c 0.1211,0 0.22266,-0.0977 0.22266,-0.22266 0,-0.125 -0.10156,-0.22656 -0.22266,-0.22656 h -1.37109 v -1.95312 L 10.097651,7.9414087 c 0.14063,0.0312 0.28125,0.0469 0.42579,0.043 1.11718,0 2.01953,-0.90235 2.01953,-2.01954 0,-1.11718 -0.90235,-2.01953 -2.01953,-2.01953"
     id="path335" />
</svg>
