<?xml version="1.0" encoding="UTF-8" standalone="no"?>
<svg
   width="150px"
   height="150px"
   viewBox="0 0 16.906252 16.910156"
   version="1.1"
   id="svg378"
   sodipodi:docname="Iconos-L&amp;I-COM-WEB.ai"
   xmlns:inkscape="http://www.inkscape.org/namespaces/inkscape"
   xmlns:sodipodi="http://sodipodi.sourceforge.net/DTD/sodipodi-0.dtd"
   xmlns="http://www.w3.org/2000/svg"
   xmlns:svg="http://www.w3.org/2000/svg">
  <sodipodi:namedview
     id="namedview378"
     pagecolor="#ffffff"
     bordercolor="#000000"
     borderopacity="0.25"
     inkscape:showpageshadow="2"
     inkscape:pageopacity="0.0"
     inkscape:pagecheckerboard="0"
     inkscape:deskcolor="#d1d1d1"
     inkscape:document-units="pt" />
  <defs
     id="defs46" />
  <path
     fill-rule="nonzero"
     fill="#eae1d8"
     fill-opacity="1"
     d="m 16.906252,8.4570337 c 0,4.6679703 -3.785156,8.4531203 -8.4531251,8.4531203 C 3.7851579,16.910154 1.9073486e-6,13.125004 1.9073486e-6,8.4570337 1.9073486e-6,3.7851537 3.7851579,3.7499999e-6 8.4531269,3.7499999e-6 13.121096,3.7499999e-6 16.906252,3.7851537 16.906252,8.4570337"
     id="path85" />
  <path
     fill-rule="nonzero"
     fill="#000000"
     fill-opacity="1"
     d="m 8.9257829,8.4960937 h -1.246094 v -2.48828 h 1.246094 c 0.703125,0 1.2421881,0.54297 1.2421881,1.24219 0,0.69921 -0.5390631,1.24609 -1.2421881,1.24609 m 0,-3.5625 h -2.3125 v 8.1914103 h 1.066406 V 9.5625037 h 1.246094 c 1.2734381,0 2.3125001,-1.03907 2.3125001,-2.3125 0,-1.26954 -1.039062,-2.31641 -2.3125001,-2.31641"
     id="path86" />
</svg>
