<?xml version="1.0" encoding="UTF-8" standalone="no"?>
<svg
   width="150px"
   height="150px"
   viewBox="0 0 17.00782 17.003906"
   version="1.1"
   id="svg378"
   sodipodi:docname="Iconos-L&amp;I-COM-WEB.ai"
   xmlns:inkscape="http://www.inkscape.org/namespaces/inkscape"
   xmlns:sodipodi="http://sodipodi.sourceforge.net/DTD/sodipodi-0.dtd"
   xmlns="http://www.w3.org/2000/svg"
   xmlns:svg="http://www.w3.org/2000/svg">
  <sodipodi:namedview
     id="namedview378"
     pagecolor="#ffffff"
     bordercolor="#000000"
     borderopacity="0.25"
     inkscape:showpageshadow="2"
     inkscape:pageopacity="0.0"
     inkscape:pagecheckerboard="0"
     inkscape:deskcolor="#d1d1d1"
     inkscape:document-units="pt" />
  <defs
     id="defs46" />
  <path
     fill-rule="nonzero"
     fill="#eae1d8"
     fill-opacity="1"
     d="m 17.00781,8.4999987 c 0,4.6992203 -3.80859,8.5039103 -8.5039,8.5039103 C 3.80859,17.003909 0,13.199219 0,8.4999987 0,3.8046887 3.80859,-1.2500001e-6 8.50391,-1.2500001e-6 c 4.69531,0 8.5039,3.8046899500001 8.5039,8.4999999500001"
     id="path344" />
  <path
     fill-rule="nonzero"
     fill="#000000"
     fill-opacity="1"
     d="m 11.65625,6.9648387 c -0.0781,0.008 -0.14063,0.0781 -0.13281,0.16016 0.008,0.0781 0.082,0.14063 0.16406,0.13281 0.51172,0 1.17578,0.11719 1.70312,0.40235 -0.7539,0.25781 -1.26562,0.88672 -1.26562,1.65625 0,0.52343 0.17969,1.0429703 0.58984,1.4257803 0.40625,0.38672 1.03516,0.63281 1.91016,0.63281 0.082,0 0.14844,-0.0664 0.14844,-0.14844 0.004,-0.0781 -0.0625,-0.14843 -0.14453,-0.14843 h -0.004 c -0.82031,0 -1.36328,-0.22266 -1.70703,-0.54688 -0.34375,-0.32422 -0.5,-0.7578103 -0.5,-1.2148403 0,-0.7421899 0.52734,-1.33985 1.34765,-1.47657 0.082,-0.0117 0.13282,-0.0898 0.1211,-0.16796 -0.008,-0.0391 -0.0273,-0.0703 -0.0547,-0.0937 -0.63281,-0.47266 -1.5,-0.61329 -2.14453,-0.61329 -0.0117,-0.004 -0.0195,-0.004 -0.0312,0 m -4.23438,-1.91406 c -0.6875,0 -1.22656,0.19922 -1.64453,0.53516 -0.41406,0.33594 -0.70703,0.80078 -0.94531,1.32031 h -0.004 c -0.30468,0.67188 -0.51562,1.29297 -0.82812,1.72266 -0.3125,0.43359 -0.69922,0.6914 -1.42969,0.6914 -0.0781,-0.004 -0.14453,0.0625 -0.14844,0.14453 0,0.082 0.0664,0.14844 0.14454,0.14844 0.004,0 0.004,0 0.004,0 0.80469,0 1.3125,-0.32812 1.66406,-0.8125 0.35157,-0.48437 0.57032,-1.11719 0.86329,-1.76953 0,0 0,-0.004 0,-0.004 0.23046,-0.49609 0.5039,-0.91796 0.87109,-1.21093 0.36328,-0.29688 0.82031,-0.46875 1.45312,-0.46875 0.42969,0 0.97657,0.10156 1.58204,0.29687 -0.875,0.32031 -1.4336,1.01563 -1.4336,1.75781 0,0.79688 0.50391,1.59766 1.59766,1.875 -0.0703,0.14063 -0.14063,0.27735 -0.21094,0.41407 -0.22656,0.4257803 -0.47656,0.8125003 -0.78516,1.0898403 -0.30859,0.27344 -0.67968,0.44531 -1.1914,0.44531 -0.0781,-0.004 -0.14844,0.0625 -0.14844,0.14453 0,0.082 0.0664,0.14844 0.14453,0.14844 h 0.004 c 0.57812,0 1.03515,-0.20703 1.38672,-0.51953 0.35547,-0.3125 0.61328,-0.73047 0.84765,-1.1718703 0.46875,-0.87891 0.83985,-1.83985 1.50782,-2.29297 0.0664,-0.043 0.0859,-0.13282 0.043,-0.19922 -0.0273,-0.0469 -0.0781,-0.0742 -0.13281,-0.0703 -0.0273,0.004 -0.0547,0.0117 -0.0781,0.0273 -0.57813,0.39062 -0.92578,1.05078 -1.25391,1.71484 -1.03516,-0.23437 -1.4375,-0.9101499 -1.4375,-1.60547 0,-0.69921 0.61328,-1.43359 1.64453,-1.62109 0.082,-0.0156 0.13281,-0.0898 0.11719,-0.17187 -0.0117,-0.0469 -0.043,-0.0898 -0.0898,-0.10547 -0.82422,-0.32032 -1.53907,-0.45313 -2.11329,-0.45313"
     id="path375" />
</svg>
