<?xml version="1.0" encoding="UTF-8" standalone="no"?>
<svg
   width="150px"
   height="150px"
   viewBox="0 0 17.003906 17.003906"
   version="1.1"
   id="svg378"
   sodipodi:docname="Iconos-L&amp;I-COM-WEB.ai"
   xmlns:inkscape="http://www.inkscape.org/namespaces/inkscape"
   xmlns:sodipodi="http://sodipodi.sourceforge.net/DTD/sodipodi-0.dtd"
   xmlns="http://www.w3.org/2000/svg"
   xmlns:svg="http://www.w3.org/2000/svg">
  <sodipodi:namedview
     id="namedview378"
     pagecolor="#ffffff"
     bordercolor="#000000"
     borderopacity="0.25"
     inkscape:showpageshadow="2"
     inkscape:pageopacity="0.0"
     inkscape:pagecheckerboard="0"
     inkscape:deskcolor="#d1d1d1"
     inkscape:document-units="pt" />
  <defs
     id="defs46" />
  <path
     fill-rule="nonzero"
     fill="#eae1d8"
     fill-opacity="1"
     d="m 17.003909,8.5038935 c 0,4.6953095 -3.80468,8.4999995 -8.5039001,8.4999995 -4.69531,0 -8.5000000206055,-3.80469 -8.5000000206055,-8.4999995 0,-4.69922 3.8046900206055,-8.503910008789 8.5000000206055,-8.503910008789 4.6992201,0 8.5039001,3.804690008789 8.5039001,8.503910008789"
     id="path255" />
  <path
     fill-rule="nonzero"
     fill="#000000"
     fill-opacity="1"
     d="M 11.113289,6.8671735 V 10.570293 H 5.8867289 V 6.8671735 c 0,-0.0234 -0.004,-0.0508 -0.0156,-0.0742 l 2.62891,-2.04297 2.6289001,2.04297 c -0.008,0.0234 -0.0156,0.0508 -0.0156,0.0742 m 1.44141,0.48437 -3.9179701,-3.05078 c -0.0781,-0.0625 -0.19141,-0.0625 -0.26953,0 l -3.91797,3.05078 c -0.0977,0.0703 -0.11328,0.21094 -0.0391,0.30469 0.0742,0.0937 0.21093,0.11328 0.30468,0.0391 l 0.73828,-0.57422 v 3.6679695 c 0,0.1211 0.0977,0.21875 0.21875,0.21875 h 5.6601601 c 0.12109,0 0.21875,-0.0977 0.21875,-0.21875 V 7.1211135 l 0.73828,0.57422 c 0.0391,0.0312 0.0859,0.043 0.13281,0.043 0.0625,0 0.12891,-0.0273 0.17188,-0.082 0.0742,-0.0937 0.0586,-0.23437 -0.0391,-0.30469"
     id="path257" />
  <path
     fill-rule="nonzero"
     fill="#000000"
     fill-opacity="1"
     d="m 12.203129,11.441393 c -0.12109,0 -0.21875,0.0977 -0.21875,0.21875 v 0.21875 l -6.9687501,-0.0117 v -0.20703 c 0,-0.1211 -0.0977,-0.21875 -0.21484,-0.21875 -0.12109,0 -0.21875,0.0977 -0.21875,0.21875 v 0.87109 c 0,0.12109 0.0977,0.21875 0.21875,0.21875 0.11719,0 0.21484,-0.0977 0.21484,-0.21875 v -0.23047 l 6.9687501,0.0117 v 0.21875 c 0,0.12109 0.0977,0.21875 0.21875,0.21875 0.1211,0 0.21875,-0.0977 0.21875,-0.21875 v -0.87109 c 0,-0.1211 -0.0977,-0.21875 -0.21875,-0.21875"
     id="path258" />
  <path
     fill-rule="nonzero"
     fill="#000000"
     fill-opacity="1"
     d="m 6.6289189,9.2773235 0.0547,-0.45703 c 0.0312,-0.22265 0.21875,-0.39062 0.44532,-0.39062 h 0.40625 c 0.22265,0 0.41406,0.16797 0.4414,0.39062 l 0.0547,0.45703 c -0.45703,0.0898 -0.95313,0.0898 -1.40234,0 m 0.70312,-2.01171 c 0.22266,0 0.40625,0.18359 0.40625,0.40625 0,0.22265 -0.18359,0.40625 -0.40625,0.40625 -0.22656,0 -0.41016,-0.1836 -0.41016,-0.40625 0,-0.21875 0.1836,-0.40625 0.41016,-0.40625 m 0.46094,0.92578 c 0.14062,-0.12891 0.23047,-0.3086 0.23047,-0.51172 0,-0.38672 -0.3086,-0.69531 -0.69141,-0.69531 -0.38672,0 -0.69531,0.30859 -0.69531,0.69531 0,0.20312 0.0898,0.38281 0.23047,0.51172 -0.2461,0.0898 -0.4336,0.3125 -0.46094,0.59375 l -0.0586,0.47656 c -0.0117,0.14062 0.0703,0.25781 0.20312,0.28906 0.25391,0.0547 0.51172,0.0742 0.78125,0.0742 0.26563,0 0.53125,-0.0273 0.77734,-0.0742 0.13282,-0.0312 0.22266,-0.15625 0.20313,-0.28906 l -0.0586,-0.47656 c -0.0352,-0.28125 -0.21485,-0.50391 -0.46094,-0.59375"
     id="path259" />
  <path
     fill-rule="nonzero"
     fill="#000000"
     fill-opacity="1"
     d="m 8.9687589,9.2773235 0.0586,-0.45703 c 0.0273,-0.22265 0.21485,-0.39062 0.44141,-0.39062 h 0.40625 c 0.2226501,0 0.4140601,0.16797 0.4414001,0.39062 l 0.0547,0.45703 c -0.4492201,0.0898 -0.9531201,0.0898 -1.4023401,0 m 0.70312,-2.01171 c 0.22266,0 0.4062501,0.18359 0.4062501,0.40625 0,0.22265 -0.1835901,0.40625 -0.4062501,0.40625 -0.22265,0 -0.40625,-0.1836 -0.40625,-0.40625 0,-0.21875 0.1836,-0.40625 0.40625,-0.40625 m 0.4609401,0.92578 c 0.14063,-0.12891 0.23438,-0.3086 0.23438,-0.51172 0,-0.38672 -0.3125,-0.69531 -0.6953201,-0.69531 -0.38672,0 -0.69531,0.30859 -0.69531,0.69531 0,0.20312 0.0898,0.38281 0.23047,0.51172 -0.24219,0.0898 -0.43359,0.3125 -0.46094,0.59375 l -0.0547,0.47656 c -0.0156,0.13281 0.0703,0.25781 0.20313,0.28906 0.25,0.0547 0.51172,0.0742 0.77734,0.0742 0.26563,0 0.5312501,-0.0273 0.7773501,-0.0742 0.13281,-0.0312 0.22265,-0.15625 0.20312,-0.28906 l -0.0547,-0.47656 c -0.0312,-0.28125 -0.21875,-0.50391 -0.46484,-0.59375"
     id="path260" />
</svg>
