<?xml version="1.0" encoding="UTF-8" standalone="no"?>
<svg
   width="150px"
   height="150px"
   viewBox="0 0 11.605453 11.605499"
   version="1.1"
   id="svg378"
   sodipodi:docname="Iconos-L&amp;I-COM-WEB.ai"
   xmlns:inkscape="http://www.inkscape.org/namespaces/inkscape"
   xmlns:sodipodi="http://sodipodi.sourceforge.net/DTD/sodipodi-0.dtd"
   xmlns="http://www.w3.org/2000/svg"
   xmlns:svg="http://www.w3.org/2000/svg">
  <sodipodi:namedview
     id="namedview378"
     pagecolor="#ffffff"
     bordercolor="#000000"
     borderopacity="0.25"
     inkscape:showpageshadow="2"
     inkscape:pageopacity="0.0"
     inkscape:pagecheckerboard="0"
     inkscape:deskcolor="#d1d1d1"
     inkscape:document-units="pt" />
  <defs
     id="defs46" />
  <path
     fill-rule="nonzero"
     fill="#eae1d8"
     fill-opacity="1"
     d="m 11.605472,5.8046887 c 0,3.20312 -2.5976595,5.8007803 -5.8046895,5.8007803 C 2.5976525,11.605469 2.4999999e-6,9.0078087 2.4999999e-6,5.8046887 2.4999999e-6,2.5976587 2.5976525,-1.25e-6 5.8007825,-1.25e-6 c 3.20703,0 5.8046895,2.59765995 5.8046895,5.80468995"
     id="path312" />
  <path
     fill-rule="evenodd"
     fill="#000000"
     fill-opacity="1"
     d="m 4.6718725,2.6796887 c -0.26562,0 -0.48047,0.21484 -0.48047,0.48047 v 4.05859 c 0,0.0391 -0.0234,0.0742 -0.0547,0.0937 -0.3125,0.1875 -0.50391,0.51563 -0.50391,0.88281 -0.004,0.2773501 0.10156,0.53907 0.30078,0.73828 0.19531,0.19922 0.45703,0.30469 0.73438,0.30469 h 0.004 c 0.27344,0 0.53516,-0.10547 0.73047,-0.30078 0.19531,-0.19531 0.30469,-0.4570299 0.30469,-0.73437 0,-0.3711 -0.1875,-0.70313 -0.50391,-0.89063 -0.0312,-0.0195 -0.0547,-0.0547 -0.0547,-0.0937 v -4.05859 c 0,-0.26172 -0.21093,-0.48047 -0.47656,-0.48047 m 0,6.78125 h -0.004 c -0.17188,0 -0.33204,-0.0352 -0.48829,-0.10156 -0.15234,-0.0664 -0.28515,-0.15625 -0.39843,-0.27344 -0.11328,-0.11719 -0.20703,-0.25391 -0.26953,-0.40235 -0.0664,-0.15625 -0.0977,-0.32031 -0.0977,-0.49218 0,-0.21875 0.0586,-0.4336 0.17187,-0.6211 0.0937,-0.16406 0.22657,-0.30859 0.38672,-0.41406 v -3.99609 c 0,-0.38282 0.3125,-0.69922 0.69922,-0.69922 0.38281,0 0.69531,0.3164 0.69531,0.69922 v 3.99609 c 0.16016,0.10547 0.29688,0.25391 0.39063,0.41797 0.10937,0.1875 0.16797,0.40625 0.16797,0.62891 0,0.33593 -0.12891,0.64843 -0.36719,0.88671 -0.23828,0.23829 -0.55078,0.3711 -0.88672,0.3711"
     id="path313" />
  <path
     fill-rule="evenodd"
     fill="#000000"
     fill-opacity="1"
     d="m 4.6718725,7.8671887 c -0.0625,0 -0.11328,-0.0508 -0.11328,-0.11328 V 3.8007788 c 0,-0.0625 0.0508,-0.1093701 0.11328,-0.1093701 0.0586,0 0.10938,0.0469 0.10938,0.1093701 v 3.9531299 c 0,0.0625 -0.0508,0.11328 -0.10938,0.11328"
     id="path314" />
  <path
     fill-rule="evenodd"
     fill="#000000"
     fill-opacity="1"
     d="m 4.6523425,7.8671887 c -0.1875,0 -0.33984,0.15234 -0.33984,0.33594 0,0.1875 0.15234,0.33984 0.33984,0.33984 0.18359,0 0.33594,-0.15234 0.33594,-0.33984 0,-0.1836 -0.15235,-0.33594 -0.33594,-0.33594 m 0,0.89062 c -0.30859,0 -0.55859,-0.25 -0.55859,-0.55468 0,-0.3086 0.25,-0.5586 0.55859,-0.5586 0.30469,0 0.55469,0.25 0.55469,0.5586 0,0.30468 -0.25,0.55468 -0.55469,0.55468"
     id="path315" />
  <path
     fill-rule="evenodd"
     fill="#000000"
     fill-opacity="1"
     d="m 4.3242225,6.6523387 h -0.24219 c -0.0625,0 -0.10938,-0.0508 -0.10938,-0.11328 0,-0.0586 0.0469,-0.10937 0.10938,-0.10937 h 0.23828 c 0.0625,0 0.10937,0.0508 0.10937,0.10937 0,0.0625 -0.0469,0.11328 -0.10546,0.11328"
     id="path316" />
  <path
     fill-rule="evenodd"
     fill="#000000"
     fill-opacity="1"
     d="m 4.3242225,6.0390587 h -0.24219 c -0.0625,0 -0.10938,-0.0508 -0.10938,-0.10937 0,-0.0625 0.0469,-0.11328 0.10938,-0.11328 h 0.23828 c 0.0625,0 0.10937,0.0508 0.10937,0.11328 0,0.0586 -0.0469,0.10937 -0.10546,0.10937"
     id="path317" />
  <path
     fill-rule="evenodd"
     fill="#000000"
     fill-opacity="1"
     d="m 4.3242225,5.4218787 h -0.24219 c -0.0625,0 -0.10938,-0.0469 -0.10938,-0.10938 0,-0.0586 0.0469,-0.10937 0.10938,-0.10937 h 0.23828 c 0.0625,0 0.10937,0.0508 0.10937,0.10937 0,0.0625 -0.0469,0.10938 -0.10546,0.10938"
     id="path318" />
  <path
     fill-rule="evenodd"
     fill="#000000"
     fill-opacity="1"
     d="m 4.3242225,4.8085887 h -0.24219 c -0.0625,0 -0.10938,-0.0508 -0.10938,-0.10937 0,-0.0625 0.0469,-0.10938 0.10938,-0.10938 h 0.23828 c 0.0625,0 0.10937,0.0469 0.10937,0.10938 0,0.0625 -0.0469,0.10937 -0.10546,0.10937"
     id="path319" />
  <path
     fill-rule="evenodd"
     fill="#000000"
     fill-opacity="1"
     d="m 4.3242225,4.1953087 h -0.24219 c -0.0625,0 -0.10938,-0.0508 -0.10938,-0.10937 0,-0.0625 0.0469,-0.10938 0.10938,-0.10938 h 0.23828 c 0.0625,0 0.10937,0.0469 0.10937,0.10938 0,0.0586 -0.0469,0.10937 -0.10546,0.10937"
     id="path320" />
  <path
     fill-rule="evenodd"
     fill="#000000"
     fill-opacity="1"
     d="m 4.3242225,3.5820287 h -0.24219 c -0.0625,0 -0.10938,-0.0508 -0.10938,-0.11328 0,-0.0586 0.0469,-0.10937 0.10938,-0.10937 h 0.23828 c 0.0625,0 0.10937,0.0508 0.10937,0.10937 0,0.0625 -0.0469,0.11328 -0.10546,0.11328"
     id="path321" />
  <path
     fill-rule="evenodd"
     fill="#000000"
     fill-opacity="1"
     d="m 7.0351525,5.7695287 c -0.20703,0 -0.3789,0.17188 -0.3789,0.37891 0,0.21094 0.17187,0.38281 0.3789,0.38281 0.21094,0 0.38282,-0.17187 0.38282,-0.38281 0,-0.20703 -0.17188,-0.37891 -0.38282,-0.37891 m 0,0.97656 c -0.32812,0 -0.59765,-0.26562 -0.59765,-0.59765 0,-0.32813 0.26953,-0.59766 0.59765,-0.59766 0.33203,0 0.60157,0.26953 0.60157,0.59766 0,0.33203 -0.26954,0.59765 -0.60157,0.59765"
     id="path322" />
  <path
     fill-rule="evenodd"
     fill="#000000"
     fill-opacity="1"
     d="m 6.5507825,6.2578087 h -0.73438 c -0.0586,0 -0.10937,-0.0469 -0.10937,-0.10937 0,-0.0625 0.0508,-0.10938 0.10937,-0.10938 h 0.73438 c 0.0586,0 0.10937,0.0469 0.10937,0.10938 -0.004,0.0625 -0.0508,0.10937 -0.10937,0.10937"
     id="path323" />
  <path
     fill-rule="evenodd"
     fill="#000000"
     fill-opacity="1"
     d="m 8.2578125,6.2578087 h -0.73047 c -0.0625,0 -0.10937,-0.0469 -0.10937,-0.10937 0,-0.0625 0.0469,-0.10938 0.10937,-0.10938 h 0.73047 c 0.0586,0 0.10937,0.0469 0.10937,0.10938 0,0.0625 -0.0508,0.10937 -0.10937,0.10937"
     id="path324" />
  <path
     fill-rule="evenodd"
     fill="#000000"
     fill-opacity="1"
     d="m 6.1757825,7.1210887 c -0.0274,0 -0.0586,-0.0117 -0.0781,-0.0312 -0.043,-0.043 -0.043,-0.11328 0,-0.15234 l 0.51563,-0.51953 c 0.043,-0.043 0.11328,-0.043 0.15234,0 0.0469,0.043 0.0469,0.11328 0,0.15625 l -0.51562,0.51562 c -0.0195,0.0195 -0.0469,0.0312 -0.0742,0.0312"
     id="path325" />
  <path
     fill-rule="evenodd"
     fill="#000000"
     fill-opacity="1"
     d="m 7.3828125,5.9140587 c -0.0273,0 -0.0586,-0.0117 -0.0781,-0.0351 -0.043,-0.043 -0.043,-0.10938 0,-0.15235 l 0.51563,-0.51562 c 0.043,-0.043 0.11328,-0.043 0.15234,0 0.0469,0.043 0.0469,0.11328 0,0.15234 l -0.51172,0.51953 c -0.0234,0.0195 -0.0508,0.0312 -0.0781,0.0312"
     id="path326" />
  <path
     fill-rule="evenodd"
     fill="#000000"
     fill-opacity="1"
     d="m 7.8984325,7.1210887 c -0.0273,0 -0.0586,-0.0117 -0.0781,-0.0312 l -0.51563,-0.51562 c -0.043,-0.043 -0.043,-0.11328 0,-0.15625 0.0469,-0.043 0.11329,-0.043 0.15625,0 l 0.51563,0.51953 c 0.043,0.043 0.043,0.10938 0,0.15234 -0.0195,0.0195 -0.0508,0.0312 -0.0781,0.0312"
     id="path327" />
  <path
     fill-rule="evenodd"
     fill="#000000"
     fill-opacity="1"
     d="m 6.6914025,5.9140587 c -0.0273,0 -0.0586,-0.0117 -0.0781,-0.0351 l -0.51563,-0.51563 c -0.043,-0.043 -0.043,-0.10937 0,-0.15234 0.043,-0.043 0.11328,-0.043 0.15235,0 l 0.51562,0.51562 c 0.0469,0.043 0.0469,0.11328 0,0.15235 -0.0156,0.0234 -0.0469,0.0351 -0.0742,0.0351"
     id="path328" />
  <path
     fill-rule="evenodd"
     fill="#000000"
     fill-opacity="1"
     d="m 7.0351525,7.4765587 c -0.0586,0 -0.10937,-0.0469 -0.10937,-0.10937 v -0.73047 c 0,-0.0586 0.0508,-0.10938 0.10937,-0.10938 0.0625,0 0.11328,0.0508 0.11328,0.10938 v 0.73047 c 0,0.0625 -0.0508,0.10937 -0.11328,0.10937"
     id="path329" />
  <path
     fill-rule="evenodd"
     fill="#000000"
     fill-opacity="1"
     d="m 7.0351525,5.7695287 c -0.0586,0 -0.10937,-0.0469 -0.10937,-0.10937 v -0.73047 c 0,-0.0625 0.0508,-0.10938 0.10937,-0.10938 0.0625,0 0.11328,0.0469 0.11328,0.10938 v 0.73047 c 0,0.0625 -0.0508,0.10937 -0.11328,0.10937"
     id="path330" />
  <path
     fill-rule="evenodd"
     fill="#000000"
     fill-opacity="1"
     d="m 6.7539025,4.4374987 c -0.0625,0.0469 -0.14843,0.0156 -0.17187,-0.0547 -0.0312,-0.12109 -0.0117,-0.2539 0.0664,-0.35937 0.0547,-0.0703 0.0547,-0.16406 0,-0.23047 -0.10937,-0.14453 -0.10937,-0.35156 0,-0.49219 l 0.13672,-0.18359 c 0.0352,-0.0469 0.10547,-0.0586 0.15625,-0.0195 0.0469,0.0351 0.0547,0.10156 0.0195,0.15234 l -0.13671,0.18359 c -0.0508,0.0664 -0.0508,0.16016 0,0.23047 0.10937,0.14453 0.10937,0.34766 0,0.49219 -0.0352,0.0508 -0.0469,0.11328 -0.0312,0.16797 0.0117,0.0391 -0.004,0.0859 -0.0391,0.11328"
     id="path331" />
  <path
     fill-rule="evenodd"
     fill="#000000"
     fill-opacity="1"
     d="m 7.4648425,4.4374987 c -0.0625,0.0469 -0.15234,0.0156 -0.17187,-0.0547 -0.0352,-0.12109 -0.0117,-0.2539 0.0664,-0.35937 0.0508,-0.0703 0.0508,-0.16406 0,-0.23047 -0.10937,-0.14453 -0.10937,-0.35156 0,-0.49219 l 0.13672,-0.18359 c 0.0352,-0.0469 0.10547,-0.0586 0.15234,-0.0195 0.0508,0.0351 0.0586,0.10156 0.0234,0.15234 l -0.13672,0.18359 c -0.0508,0.0664 -0.0508,0.16016 0,0.23047 0.10938,0.14453 0.10938,0.34766 0,0.49219 -0.0391,0.0508 -0.0469,0.11328 -0.0312,0.16797 0.0117,0.0391 -0.004,0.0859 -0.0391,0.11328"
     id="path332" />
</svg>
