<?xml version="1.0" encoding="UTF-8" standalone="no"?>
<svg
   width="150px"
   height="150px"
   viewBox="0 0 17.667961 17.66407"
   version="1.1"
   id="svg378"
   sodipodi:docname="Iconos-L&amp;I-COM-WEB.ai"
   xmlns:inkscape="http://www.inkscape.org/namespaces/inkscape"
   xmlns:sodipodi="http://sodipodi.sourceforge.net/DTD/sodipodi-0.dtd"
   xmlns="http://www.w3.org/2000/svg"
   xmlns:svg="http://www.w3.org/2000/svg">
  <sodipodi:namedview
     id="namedview378"
     pagecolor="#ffffff"
     bordercolor="#000000"
     borderopacity="0.25"
     inkscape:showpageshadow="2"
     inkscape:pageopacity="0.0"
     inkscape:pagecheckerboard="0"
     inkscape:deskcolor="#d1d1d1"
     inkscape:document-units="pt" />
  <defs
     id="defs46" />
  <path
     fill-rule="nonzero"
     fill="#eae1d8"
     fill-opacity="1"
     d="m 17.667967,8.8320312 c 0,4.8789098 -3.95703,8.8320298 -8.8320295,8.8320298 -4.87891,0 -8.8359400000001,-3.95312 -8.8359400000001,-8.8320298 C -2.5000001e-6,3.9531212 3.9570275,1.25e-6 8.8359375,1.25e-6 c 4.8749995,0 8.8320295,3.95311995 8.8320295,8.83202995"
     id="path202" />
  <path
     fill-rule="nonzero"
     fill="#000000"
     fill-opacity="1"
     d="m 5.5429675,10.199221 c -0.17187,0.17187 -0.17578,0.45312 -0.008,0.62109 l 1.65625,1.65625 c 0.17187,0.16797 0.44922,0.16406 0.62109,-0.008 0.17578,-0.17188 0.17578,-0.45313 0.008,-0.6211 l -1.65625,-1.65625 c -0.16796,-0.16796 -0.44531,-0.16406 -0.62109,0.008 m 2.57422,2.57031 c -0.33984,0.33984 -0.89063,0.34375 -1.22656,0.008 l -1.65625,-1.65625 c -0.33594,-0.33594 -0.33203,-0.88281 0.008,-1.2226498 0.33984,-0.33985 0.89062,-0.34375 1.22656,-0.008 l 1.65235,1.6562498 c 0.33984,0.33594 0.33593,0.88282 -0.004,1.22266"
     id="path203" />
  <path
     fill-rule="nonzero"
     fill="#000000"
     fill-opacity="1"
     d="m 5.1796875,11.464841 c -0.11328,0.10938 -0.11328,0.28906 -0.008,0.39453 l 0.98047,0.98047 c 0.10937,0.10938 0.28515,0.10547 0.39453,-0.004 0.10937,-0.10938 0.11328,-0.28907 0.004,-0.39454 l -0.97656,-0.98046 c -0.10937,-0.10938 -0.28516,-0.10547 -0.39453,0.004 m 1.66797,1.67188 c -0.27735,0.27734 -0.72266,0.27734 -0.9961,0.004 l -0.98046,-0.97656 c -0.27344,-0.27344 -0.27344,-0.72266 0.004,-1 0.27735,-0.27734 0.72656,-0.27734 1,-0.004 l 0.98047,0.97657 c 0.27344,0.27343 0.26953,0.72265 -0.008,1"
     id="path204" />
  <path
     fill-rule="nonzero"
     fill="#000000"
     fill-opacity="1"
     d="m 9.8554675,5.8906212 c -0.17578,0.17188 -0.17969,0.44922 -0.008,0.6211 l 1.6562495,1.65625 c 0.16797,0.16797 0.44531,0.16406 0.62109,-0.008 0.17188,-0.17578 0.17578,-0.45312 0.008,-0.625 l -1.65625,-1.65234 c -0.17187,-0.17187 -0.44921,-0.16797 -0.6210895,0.008 m 2.5703095,2.57032 c -0.33984,0.33984 -0.89062,0.34375 -1.22656,0.008 l -1.6523395,-1.65625 c -0.33594,-0.33614 -0.33594,-0.88692 0.0039,-1.22676 0.33985,-0.33985 0.8906295,-0.34375 1.2265695,-0.004 l 1.65625,1.65234 c 0.33593,0.33594 0.33203,0.88672 -0.008,1.22657"
     id="path205" />
  <path
     fill-rule="nonzero"
     fill="#000000"
     fill-opacity="1"
     d="m 11.121097,5.5234412 c -0.10938,0.10937 -0.11329,0.28515 -0.004,0.39453 l 0.97656,0.98047 c 0.10938,0.10546 0.28516,0.10546 0.39453,-0.008 0.11328,-0.10937 0.11328,-0.28515 0.008,-0.3945299 l -0.98047,-0.9765601 c -0.10938,-0.1093799 -0.28516,-0.10547 -0.39453,0.004 m 1.67187,1.67187 c -0.27734,0.27734 -0.72656,0.27734 -1,0.004 l -0.98047,-0.98047 c -0.27344,-0.27344 -0.26953,-0.71875 0.008,-0.9961 0.277351,-0.27734 0.72266,-0.28125 0.996101,-0.008 l 0.980469,0.98047 c 0.27343,0.27344 0.27343,0.72266 -0.004,1"
     id="path206" />
  <path
     fill-rule="nonzero"
     fill="#000000"
     fill-opacity="1"
     d="M 10.675777,7.6406212 7.2968775,11.019531 c -0.0859,0.082 -0.21875,0.082 -0.30469,0 -0.082,-0.082 -0.082,-0.21875 0,-0.30078 L 10.371097,7.3398412 c 0.0859,-0.0859 0.21875,-0.0859 0.30468,0 0.082,0.082 0.082,0.21875 0,0.30078"
     id="path207" />
</svg>
