<?xml version="1.0" encoding="UTF-8" standalone="no"?>
<svg
   width="150px"
   height="150px"
   viewBox="0 0 17.00782 17.00782"
   version="1.1"
   id="svg378"
   sodipodi:docname="Iconos-L&amp;I-COM-WEB.ai"
   xmlns:inkscape="http://www.inkscape.org/namespaces/inkscape"
   xmlns:sodipodi="http://sodipodi.sourceforge.net/DTD/sodipodi-0.dtd"
   xmlns="http://www.w3.org/2000/svg"
   xmlns:svg="http://www.w3.org/2000/svg">
  <sodipodi:namedview
     id="namedview378"
     pagecolor="#ffffff"
     bordercolor="#000000"
     borderopacity="0.25"
     inkscape:showpageshadow="2"
     inkscape:pageopacity="0.0"
     inkscape:pagecheckerboard="0"
     inkscape:deskcolor="#d1d1d1"
     inkscape:document-units="pt" />
  <defs
     id="defs46" />
  <path
     fill-rule="nonzero"
     fill="#eae1d8"
     fill-opacity="1"
     d="m 17.00781,8.503905 c 0,4.69531 -3.80859,8.50391 -8.5039,8.50391 C 3.80859,17.007815 0,13.199215 0,8.503905 0,3.808595 3.80859,-5e-6 8.50391,-5e-6 c 4.69531,0 8.5039,3.8086 8.5039,8.50391"
     id="path245" />
  <path
     fill-rule="nonzero"
     fill="#000000"
     fill-opacity="1"
     d="m 5.05469,8.312495 c -0.0664,0.28907 -0.17578,0.57422 -0.19141,0.86719 -0.0273,0.6211 0.004,1.2461 -0.0195,1.86719 -0.004,0.11719 -0.125,0.23047 -0.19531,0.34375 -0.0586,-0.11328 -0.16797,-0.22266 -0.17188,-0.33203 -0.0156,-0.66797 -0.0391,-1.33594 0.008,-1.9961 0.0312,-0.3789 0.19531,-0.75 0.33203,-1.23046 -0.22266,-0.28516 -0.51953,-0.67969 -0.82032,-1.06641 -0.30078,-0.39453 -0.30078,-0.77734 0,-1.01172 0.31641,-0.23828 0.65625,-0.16016 0.98438,0.23828 0.78516,0.95313 1.57031,1.90235 2.33984,2.86719 0.17188,0.21094 0.34766,0.28125 0.60938,0.28125 1.25,-0.0117 2.49609,-0.004 3.74609,0.004 0.94531,0.008 1.25391,0.24218 1.53125,1.14453 0.082,0.26953 0.16797,0.53906 0.22266,0.8164 0.0156,0.082 -0.0703,0.1875 -0.10938,0.28125 -0.082,-0.0586 -0.21094,-0.10156 -0.24219,-0.17968 -0.10937,-0.28907 -0.18359,-0.59375 -0.27343,-0.89454 -0.17969,-0.58984 -0.42578,-0.77343 -1.05078,-0.77734 -1.33204,-0.008 -2.66407,-0.0195 -3.9961,-0.008 -0.30078,0 -0.49218,-0.0937 -0.67968,-0.32813 -0.75782,-0.95312 -1.53516,-1.89062 -2.3086,-2.83203 -0.0625,-0.0781 -0.11328,-0.17578 -0.19531,-0.21875 -0.0977,-0.0508 -0.21875,-0.0508 -0.33203,-0.0703 0,0.11328 -0.0508,0.26172 0.004,0.33594 0.29297,0.41406 0.61329,0.8125 0.92579,1.21484 0.50781,0.64844 1.02343,1.28516 1.52343,1.9375 0.26953,0.35547 0.59375,0.52734 1.05078,0.51563 0.75391,-0.0234 1.50391,-0.0156 2.25391,0.004 0.11719,0 0.22656,0.13281 0.33984,0.20703 -0.11328,0.0586 -0.22265,0.16407 -0.33593,0.16797 -0.82422,0.0156 -1.64454,0.0117 -2.46875,0.008 -0.49219,-0.004 -0.85157,-0.26171 -1.14453,-0.63671 -0.39454,-0.51172 -0.79688,-1.01563 -1.19922,-1.52344 -0.043,0 -0.0898,0.004 -0.13672,0.004"
     id="path378" />
</svg>
