<?xml version="1.0" encoding="UTF-8" standalone="no"?>
<svg
   width="150px"
   height="150px"
   viewBox="0 0 17.007809 17.003906"
   version="1.1"
   id="svg378"
   sodipodi:docname="Iconos-L&amp;I-COM-WEB.ai"
   xmlns:inkscape="http://www.inkscape.org/namespaces/inkscape"
   xmlns:sodipodi="http://sodipodi.sourceforge.net/DTD/sodipodi-0.dtd"
   xmlns="http://www.w3.org/2000/svg"
   xmlns:svg="http://www.w3.org/2000/svg">
  <sodipodi:namedview
     id="namedview378"
     pagecolor="#ffffff"
     bordercolor="#000000"
     borderopacity="0.25"
     inkscape:showpageshadow="2"
     inkscape:pageopacity="0.0"
     inkscape:pagecheckerboard="0"
     inkscape:deskcolor="#d1d1d1"
     inkscape:document-units="pt" />
  <defs
     id="defs46" />
  <path
     fill-rule="nonzero"
     fill="#eae1d8"
     fill-opacity="1"
     d="m 17.007811,8.4999987 c 0,4.6992203 -3.80859,8.5039103 -8.5039098,8.5039103 -4.69531,0 -8.50389995,-3.80469 -8.50389995,-8.5039103 0,-4.69531 3.80858995,-8.4999999500001 8.50389995,-8.4999999500001 4.6953198,0 8.5039098,3.8046899500001 8.5039098,8.4999999500001"
     id="path355" />
  <path
     fill-rule="nonzero"
     fill="#000000"
     fill-opacity="1"
     d="m 12.382811,7.6171887 c -0.0586,0.78125 -0.41797,1.53906 -1.01562,2.13672 -0.75391,0.7539003 -1.7695398,1.1250003 -2.7226598,0.9921803 -0.53906,-0.0703 -1.01953,-0.30468 -1.38672,-0.67187 -0.36719,-0.3671903 -0.59765,-0.8437503 -0.67187,-1.3867203 -0.12891,-0.94922 0.24218,-1.96875 0.99609,-2.72266 0.59375,-0.59375 1.35156,-0.95312 2.13281,-1.01171 0.0742,-0.008 0.14844,-0.008 0.21875,-0.008 0.6874998,0 1.3046898,0.24219 1.7578098,0.69922 0.50391,0.5 0.7461,1.20313 0.69141,1.97266 M 5.1992212,12.788879 c -0.0352,0.0352 -0.0937,0.0352 -0.12891,0 l -0.52734,-0.52734 c -0.0352,-0.0352 -0.0352,-0.0898 0,-0.125 l 1.39062,-1.39063 0.32813,0.32813 0.32422,0.32812 z m 1.28515,-3.2890603 c 0.13282,0.30078 0.31641,0.5703103 0.54688,0.8046903 0.23047,0.23047 0.50391,0.41406 0.80078,0.54297 -0.34766,0.0508 -0.69141,0.16797 -0.99609,0.34765 l -0.69922,-0.69922 c 0.17969,-0.30468 0.30078,-0.6445303 0.34765,-0.9960903 m 5.4335998,-4.08594 c -0.57032,-0.5664 -1.35938,-0.84765 -2.2265698,-0.78125 -0.85937,0.0625 -1.68749,0.45703 -2.33593,1.10547 -0.82031,0.81641 -1.22656,1.92578 -1.08985,2.96875 l -0.0937,0.73047 c -0.0469,0.34766 -0.17187,0.6875003 -0.36328,0.9804703 l -1.49218,1.48828 c -0.16016,0.16406 -0.16016,0.42188 0,0.58203 l 0.52734,0.52735 c 0.0781,0.0781 0.18359,0.12109 0.28906,0.12109 0.11328,0 0.21485,-0.043 0.29297,-0.12109 l 1.48828,-1.48829 c 0.29297,-0.1914 0.63281,-0.3164 0.98047,-0.36328 l 0.73047,-0.0937 c 0.13281,0.0156 0.26562,0.0234 0.39844,0.0234 0.92187,0 1.8593698,-0.39844 2.5703098,-1.1132803 0.65234,-0.65234 1.04297,-1.48047 1.10937,-2.33594 0.0625,-0.86719 -0.21484,-1.66015 -0.78515,-2.23047"
     id="path356" />
  <path
     fill-rule="nonzero"
     fill="#000000"
     fill-opacity="1"
     d="m 10.578121,9.4140587 -0.46093,-0.46093 0.45312,-0.45313 0.46094,0.46094 c -0.0664,0.0859 -0.13672,0.16797 -0.21094,0.24219 -0.0781,0.0781 -0.16016,0.14453 -0.24219,0.21093 m -1.4413997,0.51563 0.0703,-0.0703 0.0664,0.0664 c -0.043,0.004 -0.0898,0.004 -0.1367199,0.004 m -0.76563,-3.62891 0.53516,0.53906 -0.45313,0.44922 -0.53515,-0.53515 c 0.0664,-0.082 0.13672,-0.16407 0.21094,-0.24219 0.0781,-0.0742 0.16015,-0.14453 0.24218,-0.21094 m 1.4336,-0.51562 c 0.0508,0 0.10156,0.004 0.14843,0.008 l -0.13672,0.13672 -0.14062,-0.14063 c 0.043,0 0.0859,-0.004 0.1289099,-0.004 m 1.4453098,1.57812 -0.52735,-0.52734 0.4375,-0.4375 c 0.16797,0.20703 0.28516,0.44531 0.34375,0.71094 z m -1.20703,0.15625 0.45312,-0.45312 0.52735,0.52734 -0.45313,0.45313 z m -0.6796897,0.67969 0.44922,-0.45313 0.5312497,0.5273501 -0.4531297,0.45312 z m -0.45703,0 -0.45313,0.45312 -0.45312,-0.45312 0.45312,-0.45313 z m 0.6796899,-0.67969 -0.4531299,0.44922 -0.44922,-0.44922 0.44922,-0.45312 z m 1.3476498,-1.34765 -0.4375,0.4375 -0.45312,-0.4531299 0.29687,-0.2968701 c 0.21485,0.0625 0.41797,0.16796 0.59375,0.3125 m -1.1171898,0.21093 0.4531298,0.45313 -0.4570298,0.45312 -0.44922,-0.44922 z m -0.5351499,-0.53125 0.30859,0.30469 -0.45703,0.45313 -0.49219,-0.49219 c 0.20703,-0.1211 0.42188,-0.21094 0.64063,-0.26563 m -1.54688,1.17188 0.49219,0.49609 -0.45312,0.45313 -0.30469,-0.30469 c 0.0547,-0.21875 0.14453,-0.4375 0.26562,-0.64453 m -0.32812,1.03515 0.14062,0.14063 -0.13671,0.13672 c -0.008,-0.0898 -0.008,-0.1836 -0.004,-0.27735 m 0.0703,0.66407 0.29688,-0.29688 0.45312,0.45313 -0.4375,0.4375 c -0.14453,-0.17578 -0.24609,-0.37891 -0.3125,-0.59375 m 1.25,1.16406 c -0.26172,-0.0586 -0.5039,-0.17188 -0.71094,-0.34375 l 0.4375,-0.4375 0.52735,0.52734 z m 0.48047,-0.48047 -0.5273401,-0.52734 0.4531201,-0.45313 0.53125,0.52735 z m 0.4609399,0.45703 -0.2304699,-0.23047 0.45312,-0.45312 0.4179697,0.42187 c -0.20703,0.1211 -0.4218698,0.21094 -0.6406198,0.26172 m 1.5507798,-1.16797 -0.42188,-0.42187 0.45313,-0.45313 0.23047,0.23047 c -0.0547,0.22266 -0.14063,0.44141 -0.26172,0.64453 m 0.32422,-1.03515 -0.0664,-0.0664 0.0703,-0.0703 c 0,0.043 0,0.0898 -0.004,0.13672 m -1.21485,-2.13282 c 0,-0.004 -0.004,-0.004 -0.008,-0.004 -0.3203098,-0.0742 -0.6640598,-0.0781 -1.0078098,-0.008 -0.008,0 -0.0156,0.004 -0.0195,0.004 -0.34375,0.0742 -0.6836001,0.21875 -0.9961,0.4375 -0.13671,0.0937 -0.26953,0.20703 -0.39453,0.32813 -0.40234,0.40625 -0.66015,0.89453 -0.76562,1.39062 -0.004,0.008 -0.004,0.0117 -0.004,0.0195 -0.0703,0.33985 -0.0703,0.6836 0.004,1.00391 0.004,0.0117 0.008,0.0234 0.0117,0.0352 0.0859,0.34765 0.25781,0.66796 0.51953,0.92968 0.29687,0.29688 0.66797,0.4765703 1.0664,0.5507803 0.0156,0.004 0.0312,0.008 0.0469,0.008 0,0 0,0 0.004,0 0.11719,0.0195 0.2382901,0.0312 0.35938,0.0312 0.16016,0 0.32422,-0.0195 0.48828,-0.0508 0.0156,0 0.0312,-0.004 0.043,-0.0117 0.3359398,-0.0742 0.6679698,-0.2148503 0.9726598,-0.4257803 0.004,-0.004 0.008,-0.008 0.0117,-0.008 0.13672,-0.0977 0.26563,-0.20703 0.38672,-0.32812 0.39453,-0.39453 0.66016,-0.87891 0.76953,-1.39453 0,0 0,-0.004 0,-0.008 0.0234,-0.10546 0.0391,-0.21484 0.0469,-0.32421 0.0469,-0.64063 -0.15625,-1.22657 -0.58203,-1.65235 -0.26563,-0.26562 -0.59766,-0.4414 -0.95313,-0.52344"
     id="path357" />
</svg>
