<?xml version="1.0" encoding="UTF-8" standalone="no"?>
<svg
   width="150px"
   height="150px"
   viewBox="0 0 17.281254 17.281265"
   version="1.1"
   id="svg378"
   sodipodi:docname="Iconos-L&amp;I-COM-WEB.ai"
   xmlns:inkscape="http://www.inkscape.org/namespaces/inkscape"
   xmlns:sodipodi="http://sodipodi.sourceforge.net/DTD/sodipodi-0.dtd"
   xmlns="http://www.w3.org/2000/svg"
   xmlns:svg="http://www.w3.org/2000/svg">
  <sodipodi:namedview
     id="namedview378"
     pagecolor="#ffffff"
     bordercolor="#000000"
     borderopacity="0.25"
     inkscape:showpageshadow="2"
     inkscape:pageopacity="0.0"
     inkscape:pagecheckerboard="0"
     inkscape:deskcolor="#d1d1d1"
     inkscape:document-units="pt" />
  <defs
     id="defs46" />
  <path
     fill-rule="nonzero"
     fill="#eae1d8"
     fill-opacity="1"
     d="m 17.281259,8.6406212 c 0,4.7695298 -3.8711,8.6406298 -8.6406301,8.6406298 -4.77343,0 -8.6406200206055,-3.8711 -8.6406200206055,-8.6406298 C 8.8793945e-6,3.8671912 3.8671989,1.2499999e-6 8.6406289,1.2499999e-6 13.410159,1.2499999e-6 17.281259,3.8671912 17.281259,8.6406212"
     id="path143" />
  <path
     fill-rule="nonzero"
     fill="#000000"
     fill-opacity="1"
     d="m 5.5312589,5.2851512 c 0.15234,-0.15625 0.35547,-0.23828 0.57031,-0.23828 0.45313,0 0.82422,0.36328 0.83203,0.82032 0.0117,0.4375 -0.33593,0.80078 -0.77343,0.8125 -0.008,0 -0.0156,0 -0.0234,0 -0.45313,-0.004 -0.82031,-0.36719 -0.83203,-0.82032 -0.004,-0.21484 0.0781,-0.42187 0.22656,-0.57422 m 0.60547,1.71875 c 0.62109,0.004 1.12109,-0.49609 1.125,-1.11718 0,-0.008 0,-0.0195 0,-0.0274 -0.0156,-0.63281 -0.53125,-1.13672 -1.16016,-1.14062 -0.62109,0 -1.12109,0.5 -1.125,1.11719 0,0.0117 0,0.0195 0,0.0312 0.0156,0.6289 0.53125,1.13281 1.16016,1.13671"
     id="path144" />
  <path
     fill-rule="nonzero"
     fill="#000000"
     fill-opacity="1"
     d="m 9.8437589,5.6093712 c 0.0469,-0.0351 0.10156,-0.0547 0.1601501,-0.0547 -0.0312,0.14843 -0.0391,0.30468 -0.0234,0.45703 0.008,0.17578 0.0156,0.35937 -0.0586,0.42187 -0.0469,0.0352 -0.10547,0.0508 -0.16406,0.0508 0.0156,-0.11718 0.0156,-0.23437 0.008,-0.35156 -0.0117,-0.20312 -0.0234,-0.43359 0.0781,-0.52344 m 1.3085901,-0.5625 c 0.28125,0 0.54297,0.14453 0.69922,0.37891 0,0.004 0,0.004 0,0.008 0,0.004 0,0.004 0,0.008 0.004,0.008 0.004,0.0117 0.008,0.0156 0,0.008 0,0.0117 0.004,0.0156 0.004,0.004 0.004,0.008 0.008,0.0156 0,0.004 0.004,0.008 0.008,0.0117 0.004,0.004 0.008,0.008 0.008,0.0117 0.004,0.004 0.0117,0.0117 0.0156,0.0156 0,0 0.004,0.004 0.004,0.004 0.004,0.004 0.004,0.004 0.008,0.008 0.043,0.10156 0.0703,0.21094 0.0742,0.32031 -0.004,0.0312 -0.004,0.0625 -0.004,0.0937 -0.0352,0.41016 -0.3789,0.72657 -0.79297,0.72657 -0.45312,-0.004 -0.82421,-0.36719 -0.83203,-0.82032 -0.0117,-0.4375 0.33203,-0.80078 0.77344,-0.8125 0.008,0 0.0156,0 0.0195,0 m 1.3711,1.08594 c -0.0117,0.11719 -0.008,0.23438 0.004,0.35156 -0.0586,0 -0.11328,-0.0156 -0.16015,-0.0508 -0.0742,-0.0625 -0.0664,-0.24609 -0.0586,-0.42187 0,-0.0117 0,-0.0234 0,-0.0352 0.004,-0.0117 0,-0.0195 0.004,-0.0273 0,-0.0274 0,-0.0586 0,-0.0859 0,0 0,-0.004 0,-0.004 v -0.004 c 0.004,-0.10157 -0.004,-0.20313 -0.0273,-0.30078 0.0547,0 0.11329,0.0195 0.15625,0.0547 0.10157,0.0899 0.0898,0.32032 0.082,0.52344 m -3.0429701,0.66016 c 0.004,0 0.008,0 0.0117,0 0.0742,0.0117 0.15234,0.0156 0.22656,0.0195 0.15234,0.008 0.3007801,-0.0391 0.4218701,-0.13281 0.0469,-0.0469 0.0859,-0.0977 0.10938,-0.16016 0.21875,0.30469 0.57031,0.48437 0.9414,0.48437 0.30079,0.004 0.58985,-0.11718 0.80079,-0.33593 0.0273,-0.0274 0.0508,-0.0547 0.0742,-0.082 0.0234,0.0351 0.0508,0.0664 0.082,0.0937 0.11718,0.0937 0.26562,0.14062 0.41796,0.13281 0.0781,-0.004 0.15235,-0.008 0.22657,-0.0195 0.004,0 0.008,0 0.0117,0 0.0703,0 0.13281,-0.043 0.15625,-0.10547 0.0312,-0.082 -0.0117,-0.17578 -0.0937,-0.20703 h -0.004 c -0.0312,-0.0391 -0.0195,-0.22266 -0.0156,-0.3320299 0.0156,-0.2617201 0.0312,-0.5898501 -0.1875,-0.78125 -0.1289,-0.1132901 -0.30859,-0.1601601 -0.54687,-0.1367201 -0.21875,-0.31641 -0.57422,-0.50782 -0.96094,-0.51172 -0.30078,0 -0.58984,0.12109 -0.80078,0.33594 -0.0508,0.0547 -0.10156,0.11328 -0.14453,0.17968 -0.2539101,-0.0312 -0.4453101,0.0156 -0.5820301,0.13282 -0.21485,0.1914 -0.19922,0.51953 -0.1875,0.78125 0.008,0.10937 0.0156,0.29296 -0.0117,0.32812 -0.082,0.0312 -0.12891,0.125 -0.0977,0.21094 0.0234,0.0625 0.0859,0.10547 0.15235,0.10547"
     id="path145" />
  <path
     fill-rule="nonzero"
     fill="#000000"
     fill-opacity="1"
     d="m 5.1406289,7.6367212 c 0.0898,-0.0899 0.21485,-0.14453 0.34375,-0.14063 h 1.26954 c 0.1289,-0.004 0.2539,0.0508 0.34765,0.14063 l 1.47656,1.48047 -0.18359,0.1875 -1.10156,-1.10157 c -0.0625,-0.0625 -0.16406,-0.0625 -0.23047,0 -0.0312,0.0312 -0.0469,0.0742 -0.0469,0.11719 v 1.7851598 c 0,0.16406 -0.0547,0.16406 -0.082,0.16406 h -1.6289 c -0.0273,0 -0.0977,0 -0.0977,-0.16016 V 8.3242212 c 0,-0.0899 -0.0742,-0.1640699 -0.16406,-0.1640699 -0.043,0 -0.0898,0.0195 -0.11719,0.0508 l -0.99609,1.09375 -0.1836,-0.19141 z m 5.2109401,-0.0117 c 0.004,-0.004 0.0117,-0.0117 0.0156,-0.0156 0.0781,-0.0664 0.17578,-0.10547 0.28125,-0.11328 h 1.05078 c 0.10156,0 0.20312,0.043 0.27734,0.11328 0.008,0.004 0.0117,0.0117 0.0195,0.0156 l 1.53906,1.15625 -0.15625,0.1914 c -0.004,0.004 0,0.008 -0.004,0.0117 l -1.28125,-0.96484 c -0.0703,-0.0547 -0.17188,-0.0391 -0.22656,0.0312 -0.0352,0.0469 -0.043,0.10937 -0.0195,0.16406 l 0.98047,2.3789098 h -2.55078 c -0.004,0 -0.004,0 -0.004,0 H 9.5193189 L 10.499789,8.2147912 c 0.0312,-0.0859 -0.008,-0.17969 -0.0898,-0.21484 -0.0547,-0.0195 -0.11328,-0.0117 -0.16015,0.0195 l -1.2734401,0.96094 c -0.004,0 -0.008,-0.004 -0.008,-0.008 l -0.16016,-0.1913999 z m 1.55469,4.9296898 h -0.32422 v -1.63282 h 0.32422 z m -1.14063,0 h -0.32422 v -1.63282 h 0.32422 z m -3.9140601,-0.0117 c 0,0.004 -0.004,0.0117 -0.0117,0.0117 h -0.30078 c -0.008,0 -0.0117,-0.008 -0.0117,-0.0117 v -1.94922 h 0.32422 z m -1.15234,0 c 0,0.004 -0.004,0.0117 -0.0117,0.0117 h -0.30078 c -0.008,0 -0.0117,-0.008 -0.0117,-0.0117 v -1.94922 h 0.32422 z m -2,-3.0078198 c 0.0586,0.0586 0.14062,0.0937 0.22656,0.0937 h 0.004 c 0.0898,0 0.17187,-0.0351 0.23437,-0.0976 l 0.71875,-0.78906 v 1.3671798 c -0.008,0.15235 0.0508,0.29688 0.16406,0.39844 v 2.03516 c 0,0.1875 0.15235,0.33593 0.33985,0.33593 h 0.30078 c 0.1875,0 0.33984,-0.14843 0.33984,-0.33593 v -1.94922 h 0.17188 v 1.94922 c 0,0.1875 0.15234,0.33593 0.33984,0.33593 h 0.30078 c 0.1875,0 0.33985,-0.14843 0.33985,-0.33593 v -2.02735 c 0.0937,-0.0742 0.16406,-0.20312 0.16406,-0.41015 V 8.7148812 l 0.81641,0.82031 c 0.0625,0.0586 0.14453,0.0937 0.23437,0.0937 0.0859,0 0.16797,-0.0351 0.22656,-0.0937 l 0.1875,-0.1875 c 0.0195,-0.0195 0.0352,-0.0391 0.0508,-0.0625 0.10157,0.0391 0.21485,0.0234 0.30469,-0.0391 l 0.80469,-0.60547 -0.76172,1.8554698 c -0.004,0.008 -0.008,0.0156 -0.008,0.0234 -0.043,0.17578 0.0664,0.35156 0.24218,0.39453 0.0234,0.004 0.0469,0.008 0.0742,0.008 h 0.5976601 v 1.63282 c 0,0.17968 0.14453,0.32421 0.32422,0.32421 h 0.32812 c 0.17969,0 0.32422,-0.14453 0.32422,-0.32421 v -1.63282 h 0.16406 v 1.63282 c 0,0.17968 0.14454,0.32421 0.32422,0.32421 h 0.32813 c 0.17969,0 0.32422,-0.14453 0.32422,-0.32421 v -1.63282 h 0.60156 c 0.17969,0 0.32422,-0.14843 0.32422,-0.32812 0,-0.0234 -0.004,-0.0508 -0.008,-0.0742 -0.004,-0.008 -0.008,-0.0156 -0.008,-0.0234 l -0.76562,-1.8554698 0.80859,0.60938 c 0.14453,0.0976 0.34375,0.0664 0.44922,-0.0742 l 0.16016,-0.19531 c 0.004,-0.004 0.008,-0.008 0.008,-0.0117 0.0508,-0.0703 0.0703,-0.15625 0.0586,-0.24219 -0.0156,-0.082 -0.0625,-0.16016 -0.13281,-0.20703 l -1.52344,-1.14453 c -0.13281,-0.12891 -0.3125,-0.20313 -0.5,-0.20703 h -1.05468 c -0.1875,0.008 -0.36329,0.082 -0.50391,0.20312 l -1.5234401,1.14453 c -0.0352,0.0234 -0.0664,0.0547 -0.0898,0.0937 l -1.19922,-1.20312 c -0.15234,-0.15235 -0.35937,-0.23828 -0.57812,-0.23828 h -1.26954 c -0.21875,0 -0.42578,0.0859 -0.57812,0.24218 l -1.39453,1.47657 c -0.12891,0.1289 -0.12891,0.33203 0,0.46093 z m 0,0"
     id="path146" />
</svg>
