<svg width="53" height="53" viewBox="0 0 53 53" fill="none" xmlns="http://www.w3.org/2000/svg">
<g clip-path="url(#clip0_636_6507)">
<path d="M26.514 14.3786C26.3948 14.6425 26.2454 14.8914 26.0686 15.1205C25.4337 15.7957 24.7609 16.452 24.0976 17.0986C24.0003 17.2216 23.8783 17.3227 23.7396 17.3954C23.601 17.468 23.4487 17.5106 23.2925 17.5205C23.1364 17.5304 22.98 17.5073 22.8333 17.4527C22.6866 17.3981 22.553 17.3133 22.4411 17.2036C22.3291 17.0939 22.2414 16.9619 22.1835 16.8161C22.1255 16.6702 22.0988 16.5137 22.1048 16.3568C22.1109 16.1999 22.1497 16.0461 22.2187 15.9052C22.2878 15.7643 22.3855 15.6397 22.5056 15.5391C23.1816 14.8353 23.8638 14.1505 24.5524 13.4847C24.706 13.3044 24.9138 13.1791 25.1446 13.1276C25.3753 13.0762 25.6165 13.1013 25.8317 13.1994C26.0532 13.3008 26.2377 13.4688 26.3599 13.68C26.4821 13.8912 26.536 14.1354 26.514 14.3786Z" fill="white"/>
<path d="M29.9256 15.3106C28.978 15.3106 28.3526 14.3594 28.9022 13.6651C29.7002 12.7438 30.5581 11.8765 31.4702 11.0689C31.67 10.9264 31.9145 10.8614 32.1584 10.8859C32.4023 10.9104 32.6291 11.0228 32.7969 11.2021C32.897 11.2808 32.9803 11.3787 33.0419 11.4903C33.1035 11.6019 33.142 11.7249 33.1553 11.8518C33.1685 11.9787 33.1562 12.1071 33.1191 12.2291C33.0819 12.3511 33.0207 12.4643 32.939 12.562C32.1335 13.456 31.2618 14.2928 30.3994 15.1297C30.2668 15.2629 30.0204 15.2726 29.9256 15.3106Z" fill="white"/>
<path d="M27.7842 21.9588C27.553 21.9847 27.3193 21.9405 27.1133 21.832C26.9072 21.7235 26.7382 21.5557 26.6281 21.35C26.5227 21.1772 26.4751 20.9751 26.4922 20.7733C26.5092 20.5714 26.59 20.3804 26.7229 20.2279C27.5189 19.391 28.3243 18.5635 29.1677 17.7742C29.3738 17.5993 29.64 17.5125 29.9092 17.532C30.1783 17.5516 30.4292 17.676 30.6081 17.8789C30.8106 18.0837 30.9243 18.3604 30.9243 18.649C30.9243 18.9376 30.8106 19.2146 30.6081 19.4194C30.0774 19.9995 29.4993 20.5511 28.9403 21.1122C28.7832 21.2968 28.6087 21.4657 28.4191 21.6163C28.2138 21.7419 28.0019 21.8563 27.7842 21.9588Z" fill="white"/>
<path d="M52.9431 28.8636C52.7456 28.12 52.2982 27.4675 51.6765 27.0169C51.0549 26.5663 50.2972 26.3452 49.5317 26.3909H48.6504V5.17375C48.6504 4.74579 48.6504 4.30845 48.6504 3.8805C48.5988 3.25469 48.4088 2.64828 48.0943 2.10547C47.7797 1.56267 47.3484 1.09697 46.8318 0.742572C46.3153 0.388178 45.7265 0.153878 45.1084 0.0567086C44.4902 -0.0404613 43.8583 0.00200295 43.2585 0.180925C42.5006 0.424986 41.8162 0.856781 41.2685 1.43633L38.7384 3.97546C38.6018 3.75236 38.404 3.57351 38.1687 3.46048C37.9333 3.34746 37.6705 3.30512 37.4117 3.33836C35.5923 3.64268 33.7729 3.91847 31.9629 4.28937C31.7523 4.31023 31.5524 4.39276 31.3881 4.52666C31.2237 4.66056 31.1023 4.83995 31.0387 5.04257C30.9751 5.24518 30.9721 5.46196 31.0303 5.6662C31.0885 5.87045 31.2052 6.05314 31.3659 6.1914C33.5138 8.45481 35.687 10.7025 37.8855 12.9342C38.023 13.1143 38.2125 13.2473 38.4281 13.3154C38.6438 13.3835 38.8751 13.3833 39.0906 13.3147C39.3061 13.2461 39.4953 13.1125 39.6324 12.9321C39.7694 12.7516 39.8477 12.5331 39.8565 12.3064C40.1787 10.7562 40.4535 9.19663 40.8042 7.64648C40.9747 6.86665 41.1263 6.13426 40.3682 5.63973C41.3158 4.68872 42.2635 3.73771 43.2111 2.78669C43.5189 2.52677 43.897 2.36506 44.297 2.32233C44.697 2.2796 45.1006 2.35778 45.456 2.54685C45.8114 2.73592 46.1024 3.02742 46.2917 3.38363C46.481 3.73984 46.5598 4.14463 46.5182 4.54616V26.4195H16.64C12.2052 26.4195 7.77036 26.4195 3.37344 26.4195C2.60965 26.415 1.86786 26.6759 1.27404 27.158C0.680224 27.6402 0.271 28.3137 0.115844 29.0643C-0.0393122 29.8148 0.0691311 30.5962 0.422846 31.2755C0.776562 31.9549 1.35371 32.4904 2.05624 32.7912C2.19743 32.8397 2.32384 32.9239 2.4234 33.0355C2.52295 33.147 2.59233 33.2822 2.62484 33.4283C3.48401 36.5033 4.35266 39.572 5.23078 42.6343C5.52822 43.8468 6.1149 44.9686 6.94029 45.903C7.76568 46.8373 8.80505 47.5565 9.96885 47.9982C10.8175 48.2808 11.6811 48.5155 12.5558 48.7017C12.5558 48.7968 12.4516 48.9489 12.3758 49.101C12.0157 49.8333 11.6366 50.5466 11.2955 51.2789C11.1602 51.5034 11.1061 51.7681 11.1424 52.0279C11.1786 52.2877 11.303 52.5268 11.4945 52.7054C11.6261 52.834 11.7879 52.9271 11.965 52.9761C12.1421 53.0252 12.3286 53.0286 12.5073 52.9859C12.686 52.9432 12.851 52.8557 12.987 52.7319C13.1231 52.608 13.2258 52.4521 13.2855 52.2777C13.8351 51.2221 14.3658 50.1566 14.868 49.082C14.9181 48.9205 15.0237 48.782 15.166 48.6914C15.3084 48.6009 15.4781 48.564 15.645 48.5874C22.9417 48.5874 30.2383 48.5874 37.5349 48.5874C37.6937 48.5693 37.854 48.6055 37.9898 48.6901C38.1257 48.7746 38.2291 48.9028 38.2835 49.0536C38.7952 50.1473 39.3353 51.2312 39.8944 52.2963C39.9587 52.4685 40.0648 52.622 40.2032 52.7425C40.3415 52.8631 40.5077 52.9471 40.6866 52.9868C40.8655 53.0265 41.0515 53.0209 41.2276 52.9701C41.4037 52.9193 41.5643 52.8251 41.6949 52.6961C41.8844 52.5046 42.0021 52.2529 42.028 51.9842C42.0539 51.7156 41.9865 51.4462 41.8371 51.2218C41.4201 50.3563 40.9937 49.5006 40.5483 48.5972L40.9179 48.5494C42.499 48.4243 44.0045 47.8185 45.2337 46.8126C46.4629 45.8067 47.3573 44.4486 47.7975 42.9194C48.6788 39.8381 49.5695 36.7474 50.4319 33.6661C50.4683 33.4522 50.5602 33.2521 50.6983 33.0852C50.8363 32.9182 51.0157 32.7904 51.2184 32.7151C51.6907 32.4928 52.1067 32.1663 52.435 31.7594C52.7632 31.3525 52.9953 30.876 53.1136 30.3661V29.1202C53.0462 29.0422 52.9888 28.9562 52.9431 28.8636ZM13.276 43.9656C13.0864 44.0361 12.8892 44.0838 12.6885 44.1082C12.027 44.1014 11.3841 43.8871 10.8504 43.4948C10.3167 43.1024 9.91893 42.552 9.71297 41.921C9.13493 40.1902 8.67062 38.4211 8.19681 36.6617C8.14369 36.4827 8.13836 36.2931 8.18137 36.1114C8.22439 35.9298 8.31421 35.7629 8.44187 35.6271C8.56953 35.4913 8.73055 35.3915 8.90874 35.3378C9.08692 35.2841 9.276 35.2783 9.4571 35.3211C9.68062 35.3718 9.8832 35.49 10.0374 35.6601C10.1917 35.8302 10.2901 36.044 10.3195 36.2721C10.7269 37.7176 11.1723 39.1249 11.5419 40.599C11.5815 40.97 11.7507 41.3147 12.0196 41.5723C12.2885 41.83 12.6396 41.9839 13.0106 42.0065C13.2261 42.0341 13.4255 42.135 13.5756 42.2925C13.7257 42.4501 13.8173 42.6548 13.8351 42.8721C13.883 43.0971 13.8479 43.3317 13.7364 43.5328C13.6249 43.734 13.4445 43.8879 13.2286 43.9656H13.276Z" fill="white"/>
</g>
<defs>
<clipPath id="clip0_636_6507">
<rect width="53" height="53" fill="white"/>
</clipPath>
</defs>
</svg>
