<svg width="46" height="31" viewBox="0 0 46 31" fill="none" xmlns="http://www.w3.org/2000/svg">
<g clip-path="url(#clip0_636_6503)">
<path d="M5.00224 19.0708H45.029C45.9917 19.0708 45.9917 19.0712 45.9917 20.0794V29.331C46.0198 29.5604 45.9966 29.7932 45.9239 30.012C45.8511 30.2307 45.7307 30.4297 45.5719 30.5932C45.4131 30.7567 45.2201 30.8806 45.0077 30.9556C44.7952 31.0305 44.569 31.0544 44.3462 31.0255H42.4785C42.2858 31.0327 42.0937 30.9987 41.9143 30.9258C41.7349 30.8528 41.5721 30.7423 41.4361 30.6015C41.3001 30.4606 41.1939 30.2926 41.1241 30.1075C41.0543 29.9224 41.0224 29.7243 41.0305 29.5259C41.0305 28.1449 41.0305 26.7722 41.0305 25.3489H5.00224V29.3732C5.03201 29.6011 5.00958 29.833 4.93676 30.0504C4.86393 30.2678 4.74273 30.4649 4.58283 30.6254C4.42293 30.786 4.22873 30.9055 4.01583 30.975C3.80294 31.0445 3.57725 31.0619 3.35674 31.0255C2.71499 31.0255 2.07323 31.0255 1.43971 31.0255C1.2459 31.0327 1.05275 30.9983 0.872366 30.925C0.691981 30.8516 0.528242 30.7406 0.39149 30.599C0.254739 30.4574 0.147908 30.2883 0.0776861 30.1021C0.00746428 29.916 -0.0246352 29.7167 -0.0165707 29.5172C-0.0165707 20.1977 -0.0165707 10.8782 -0.0165707 1.55873C-0.0269085 1.35854 0.0032359 1.15846 0.0719112 0.97088C0.140587 0.783296 0.246297 0.612419 0.382401 0.469081C0.518506 0.325742 0.682048 0.213048 0.862624 0.138133C1.0432 0.0632176 1.23689 0.0277397 1.43148 0.0338843C2.13904 0.0338843 2.84662 0.0338843 3.55419 0.0338843C3.74669 0.0301875 3.93788 0.0672249 4.11591 0.142683C4.29395 0.218142 4.45506 0.330437 4.58926 0.472597C4.72345 0.614757 4.82788 0.78362 4.89608 0.969018C4.96429 1.15442 4.99481 1.35241 4.98577 1.55045V19.0965L5.00224 19.0708Z" fill="white"/>
<path d="M45.9754 17.6487H16.3564C16.3564 17.4538 16.307 17.2758 16.307 17.1064C16.307 14.9459 16.3728 12.7941 16.307 10.6421C16.3011 10.2738 16.3682 9.90808 16.5042 9.56738C16.6401 9.22667 16.8421 8.91804 17.0977 8.66037C17.3533 8.4027 17.6573 8.2013 17.991 8.0686C18.3246 7.93589 18.6811 7.87478 19.0385 7.88864C25.8015 7.931 32.5645 7.88864 39.3358 7.88864C40.7057 7.90727 42.0366 8.3617 43.1457 9.18989C44.2549 10.0181 45.0881 11.1794 45.5311 12.5145C46.107 14.2089 45.9672 15.8865 45.9754 17.6487Z" fill="white"/>
<path d="M14.8177 13.4373C14.9905 15.818 12.7855 17.6734 10.7862 17.6734C10.246 17.6762 9.71054 17.5696 9.2104 17.3592C8.71026 17.1489 8.25523 16.8391 7.87132 16.4477C7.09598 15.6572 6.65736 14.5821 6.65191 13.4586C6.64645 12.3351 7.07462 11.2553 7.84224 10.4569C8.60987 9.65851 9.65404 9.20679 10.7451 9.20117C12.8595 9.20117 15.0152 11.1413 14.8177 13.4373Z" fill="white"/>
</g>
<defs>
<clipPath id="clip0_636_6503">
<rect width="46" height="31" fill="white"/>
</clipPath>
</defs>
</svg>
