<svg width="177" height="177" viewBox="0 0 177 177" fill="none" xmlns="http://www.w3.org/2000/svg">
<g clip-path="url(#clip0_760_4691)">
<path d="M97.0227 97.7129C96.8482 97.7129 96.6737 97.6494 96.5389 97.5146L79.4933 80.469C79.2236 80.1993 79.2236 79.763 79.4933 79.5013C79.763 79.2395 80.1992 79.2316 80.461 79.5013L97.5066 96.5469C97.7763 96.8166 97.7763 97.2528 97.5066 97.5146C97.3717 97.6415 97.1972 97.7129 97.0227 97.7129Z" fill="white" stroke="white" stroke-miterlimit="10" stroke-linecap="round" stroke-linejoin="round"/>
<path d="M97.0226 97.7129H82.9435C82.5628 97.7129 82.2534 97.4035 82.2534 97.0228C82.2534 96.6421 82.5628 96.3327 82.9435 96.3327H96.3325V82.9437C96.3325 82.563 96.6419 82.2536 97.0226 82.2536C97.4033 82.2536 97.7127 82.563 97.7127 82.9437V97.0228C97.7047 97.4035 97.4033 97.7129 97.0226 97.7129Z" fill="white" stroke="white" stroke-miterlimit="10" stroke-linecap="round" stroke-linejoin="round"/>
<path d="M88.5039 176.603C39.9211 176.603 0.396484 137.079 0.396484 88.504C0.396484 39.9291 39.9211 0.396594 88.5039 0.396594C137.087 0.396594 176.611 39.9212 176.611 88.504C176.611 137.087 137.079 176.603 88.5039 176.603ZM88.5039 1.08667C40.3018 1.08667 1.08656 40.3019 1.08656 88.504C1.08656 136.706 40.3018 175.921 88.5039 175.921C136.706 175.921 175.921 136.706 175.921 88.504C175.921 40.3019 136.706 1.08667 88.5039 1.08667Z" fill="white" stroke="white" stroke-miterlimit="10" stroke-linecap="round" stroke-linejoin="round"/>
</g>
<defs>
<clipPath id="clip0_760_4691">
<rect width="177" height="177" fill="white"/>
</clipPath>
</defs>
</svg>
