<svg width="223" height="224" viewBox="0 0 223 224" fill="none" xmlns="http://www.w3.org/2000/svg">
<g clip-path="url(#clip0_852_4189)">
<path d="M46.71 28.31L44.71 25.63L47.2999 23.63L49.2999 26.31L46.71 28.31Z" fill="white"/>
<path d="M83.4999 16.15C81.9218 16.6141 80.2241 16.4324 78.78 15.6447C77.336 14.857 76.264 13.528 75.7999 11.95C75.3357 10.372 75.5175 8.67418 76.3052 7.23015C77.0928 5.78612 78.4218 4.71412 79.9999 4.24999C80.8175 3.97045 81.6843 3.86431 82.5452 3.93834C83.406 4.01238 84.242 4.26495 84.9999 4.67998L84.1599 6.56999C83.6129 6.25394 83.0082 6.05042 82.3814 5.97142C81.7545 5.89243 81.1182 5.93953 80.5099 6.10997C79.9913 6.2716 79.5112 6.53716 79.0986 6.89043C78.686 7.2437 78.3496 7.67729 78.1101 8.16478C77.8706 8.65227 77.7329 9.18342 77.7053 9.72588C77.6778 10.2683 77.761 10.8107 77.9499 11.32C78.0748 11.8489 78.3043 12.3475 78.625 12.7863C78.9457 13.2251 79.351 13.5952 79.817 13.8748C80.283 14.1544 80.8003 14.3379 81.3384 14.4144C81.8765 14.4908 82.4244 14.4587 82.9499 14.32C83.5702 14.1224 84.1433 13.7994 84.6336 13.3711C85.1239 12.9427 85.5208 12.4182 85.7999 11.83L87.4899 12.75C87.1141 13.5741 86.562 14.3058 85.8726 14.8932C85.1831 15.4807 84.3732 15.9097 83.4999 16.15Z" fill="white"/>
<path d="M101.56 12.62C100.344 12.7222 99.1255 12.463 98.0568 11.8749C96.988 11.2868 96.117 10.396 95.5528 9.31446C94.9887 8.23289 94.7567 7.00871 94.8859 5.79572C95.0152 4.58274 95.5001 3.43502 96.2795 2.49665C97.0589 1.55829 98.0982 0.871127 99.2669 0.521493C100.436 0.171859 101.682 0.175306 102.848 0.531441C104.015 0.887576 105.05 1.58051 105.825 2.5232C106.599 3.46589 107.077 4.61634 107.2 5.83003C107.289 6.6487 107.213 7.47697 106.976 8.26563C106.739 9.0543 106.346 9.78721 105.819 10.4207C105.293 11.0542 104.645 11.5754 103.913 11.9533C103.181 12.3311 102.381 12.5578 101.56 12.62ZM100.56 2.21998C100.012 2.26796 99.4807 2.42823 98.9979 2.6908C98.5151 2.95338 98.0916 3.31267 97.7538 3.74616C97.416 4.17965 97.1712 4.67809 97.0346 5.2104C96.8979 5.7427 96.8725 6.29745 96.9598 6.84003C96.9925 7.38963 97.135 7.92707 97.3789 8.42066C97.6228 8.91426 97.9631 9.35398 98.3798 9.71381C98.7965 10.0736 99.2811 10.3463 99.8049 10.5157C100.329 10.6851 100.881 10.7478 101.43 10.7C101.977 10.652 102.509 10.4918 102.992 10.2292C103.474 9.96662 103.898 9.60739 104.236 9.1739C104.574 8.74041 104.818 8.24197 104.955 7.70966C105.092 7.17736 105.117 6.62261 105.03 6.08003C105 5.5267 104.858 4.98513 104.614 4.48805C104.369 3.99096 104.026 3.54865 103.605 3.18787C103.184 2.8271 102.695 2.55534 102.167 2.38899C101.638 2.22263 101.081 2.16512 100.53 2.21998H100.56Z" fill="white"/>
<path d="M126.01 0.869995L128.08 1.08002L126.83 13.01L125.08 12.83L119.39 3.65997L118.5 12.14L116.44 11.93L117.68 0L119.63 0.200012L125.16 9.10999L126.01 0.869995Z" fill="white"/>
<path d="M147.33 5.90997L149.33 6.52997L145.77 17.97L144.08 17.45L140.29 7.31L137.75 15.46L135.75 14.84L139.31 3.40002L141.18 3.97998L144.85 13.8L147.33 5.90997Z" fill="white"/>
<path d="M166.8 16.84L160.8 13.66L159.33 16.41L164.65 19.24L163.77 20.9L158.45 18.08L156.94 20.93L163.01 24.15L162.13 25.82L154.19 21.6L159.82 11.01L167.68 15.18L166.8 16.84Z" fill="white"/>
<path d="M173.55 34.13C172.27 33.0997 171.452 31.6031 171.276 29.9697C171.1 28.3362 171.58 26.6997 172.61 25.42C173.64 24.1403 175.137 23.3224 176.77 23.1461C178.404 22.9699 180.04 23.4496 181.32 24.48C182.021 24.9921 182.607 25.6457 183.039 26.3985C183.471 27.1513 183.741 27.9865 183.83 28.85L181.83 29.23C181.775 28.6019 181.595 27.9911 181.302 27.4331C181.008 26.8751 180.606 26.3811 180.12 25.98C179.228 25.3658 178.136 25.1135 177.064 25.2743C175.993 25.4351 175.023 25.997 174.351 26.8461C173.678 27.6952 173.354 28.7681 173.443 29.8476C173.532 30.9271 174.028 31.9324 174.83 32.66C175.344 33.0569 175.934 33.3434 176.564 33.5017C177.194 33.66 177.849 33.6867 178.49 33.58L178.7 35.49C177.794 35.6617 176.862 35.6286 175.971 35.3933C175.08 35.158 174.253 34.7264 173.55 34.13Z" fill="white"/>
<path d="M186.76 46.69L185.36 45.08L192.92 38.49L190.42 35.63L191.89 34.34L198.29 41.67L196.82 42.96L194.32 40.09L186.76 46.69Z" fill="white"/>
<path d="M205.45 51.91L195.35 58.39L194.22 56.61L204.31 50.14L205.45 51.91Z" fill="white"/>
<path d="M214.39 69.31L215.22 71.21L204.22 76.02L203.51 74.4L208.66 64.93L200.86 68.35L200.03 66.46L211.03 61.65L211.81 63.43L206.81 72.64L214.39 69.31Z" fill="white"/>
<path d="M208.14 90.36C207.925 89.5654 207.877 88.7347 207.999 87.9206C208.122 87.1064 208.413 86.3268 208.853 85.6309C209.293 84.9351 209.873 84.3384 210.556 83.8786C211.239 83.4188 212.01 83.106 212.82 82.96C213.615 82.7702 214.44 82.7414 215.246 82.8756C216.053 83.0098 216.824 83.3042 217.515 83.7414C218.205 84.1785 218.802 84.7496 219.268 85.4209C219.734 86.0922 220.061 86.8502 220.23 87.65C220.674 89.2828 220.458 91.0246 219.63 92.5L217.79 91.5C218.108 90.9723 218.318 90.387 218.409 89.7779C218.5 89.1687 218.47 88.5475 218.32 87.95C218.184 87.4305 217.947 86.9431 217.621 86.5163C217.295 86.0894 216.888 85.7315 216.423 85.4635C215.958 85.1955 215.444 85.0227 214.911 84.9552C214.378 84.8876 213.837 84.9267 213.32 85.07C212.768 85.1502 212.239 85.3449 211.767 85.6415C211.295 85.9381 210.89 86.3302 210.578 86.7925C210.267 87.2548 210.055 87.7773 209.957 88.3262C209.859 88.8751 209.877 89.4384 210.01 89.98C210.223 90.9914 210.751 91.909 211.52 92.6L213.71 92.12L213.05 89.12L214.84 88.72L215.94 93.72L211.03 94.81C209.561 93.7246 208.534 92.1438 208.14 90.36Z" fill="white"/>
<path d="M222.07 122L221.79 124.09L211.79 122.77L210.96 129.01L209.06 128.76L210.17 120.43L222.07 122Z" fill="white"/>
<path d="M218.07 142.42L206.53 139.16L207.11 137.16L218.65 140.43L218.07 142.42Z" fill="white"/>
<path d="M209.07 160.38L211.86 154.16L208.86 152.82L206.38 158.33L204.63 157.55L207.11 152.04L202.66 150.04L203.52 148.12L214.45 153.02L210.8 161.16L209.07 160.38Z" fill="white"/>
<path d="M199.01 176.62L202.82 171.01L200.25 169.31L196.87 174.31L195.31 173.25L198.7 168.25L196.07 166.39L192.2 172.07L190.65 171.01L195.65 163.6L205.55 170.33L200.55 177.68L199.01 176.62Z" fill="white"/>
<path d="M186.79 185.86C184.58 187.24 183.01 187.55 181.58 186.15C179.97 184.57 180.24 182.38 182 180.58C183.284 179.254 185.018 178.459 186.86 178.35L187.06 180.35C185.647 180.393 184.302 180.972 183.3 181.97C182.39 182.9 182.25 183.91 182.91 184.56C183.57 185.21 184.2 185.14 186.12 183.91C188.34 182.52 189.88 182.02 191.47 183.57C193.06 185.12 192.77 187.23 191.11 188.94C190.017 190.069 188.562 190.777 187 190.94L186.65 189.02C187.832 188.891 188.938 188.378 189.8 187.56C190.66 186.68 190.71 185.72 190.14 185.16C189.57 184.6 188.79 184.6 186.79 185.86Z" fill="white"/>
<path d="M168.66 192.17L170.39 190.92L176.26 199.05L179.35 196.82L180.49 198.4L172.61 204.11L171.47 202.52L174.54 200.3L168.66 192.17Z" fill="white"/>
<path d="M153.29 201.07L155.21 200.15L157.21 204.42L164.64 208.92L162.4 209.99L157.08 206.65L156.31 212.91L154.13 213.91L155.31 205.34L153.29 201.07Z" fill="white"/>
<path d="M144.65 217.31L142.65 217.87L139.95 208.16L133.87 209.85L133.36 208.01L141.46 205.75L144.65 217.31Z" fill="white"/>
<path d="M117.24 220.45L123.99 219.79L123.69 216.69L117.69 217.27L117.5 215.39L123.5 214.81L123.19 211.61L116.36 212.27L116.17 210.4L125.1 209.53L126.26 221.46L117.42 222.32L117.24 220.45Z" fill="white"/>
<path d="M79.3401 204.89L80.9101 207.74C82.6293 206.767 84.662 206.508 86.5701 207.02C89.6301 207.88 91.4301 210.36 90.5701 213.26C89.9701 215.4 88.2901 216.58 85.7601 216.92C86.3402 218.114 86.4784 219.474 86.1501 220.76C85.5301 223 83.1501 224.43 80.2501 223.61C77.6301 222.87 76.3601 220.61 76.9901 218.37C77.6201 216.13 79.4001 215.29 81.8301 215.08L79.8301 211.41C78.877 212.238 77.9878 213.138 77.17 214.1L75.3101 212.33C76.3114 211.188 77.4124 210.137 78.6001 209.19L76.7501 205.82L79.3401 204.89ZM81.0101 221.34C81.2708 221.418 81.5447 221.442 81.8151 221.411C82.0854 221.38 82.3465 221.294 82.5825 221.158C82.8184 221.022 83.0241 220.84 83.1871 220.622C83.35 220.404 83.4667 220.155 83.5301 219.89C83.6333 219.405 83.6369 218.904 83.5406 218.417C83.4444 217.931 83.2503 217.469 82.9701 217.06C81.1001 217.2 79.9701 217.7 79.6601 218.93C79.5783 219.175 79.549 219.434 79.5739 219.691C79.5989 219.948 79.6775 220.196 79.8048 220.421C79.9321 220.645 80.1052 220.84 80.3129 220.994C80.5205 221.147 80.7581 221.255 81.0101 221.31V221.34ZM84.7101 214.68C85.3716 214.678 86.0162 214.47 86.5539 214.085C87.0916 213.699 87.4958 213.156 87.7101 212.53C87.798 212.183 87.813 211.822 87.7543 211.469C87.6956 211.116 87.5644 210.779 87.369 210.479C87.1735 210.18 86.9181 209.924 86.6188 209.728C86.3196 209.531 85.9829 209.4 85.6301 209.34C84.4319 209.06 83.1716 209.261 82.1201 209.9L84.7101 214.68Z" fill="white"/>
<path d="M46.9498 191.68L48.8098 193.16L51.2098 190.16L52.8597 191.47L45.4098 200.86L41.7098 197.92C39.5298 196.19 39.1198 193.86 40.6398 191.92C42.3198 189.8 44.8798 190.04 46.9498 191.68ZM43.0698 196.51L44.9897 198.03L47.6697 194.65L45.7498 193.13C44.4998 192.13 43.1798 192.2 42.3798 193.21C41.5798 194.22 41.7998 195.53 43.0698 196.51Z" fill="white"/>
<path d="M34.59 174.16L33.38 179.16L35.11 181.16L38.26 178.41L39.64 180L30.64 187.87L27.13 183.87C25.32 181.79 25.3 179.56 27.07 178.01C27.6898 177.431 28.4942 177.089 29.3412 177.045C30.1883 177.002 31.0236 177.258 31.7 177.77L32.99 172.35L34.59 174.16ZM28.66 182.68L30.66 184.98L33.66 182.34L31.66 180.02C30.66 178.88 29.45 178.68 28.52 179.49C27.59 180.3 27.64 181.5 28.66 182.68Z" fill="white"/>
<path d="M25.4598 160.49C25.8878 161.192 26.1695 161.973 26.2879 162.787C26.4063 163.6 26.359 164.43 26.1488 165.225C25.9386 166.019 25.57 166.764 25.0649 167.412C24.5599 168.061 23.9289 168.601 23.2098 169C22.4978 169.417 21.7093 169.687 20.8911 169.794C20.0728 169.901 19.2414 169.843 18.4461 169.623C17.6507 169.403 16.9076 169.025 16.2607 168.513C15.6138 168.001 15.0762 167.364 14.6798 166.64C14.2384 165.931 13.9446 165.139 13.8161 164.314C13.6876 163.488 13.7269 162.645 13.9319 161.835C14.1368 161.025 14.5032 160.265 15.0089 159.6C15.5145 158.935 16.1492 158.379 16.8749 157.965C17.6006 157.551 18.4024 157.287 19.2323 157.191C20.0622 157.094 20.903 157.165 21.7045 157.401C22.5061 157.637 23.2518 158.032 23.8971 158.563C24.5424 159.093 25.0739 159.749 25.4598 160.49ZM16.3798 165.7C16.6534 166.175 17.0204 166.591 17.4588 166.92C17.8972 167.25 18.3979 167.487 18.9306 167.618C19.4633 167.749 20.017 167.771 20.5583 167.681C21.0996 167.592 21.6171 167.395 22.0798 167.1C22.5684 166.844 23.0007 166.493 23.351 166.067C23.7013 165.641 23.9625 165.149 24.1192 164.62C24.2759 164.092 24.3248 163.537 24.2631 162.989C24.2013 162.441 24.0302 161.911 23.7598 161.43C23.4917 160.95 23.1275 160.531 22.6901 160.198C22.2527 159.865 21.7514 159.626 21.2175 159.496C20.6836 159.365 20.1285 159.346 19.587 159.44C19.0454 159.534 18.529 159.738 18.0698 160.04C17.5797 160.293 17.1457 160.642 16.7937 161.066C16.4417 161.491 16.1789 161.982 16.0211 162.51C15.8633 163.039 15.8138 163.594 15.8754 164.142C15.9371 164.69 16.1086 165.22 16.3798 165.7Z" fill="white"/>
<path d="M13.7001 144.21L14.4601 146.46L18.12 145.22L18.8 147.22L7.44006 151.11L5.92004 146.63C5.01004 143.99 5.92005 141.8 8.25005 141.01C10.8101 140.12 12.8401 141.71 13.7001 144.21ZM7.79003 146.21L8.58007 148.53L12.6601 147.13L11.87 144.81C11.35 143.3 10.21 142.65 8.99004 143.06C7.77004 143.47 7.28003 144.67 7.79003 146.16V146.21Z" fill="white"/>
<path d="M2.53021 123.09L3.53021 129.79L6.61017 129.31L5.7002 123.37L7.56018 123.08L8.47021 129.02L11.6602 128.53L10.6602 121.75L12.5202 121.46L13.8702 130.31L2.07019 132.15L0.720215 123.37L2.53021 123.09Z" fill="white"/>
<path d="M12.2098 105.17L7.94977 107.99L7.86975 110.63L12.0497 110.75L11.9897 112.86L-0.0102539 112.51L0.14978 107.17C0.22978 104.41 1.72977 102.76 4.07977 102.82C4.93348 102.817 5.76054 103.117 6.41412 103.666C7.06771 104.215 7.50553 104.979 7.64978 105.82L12.2798 102.72L12.2098 105.17ZM2.06976 107.39L1.97974 110.46L5.97974 110.58L6.06976 107.5C6.11976 105.99 5.35976 105 4.12976 104.97C2.89976 104.94 2.11976 105.84 2.06976 107.39Z" fill="white"/>
<path d="M14.4897 89.52L14.0497 91.6L4.23975 89.5L3.43976 93.22L1.52979 92.81L3.52979 83.3L5.43976 83.71L4.63977 87.42L14.4897 89.52Z" fill="white"/>
<path d="M7.41992 71.51L18.6699 75.67L17.9399 77.67L6.68994 73.5L7.41992 71.51Z" fill="white"/>
<path d="M17.8502 54.31L14.5801 60.25L17.3101 61.76L20.2101 56.49L21.8601 57.4L18.9601 62.67L21.7802 64.22L25.0901 58.22L26.7401 59.12L22.4102 66.98L11.9102 61.2L16.2001 53.41L17.8502 54.31Z" fill="white"/>
<path d="M29.0701 43.98C31.1401 42.39 32.6701 41.98 34.2401 43.19C36.0001 44.6 35.9401 46.81 34.3601 48.78C33.2092 50.2262 31.5564 51.1864 29.7301 51.47L29.3501 49.54C30.7567 49.3597 32.0392 48.6432 32.9301 47.54C33.7501 46.54 33.8001 45.54 33.0801 44.93C32.3601 44.32 31.7301 44.47 29.9401 45.93C27.8601 47.53 26.3701 48.18 24.6301 46.79C22.8901 45.4 22.9901 43.26 24.4801 41.41C25.4412 40.1535 26.8217 39.2841 28.3701 38.96L28.9101 40.84C27.7447 41.0833 26.691 41.7014 25.9101 42.6C25.1401 43.6 25.1801 44.52 25.8101 45.02C26.4401 45.52 27.2301 45.43 29.0701 43.98Z" fill="white"/>
<path d="M84.6301 117.87C84.6301 104.06 84.6301 90.26 84.6301 76.46C84.6301 74.89 85.0001 74.39 86.6301 74.46C89.6901 74.6 92.7601 74.46 95.8201 74.46C97.8901 74.46 97.8901 74.46 97.8901 76.62V156.32C97.8901 158.68 97.89 158.69 100.23 158.69H134.98C135.75 158.69 136.64 158.39 136.7 159.79C136.76 161.19 136.07 161.31 134.97 161.31C122.603 161.31 110.24 161.31 97.8801 161.31C94.0301 161.31 90.1901 161.25 86.3401 161.31C84.9701 161.31 84.6001 160.96 84.6001 159.58C84.6501 145.68 84.6301 131.77 84.6301 117.87Z" fill="white"/>
<path d="M124.26 104.47C124.26 117.84 124.26 131.22 124.26 144.59C124.26 146.1 123.84 146.53 122.35 146.48C119.03 146.37 115.7 146.4 112.35 146.48C111.24 146.48 110.92 146.13 110.95 145.07C111.02 143.2 110.95 141.33 110.95 139.47V64.47C110.95 62.25 110.95 62.25 108.78 62.25H85.1998C84.3698 62.25 83.5698 62.42 83.5698 61.07C83.5698 59.72 84.1398 59.67 85.1798 59.67C106.673 59.67 128.163 59.67 149.65 59.67C150.6 59.67 151.39 59.67 151.32 61C151.32 61.94 151.02 62.27 150.07 62.25C147.21 62.2 144.36 62.25 141.5 62.25C136.42 62.25 131.33 62.31 126.24 62.25C124.71 62.25 124.24 62.57 124.24 64.25C124.29 77.61 124.26 91.04 124.26 104.47Z" fill="white"/>
</g>
<defs>
<clipPath id="clip0_852_4189">
<rect width="222.07" height="223.85" fill="white"/>
</clipPath>
</defs>
</svg>
