<svg width="145" height="145" viewBox="0 0 145 145" fill="none" xmlns="http://www.w3.org/2000/svg">
<g clip-path="url(#clip0_746_1474)">
<path d="M79.4816 80.0473C79.3386 80.0473 79.1957 79.9954 79.0852 79.8849L65.1213 65.921C64.9003 65.7 64.9003 65.3427 65.1213 65.1282C65.3422 64.9138 65.6996 64.9073 65.914 65.1282L79.8779 79.0922C80.0989 79.3131 80.0989 79.6705 79.8779 79.8849C79.7675 79.9889 79.6245 80.0473 79.4816 80.0473Z" fill="black" stroke="black" stroke-miterlimit="10" stroke-linecap="round" stroke-linejoin="round"/>
<path d="M79.4814 80.0473H67.9476C67.6357 80.0473 67.3823 79.7939 67.3823 79.482C67.3823 79.1701 67.6357 78.9167 67.9476 78.9167H78.916V67.9483C78.916 67.6364 79.1695 67.3829 79.4814 67.3829C79.7933 67.3829 80.0467 67.6364 80.0467 67.9483V79.482C80.0402 79.7939 79.7933 80.0473 79.4814 80.0473Z" fill="black" stroke="black" stroke-miterlimit="10" stroke-linecap="round" stroke-linejoin="round"/>
<path d="M72.5031 144.675C32.7036 144.675 0.324707 112.296 0.324707 72.5033C0.324707 32.7103 32.7036 0.324951 72.5031 0.324951C112.303 0.324951 144.681 32.7038 144.681 72.5033C144.681 112.303 112.296 144.675 72.5031 144.675ZM72.5031 0.890266C33.0155 0.890266 0.890022 33.0157 0.890022 72.5033C0.890022 111.991 33.0155 144.116 72.5031 144.116C111.991 144.116 144.116 111.991 144.116 72.5033C144.116 33.0157 111.991 0.890266 72.5031 0.890266Z" fill="black" stroke="black" stroke-miterlimit="10" stroke-linecap="round" stroke-linejoin="round"/>
</g>
<defs>
<clipPath id="clip0_746_1474">
<rect width="145" height="145" fill="white"/>
</clipPath>
</defs>
</svg>
