<svg width="18" height="18" viewBox="0 0 18 18" fill="none" xmlns="http://www.w3.org/2000/svg">
<g clip-path="url(#clip0_852_3834)">
<path d="M0.521165 13.9585C0.452802 13.958 0.385041 13.9725 0.321802 14.0011C0.258563 14.0297 0.201104 14.0718 0.152763 14.125C0.104423 14.1782 0.0661676 14.2415 0.0401973 14.3111C0.014227 14.3807 0.0010604 14.4553 0.00147431 14.5305V15.7473C0.00249427 16.0443 0.0567448 16.3383 0.161124 16.6122C0.265504 16.8862 0.417966 17.1348 0.609763 17.3438C0.801561 17.5527 1.02893 17.718 1.27885 17.8301C1.52877 17.9423 1.79633 17.999 2.0662 17.9971H15.9368C16.2066 17.999 16.4742 17.9423 16.7241 17.8301C16.974 17.718 17.2014 17.5527 17.3932 17.3438C17.585 17.1348 17.7375 16.8862 17.8418 16.6122C17.9462 16.3383 18.0005 16.0443 18.0015 15.7473V14.5305C18.0019 14.4553 17.9887 14.3807 17.9628 14.3111C17.9368 14.2415 17.8985 14.1782 17.8502 14.125C17.8019 14.0718 17.7444 14.0297 17.6812 14.0011C17.6179 13.9725 17.5502 13.958 17.4818 13.9585C17.344 13.9585 17.2118 14.0187 17.1143 14.126C17.0169 14.2333 16.9621 14.3788 16.9621 14.5305V15.7473C16.9615 15.8937 16.9345 16.0385 16.8827 16.1734C16.8309 16.3083 16.7553 16.4305 16.6602 16.533C16.5652 16.6354 16.4526 16.7161 16.3291 16.7704C16.2055 16.8247 16.0734 16.8514 15.9404 16.849H2.06464C1.5013 16.849 1.04242 16.3439 1.04242 15.7473V14.5305C1.03988 14.3797 0.984314 14.2358 0.887397 14.1291C0.79048 14.0224 0.659764 13.9613 0.522725 13.9585H0.521165Z" fill="#010101"/>
<path d="M8.80204 -6.42927e-06C8.73368 -0.000462039 8.66592 0.0140311 8.60268 0.0426177C8.53944 0.0712043 8.48198 0.113327 8.43364 0.166538C8.3853 0.219748 8.34703 0.282983 8.32106 0.352592C8.29509 0.422202 8.28194 0.49679 8.28235 0.57204V11.7761L5.36273 9.02117C5.31138 8.97128 5.25137 8.93335 5.18632 8.90971C5.12128 8.88606 5.05256 8.87719 4.98431 8.88361C4.91606 8.89002 4.84971 8.9116 4.78925 8.94704C4.72879 8.98248 4.67549 9.03106 4.63257 9.08981C4.58772 9.14631 4.55367 9.21219 4.53247 9.28349C4.51127 9.3548 4.50336 9.43007 4.50918 9.50483C4.515 9.57958 4.53445 9.65228 4.56636 9.71857C4.59828 9.78487 4.642 9.8434 4.69493 9.89068L8.49127 13.4722L8.51205 13.4951C8.53284 13.4951 8.53284 13.518 8.55363 13.518C8.56939 13.5204 8.58399 13.5285 8.59521 13.5409C8.61599 13.5409 8.616 13.5638 8.6373 13.5638C8.65861 13.5638 8.67888 13.5867 8.69967 13.5867H8.99172C9.01251 13.5867 9.03382 13.5638 9.05461 13.5638C9.07539 13.5638 9.0754 13.5409 9.09618 13.5409C9.11194 13.5385 9.12655 13.5304 9.13776 13.518C9.15855 13.518 9.15855 13.4951 9.17986 13.4951L9.20064 13.4722L12.9944 9.89068C13.2023 9.68417 13.2449 9.31863 13.0573 9.08981C12.8697 8.86099 12.5376 8.81409 12.3271 9.02117L9.40696 11.7761V0.549163C9.32381 0.250555 9.09515 -0.00172424 8.80204 -0.00172424V-6.42927e-06Z" fill="#010101"/>
</g>
<defs>
<clipPath id="clip0_852_3834">
<rect width="18" height="18" fill="white"/>
</clipPath>
</defs>
</svg>
