<svg width="14" height="28" viewBox="0 0 14 28" fill="none" xmlns="http://www.w3.org/2000/svg">
<g clip-path="url(#clip0_852_3336)">
<path d="M8.59235 27.9816V14.486C8.74832 14.486 8.87593 14.486 8.99645 14.486C10.074 14.486 11.1516 14.486 12.2292 14.486C12.4064 14.486 12.527 14.4654 12.5482 14.2525C12.6687 13.03 12.8034 11.8075 12.9311 10.5919C12.9594 10.3034 12.9807 10.0081 13.009 9.68527H8.59235C8.59235 8.97787 8.59235 8.29794 8.59235 7.618C8.59235 7.24713 8.59235 6.87626 8.64907 6.50538C8.71287 6.03149 9.03898 5.73617 9.52815 5.64688C9.71247 5.61254 9.91098 5.59881 10.1024 5.59881C11.0382 5.59881 11.974 5.59881 12.9169 5.59881V1.00411C11.1445 1.00411 9.39345 0.901089 7.65655 1.02471C4.62229 1.25136 3.05554 3.37357 2.84286 5.9216C2.76488 6.84879 2.80032 7.77597 2.78614 8.71002C2.78614 9.02594 2.78614 9.34187 2.78614 9.69901H0.0283714C0.0283714 9.85011 0.0283714 9.95999 0.0283714 10.0767C0.0283714 11.2512 0.0283714 12.4325 0.0283714 13.6069C0.0283714 13.8816 -0.0637907 14.28 0.0850864 14.4036C0.255232 14.5547 0.645148 14.4791 0.935813 14.486C1.53841 14.4929 2.1481 14.486 2.78614 14.486V27.9816H8.59235Z" fill="white"/>
<path d="M8.59235 27.9817H2.78614V14.4861C2.1481 14.4861 1.53841 14.4861 0.935813 14.4861C0.645148 14.4861 0.255232 14.5548 0.0850864 14.4037C-0.0637907 14.2732 0.0283714 13.8817 0.0283714 13.607C0.0283714 12.4326 0.0283714 11.2513 0.0283714 10.0768C0.0283714 9.96695 0.0283714 9.8502 0.0283714 9.6991H2.77905C2.77905 9.34196 2.77905 9.02603 2.77905 8.71011C2.79323 7.78292 2.75779 6.84888 2.83577 5.92169C3.05554 3.37366 4.62229 1.25145 7.65655 1.0248C9.39345 0.894312 11.1445 1.0042 12.9169 1.0042V5.5989C11.974 5.5989 11.0382 5.5989 10.1024 5.5989C9.91098 5.5989 9.71956 5.61263 9.52815 5.64697C9.03898 5.73626 8.71996 6.03158 8.64907 6.50548C8.59944 6.86948 8.59235 7.24722 8.59235 7.61809C8.58526 8.29803 8.59235 8.97796 8.59235 9.68536H13.009C12.9807 10.0082 12.9594 10.3035 12.9311 10.5919C12.8034 11.8144 12.6687 13.037 12.5482 14.2526C12.527 14.4724 12.4064 14.4861 12.2292 14.4861C11.1516 14.4861 10.074 14.4861 8.99645 14.4861C8.86884 14.4861 8.74832 14.4861 8.59235 14.4861V27.9817Z" fill="white"/>
</g>
<defs>
<clipPath id="clip0_852_3336">
<rect width="13.009" height="27.0187" fill="white" transform="translate(0 0.962891)"/>
</clipPath>
</defs>
</svg>
