<svg width="34" height="40" viewBox="0 0 34 40" fill="none" xmlns="http://www.w3.org/2000/svg">
<g clip-path="url(#clip0_760_2344)">
<path d="M26.205 39.9628H3.61674C2.66667 39.9624 1.75553 39.5734 1.08319 38.8811C0.410841 38.1888 0.0321842 37.2498 0.0302734 36.27V3.72999C0.0325615 2.75146 0.410593 1.81372 1.08165 1.12193C1.75271 0.430146 2.66214 0.0406615 3.61097 0.0386963H22.8061C22.921 0.0386963 23.0311 0.0857385 23.1123 0.169479C23.1935 0.253219 23.2391 0.366798 23.2391 0.485225C23.2391 0.603651 23.1935 0.71723 23.1123 0.80097C23.0311 0.884711 22.921 0.931753 22.8061 0.931753H3.61097C2.89513 0.933324 2.20904 1.22718 1.70273 1.74906C1.19642 2.27094 0.911116 2.97835 0.90921 3.71659V36.2566C0.911116 36.9948 1.19642 37.7023 1.70273 38.2241C2.20904 38.746 2.89513 39.0399 3.61097 39.0414H26.205C26.2631 39.0404 26.3207 39.0515 26.3746 39.074C26.4284 39.0964 26.4774 39.1298 26.5184 39.1722C26.5595 39.2145 26.5919 39.265 26.6137 39.3205C26.6354 39.376 26.6462 39.4355 26.6452 39.4954C26.6452 39.5547 26.6338 39.6134 26.6115 39.668C26.5893 39.7227 26.5568 39.7723 26.5158 39.8138C26.4749 39.8554 26.4263 39.8881 26.3729 39.9101C26.3195 39.9321 26.2625 39.9429 26.205 39.9419V39.9628ZM29.601 25.729C29.5429 25.73 29.4852 25.7189 29.4314 25.6964C29.3775 25.674 29.3286 25.6406 29.2875 25.5982C29.2464 25.5559 29.2141 25.5054 29.1923 25.4499C29.1705 25.3944 29.1598 25.3349 29.1608 25.275V7.47636C29.1608 7.41709 29.1722 7.35842 29.1944 7.30376C29.2166 7.24909 29.2491 7.19953 29.2901 7.15797C29.3311 7.1164 29.3797 7.08367 29.433 7.06167C29.4864 7.03967 29.5435 7.02885 29.601 7.02984C29.7158 7.02984 29.8259 7.07688 29.9071 7.16062C29.9883 7.24436 30.0339 7.35794 30.0339 7.47636V25.2675C30.034 25.3874 29.9888 25.5025 29.908 25.5886C29.8272 25.6748 29.7171 25.7251 29.601 25.729Z" fill="#010101"/>
<path d="M26.205 40H3.61678C2.6579 39.9988 1.73862 39.6055 1.06059 38.9062C0.382566 38.207 0.00114584 37.2589 0 36.27V3.73002C0.00305392 2.74255 0.385362 1.79657 1.06323 1.09916C1.74109 0.401749 2.65928 0.00973067 3.61678 0.00894823H22.812C22.8745 0.00814902 22.9366 0.02027 22.9946 0.0445964C23.0525 0.0689227 23.1052 0.104964 23.1494 0.150596C23.1937 0.196228 23.2286 0.250531 23.2522 0.310304C23.2758 0.370077 23.2876 0.434118 23.2868 0.498647C23.2876 0.563244 23.2758 0.627353 23.2522 0.687208C23.2287 0.747062 23.1937 0.801456 23.1495 0.847206C23.1053 0.892956 23.0526 0.929133 22.9947 0.953624C22.9367 0.978114 22.8746 0.990434 22.812 0.989835H3.61678C2.91041 0.990623 2.2332 1.28035 1.73372 1.79546C1.23425 2.31057 0.953306 3.00899 0.952542 3.73747V36.2775C0.953306 37.0059 1.23425 37.7044 1.73372 38.2195C2.2332 38.7346 2.91041 39.0243 3.61678 39.0251H26.205C26.2677 39.0245 26.3299 39.0368 26.388 39.0613C26.446 39.0858 26.4987 39.1219 26.5431 39.1676C26.5874 39.2134 26.6225 39.2678 26.6462 39.3276C26.67 39.3875 26.6819 39.4516 26.6813 39.5163C26.6809 39.5803 26.6683 39.6437 26.6441 39.7027C26.62 39.7617 26.5848 39.8152 26.5405 39.8601C26.4963 39.905 26.4439 39.9405 26.3863 39.9646C26.3287 39.9886 26.2671 40.0006 26.205 40ZM3.61678 0.0759384C2.67717 0.0767261 1.77625 0.46192 1.11171 1.14698C0.447172 1.83204 0.0733088 2.761 0.0721623 3.73002V36.27C0.0733081 37.2392 0.447125 38.1683 1.11162 38.8536C1.77612 39.5389 2.67704 39.9244 3.61678 39.9256H26.205C26.2585 39.9262 26.3115 39.9158 26.3611 39.8952C26.4106 39.8745 26.4557 39.8438 26.4937 39.805C26.5313 39.7659 26.561 39.7194 26.581 39.6683C26.6011 39.6172 26.6112 39.5625 26.6106 39.5074C26.6112 39.4525 26.6011 39.398 26.581 39.3472C26.5609 39.2963 26.5312 39.2502 26.4935 39.2113C26.4559 39.1725 26.4111 39.1418 26.3618 39.1211C26.3125 39.1004 26.2597 39.09 26.2065 39.0906H3.61678C2.88951 39.0906 2.19203 38.7926 1.67777 38.2623C1.16351 37.7319 0.874607 37.0126 0.874607 36.2626V3.72259C0.874607 2.97255 1.16351 2.25323 1.67777 1.72287C2.19203 1.19252 2.88951 0.894574 3.61678 0.894574H22.812C22.8651 0.895175 22.9179 0.884799 22.9671 0.864049C23.0163 0.843299 23.061 0.812588 23.0985 0.773748C23.136 0.734908 23.1656 0.688723 23.1856 0.637896C23.2055 0.58707 23.2154 0.532631 23.2146 0.477807C23.2154 0.423051 23.2055 0.368699 23.1856 0.317953C23.1656 0.267208 23.136 0.221097 23.0984 0.182374C23.0609 0.143652 23.0162 0.113094 22.967 0.0925088C22.9178 0.0719235 22.865 0.0617452 22.812 0.0625476L3.61678 0.0759384ZM29.5952 25.7662H29.5591C29.4388 25.7586 29.3259 25.7034 29.244 25.6122C29.162 25.5211 29.1172 25.4008 29.1189 25.2765V7.47789C29.1184 7.41322 29.1303 7.34908 29.154 7.28922C29.1777 7.22935 29.2128 7.17496 29.2571 7.12923C29.3015 7.08351 29.3542 7.04735 29.4123 7.02287C29.4703 6.9984 29.5325 6.9861 29.5952 6.9867C29.6579 6.9861 29.72 6.99842 29.7779 7.02291C29.8359 7.0474 29.8885 7.08358 29.9328 7.12933C29.977 7.17508 30.0119 7.22947 30.0355 7.28932C30.0591 7.34918 30.0708 7.41329 30.07 7.47789V25.2691C30.0694 25.3984 30.0201 25.5224 29.9327 25.6151C29.8452 25.7078 29.7263 25.762 29.601 25.7662H29.5952ZM29.5952 7.05963C29.542 7.05903 29.4892 7.0694 29.4399 7.09013C29.3906 7.11087 29.3458 7.14154 29.3082 7.18036C29.2705 7.21918 29.2408 7.26536 29.2207 7.3162C29.2006 7.36703 29.1905 7.4215 29.1911 7.4764V25.275C29.1905 25.3299 29.2006 25.3844 29.2207 25.4352C29.2408 25.486 29.2705 25.5322 29.3082 25.571C29.3458 25.6099 29.3906 25.6405 29.4399 25.6613C29.4892 25.682 29.542 25.6924 29.5952 25.6918H29.6169C29.7215 25.685 29.8197 25.6373 29.8916 25.5585C29.9634 25.4797 30.0035 25.3757 30.0036 25.2676V7.4764C30.0044 7.42157 29.9945 7.36715 29.9746 7.31632C29.9547 7.2655 29.9251 7.21929 29.8875 7.18045C29.85 7.14161 29.8053 7.11092 29.7561 7.09017C29.7069 7.06942 29.6541 7.05903 29.601 7.05963H29.5952Z" fill="#010101"/>
<path d="M29.6009 7.93037H24.5164C23.9496 7.92997 23.4061 7.6976 23.0054 7.28429C22.6046 6.87097 22.3793 6.31051 22.3789 5.726V0.49121C22.3785 0.401526 22.4044 0.313791 22.453 0.239456C22.5017 0.165122 22.5709 0.107625 22.6517 0.074443C22.7325 0.0383616 22.8221 0.0285707 22.9085 0.0463896C22.9949 0.0642086 23.074 0.108796 23.1352 0.174174L29.9054 7.15935C29.9671 7.22173 30.0092 7.30168 30.0264 7.38894C30.0437 7.4762 30.0352 7.56679 30.0021 7.64905C29.97 7.73237 29.9142 7.80377 29.8421 7.85395C29.77 7.90412 29.685 7.93075 29.598 7.93037H29.6009ZM23.2665 1.58965V5.73494C23.2663 5.90531 23.2987 6.07404 23.3618 6.2315C23.4249 6.38896 23.5174 6.53205 23.6342 6.6526C23.7509 6.77314 23.8896 6.86877 24.0422 6.93402C24.1948 6.99926 24.3584 7.03284 24.5236 7.03284H28.5445L23.2665 1.58965Z" fill="#010101"/>
<path d="M29.6009 7.96757H24.5163C23.9401 7.96678 23.3877 7.73036 22.9802 7.31015C22.5728 6.88994 22.3435 6.32025 22.3428 5.72599V0.4912C22.3422 0.395565 22.3694 0.301924 22.4208 0.222349C22.4723 0.142774 22.5456 0.0809051 22.6314 0.0446718C22.7189 0.00620001 22.8155 -0.0041567 22.9087 0.014965C23.0019 0.0340867 23.0874 0.0817914 23.1539 0.151834L29.927 7.13701C29.9935 7.20498 30.0389 7.29179 30.0574 7.38641C30.0759 7.48102 30.0667 7.57918 30.031 7.66839C29.9947 7.75609 29.9344 7.83097 29.8575 7.88384C29.7806 7.93672 29.6904 7.96531 29.598 7.96608L29.6009 7.96757ZM22.8176 0.0789027C22.7636 0.0789813 22.7101 0.0901069 22.6603 0.111644C22.5855 0.141207 22.5213 0.193745 22.4764 0.262158C22.4315 0.330571 22.408 0.411552 22.4092 0.494162V5.72897C22.4118 6.30309 22.6352 6.8527 23.0302 7.25728C23.4252 7.66185 23.9596 7.88838 24.5163 7.88719H29.6009C29.6806 7.88675 29.7584 7.86191 29.8245 7.8158C29.8905 7.76969 29.9418 7.7044 29.9718 7.6282C30.0015 7.55312 30.009 7.47066 29.9933 7.3912C29.9776 7.31174 29.9395 7.23883 29.8837 7.18167L23.1106 0.196476C23.034 0.118778 22.9308 0.0754508 22.8234 0.075923L22.8176 0.0789027ZM28.6267 7.07451H24.525C24.1805 7.07451 23.8501 6.93337 23.6065 6.68215C23.3629 6.43093 23.226 6.09021 23.226 5.73493V1.49885L28.6267 7.07451ZM23.2982 1.68341V5.73938C23.2982 6.07348 23.4268 6.39393 23.6557 6.63031C23.8847 6.86669 24.1952 6.9997 24.5192 7.00009H28.4621L23.2982 1.68341Z" fill="#010101"/>
<path d="M25.3089 13.0565H15.0171C14.9596 13.0575 14.9026 13.0467 14.8492 13.0247C14.7958 13.0027 14.7472 12.9699 14.7063 12.9284C14.6653 12.8868 14.6327 12.8373 14.6105 12.7826C14.5883 12.7279 14.5769 12.6693 14.5769 12.61C14.5769 12.5507 14.5883 12.492 14.6105 12.4374C14.6327 12.3827 14.6653 12.3331 14.7063 12.2916C14.7472 12.25 14.7958 12.2173 14.8492 12.1953C14.9026 12.1733 14.9596 12.1625 15.0171 12.1635H25.3089C25.4237 12.1635 25.5338 12.2105 25.615 12.2942C25.6962 12.378 25.7419 12.4916 25.7419 12.61C25.7419 12.7284 25.6962 12.842 25.615 12.9257C25.5338 13.0095 25.4237 13.0565 25.3089 13.0565Z" fill="#010101"/>
<path d="M25.3089 13.0967H15.0171C14.9544 13.0973 14.8922 13.085 14.8341 13.0605C14.7761 13.0361 14.7233 12.9999 14.679 12.9542C14.6347 12.9084 14.5996 12.854 14.5759 12.7942C14.5521 12.7343 14.5402 12.6702 14.5408 12.6055C14.5402 12.5408 14.5521 12.4767 14.5759 12.4168C14.5996 12.357 14.6347 12.3026 14.679 12.2569C14.7233 12.2111 14.7761 12.175 14.8341 12.1505C14.8922 12.126 14.9544 12.1137 15.0171 12.1143H25.3089C25.3715 12.1137 25.4336 12.126 25.4916 12.1505C25.5496 12.175 25.6022 12.2112 25.6464 12.257C25.6906 12.3027 25.7256 12.3571 25.7491 12.417C25.7727 12.4768 25.7845 12.5409 25.7837 12.6055C25.7845 12.6701 25.7727 12.7342 25.7491 12.7941C25.7256 12.8539 25.6906 12.9083 25.6464 12.9541C25.6022 12.9998 25.5496 13.036 25.4916 13.0605C25.4336 13.085 25.3715 13.0973 25.3089 13.0967ZM15.0171 12.1888C14.9638 12.1882 14.911 12.1985 14.8617 12.2193C14.8124 12.24 14.7677 12.2707 14.73 12.3095C14.6924 12.3483 14.6626 12.3945 14.6425 12.4453C14.6224 12.4962 14.6124 12.5506 14.613 12.6055C14.6124 12.6604 14.6224 12.7149 14.6425 12.7657C14.6626 12.8165 14.6924 12.8627 14.73 12.9015C14.7677 12.9404 14.8124 12.971 14.8617 12.9918C14.911 13.0125 14.9638 13.0229 15.0171 13.0223H25.3089C25.362 13.0229 25.4148 13.0125 25.464 12.9918C25.5132 12.971 25.5579 12.9403 25.5954 12.9015C25.6329 12.8626 25.6625 12.8164 25.6825 12.7656C25.7024 12.7148 25.7123 12.6603 25.7115 12.6055C25.7123 12.5507 25.7024 12.4963 25.6825 12.4454C25.6625 12.3946 25.6329 12.3484 25.5954 12.3096C25.5579 12.2707 25.5132 12.24 25.464 12.2193C25.4148 12.1985 25.362 12.1882 25.3089 12.1888H15.0171Z" fill="#010101"/>
<path d="M25.3089 17.4131H15.0171C14.9596 17.4141 14.9026 17.4033 14.8492 17.3813C14.7958 17.3593 14.7472 17.3266 14.7063 17.285C14.6653 17.2434 14.6327 17.1939 14.6105 17.1392C14.5883 17.0846 14.5769 17.0259 14.5769 16.9666C14.5769 16.9073 14.5883 16.8487 14.6105 16.794C14.6327 16.7393 14.6653 16.6898 14.7063 16.6482C14.7472 16.6066 14.7958 16.5739 14.8492 16.5519C14.9026 16.5299 14.9596 16.5191 15.0171 16.5201H25.3089C25.4237 16.5201 25.5338 16.5671 25.615 16.6509C25.6962 16.7346 25.7419 16.8482 25.7419 16.9666C25.7419 17.085 25.6962 17.1986 25.615 17.2824C25.5338 17.3661 25.4237 17.4131 25.3089 17.4131Z" fill="#010101"/>
<path d="M25.3089 17.4473H15.0171C14.9544 17.4481 14.8923 17.436 14.8342 17.4117C14.7762 17.3874 14.7234 17.3514 14.6791 17.3058C14.6347 17.2602 14.5996 17.2059 14.5759 17.1461C14.5521 17.0863 14.5402 17.0222 14.5408 16.9576C14.5402 16.893 14.5521 16.8288 14.5759 16.769C14.5996 16.7091 14.6347 16.6547 14.679 16.609C14.7233 16.5633 14.7761 16.5271 14.8341 16.5026C14.8922 16.4782 14.9544 16.4659 15.0171 16.4665H25.3089C25.3715 16.4659 25.4336 16.4782 25.4916 16.5026C25.5496 16.5271 25.6022 16.5633 25.6464 16.6091C25.6906 16.6548 25.7256 16.7092 25.7491 16.7691C25.7727 16.8289 25.7845 16.893 25.7837 16.9576C25.7845 17.0222 25.7727 17.0862 25.7491 17.146C25.7255 17.2057 25.6906 17.26 25.6463 17.3057C25.6021 17.3513 25.5494 17.3873 25.4915 17.4117C25.4335 17.436 25.3714 17.4481 25.3089 17.4473ZM15.0171 16.5409C14.9638 16.5403 14.911 16.5506 14.8617 16.5714C14.8124 16.5921 14.7677 16.6228 14.73 16.6616C14.6924 16.7004 14.6626 16.7466 14.6425 16.7974C14.6224 16.8483 14.6124 16.9027 14.613 16.9576C14.6124 17.0124 14.6224 17.0668 14.6426 17.1176C14.6627 17.1684 14.6924 17.2144 14.7301 17.2531C14.7678 17.2918 14.8126 17.3224 14.8618 17.3429C14.9111 17.3635 14.9639 17.3737 15.0171 17.3729H25.3089C25.3619 17.3737 25.4147 17.3635 25.4639 17.3429C25.5131 17.3223 25.5578 17.2918 25.5953 17.2531C25.6329 17.2143 25.6625 17.1682 25.6825 17.1175C25.7024 17.0667 25.7123 17.0124 25.7115 16.9576C25.7123 16.9028 25.7024 16.8484 25.6825 16.7976C25.6625 16.7467 25.6329 16.7005 25.5954 16.6617C25.5579 16.6228 25.5132 16.5921 25.464 16.5714C25.4148 16.5506 25.362 16.5403 25.3089 16.5409H15.0171Z" fill="#010101"/>
<path d="M25.3089 21.7653H15.0171C14.9596 21.7663 14.9026 21.7555 14.8492 21.7335C14.7958 21.7115 14.7472 21.6787 14.7063 21.6372C14.6653 21.5956 14.6327 21.5461 14.6105 21.4914C14.5883 21.4367 14.5769 21.3781 14.5769 21.3188C14.5769 21.2595 14.5883 21.2008 14.6105 21.1462C14.6327 21.0915 14.6653 21.0419 14.7063 21.0004C14.7472 20.9588 14.7958 20.9261 14.8492 20.9041C14.9026 20.8821 14.9596 20.8713 15.0171 20.8723H25.3089C25.4237 20.8723 25.5338 20.9193 25.615 21.003C25.6962 21.0868 25.7419 21.2004 25.7419 21.3188C25.7419 21.4372 25.6962 21.5508 25.615 21.6345C25.5338 21.7183 25.4237 21.7653 25.3089 21.7653Z" fill="#010101"/>
<path d="M25.3089 21.8025H15.0171C14.9544 21.8031 14.8922 21.7908 14.8341 21.7663C14.7761 21.7419 14.7233 21.7057 14.679 21.66C14.6347 21.6142 14.5996 21.5599 14.5759 21.5C14.5521 21.4401 14.5402 21.376 14.5408 21.3113C14.5402 21.2467 14.5521 21.1825 14.5759 21.1227C14.5996 21.0628 14.6347 21.0084 14.679 20.9627C14.7233 20.917 14.7761 20.8808 14.8341 20.8563C14.8922 20.8319 14.9544 20.8196 15.0171 20.8202H25.3089C25.3715 20.8196 25.4336 20.8319 25.4916 20.8563C25.5496 20.8808 25.6022 20.917 25.6464 20.9628C25.6906 21.0085 25.7256 21.0629 25.7491 21.1228C25.7727 21.1826 25.7845 21.2467 25.7837 21.3113C25.7845 21.3759 25.7727 21.44 25.7491 21.4999C25.7256 21.5597 25.6906 21.6141 25.6464 21.6599C25.6022 21.7056 25.5496 21.7418 25.4916 21.7663C25.4336 21.7908 25.3715 21.8031 25.3089 21.8025ZM15.0171 20.8946C14.9638 20.894 14.911 20.9043 14.8617 20.9251C14.8124 20.9458 14.7677 20.9765 14.73 21.0153C14.6924 21.0541 14.6626 21.1003 14.6425 21.1511C14.6224 21.202 14.6124 21.2564 14.613 21.3113C14.6124 21.3662 14.6224 21.4207 14.6425 21.4715C14.6626 21.5224 14.6924 21.5685 14.73 21.6074C14.7677 21.6462 14.8124 21.6768 14.8617 21.6976C14.911 21.7183 14.9638 21.7287 15.0171 21.7281H25.3089C25.362 21.7287 25.4148 21.7183 25.464 21.6976C25.5132 21.6768 25.5579 21.6461 25.5954 21.6073C25.6329 21.5684 25.6625 21.5222 25.6825 21.4714C25.7024 21.4206 25.7123 21.3661 25.7115 21.3113C25.7123 21.2565 25.7024 21.2021 25.6825 21.1512C25.6625 21.1004 25.6329 21.0542 25.5954 21.0154C25.5579 20.9765 25.5132 20.9458 25.464 20.9251C25.4148 20.9043 25.362 20.894 25.3089 20.8946H15.0171Z" fill="#010101"/>
<path d="M22.1595 26.1294H4.7251C4.66764 26.1304 4.61056 26.1195 4.55719 26.0975C4.50383 26.0755 4.45524 26.0428 4.41427 26.0013C4.3733 25.9597 4.34076 25.9101 4.31855 25.8555C4.29634 25.8008 4.2849 25.7421 4.28491 25.6828C4.2849 25.6236 4.29634 25.5649 4.31855 25.5102C4.34076 25.4556 4.3733 25.406 4.41427 25.3644C4.45524 25.3229 4.50383 25.2901 4.55719 25.2681C4.61056 25.2461 4.66764 25.2353 4.7251 25.2363H22.1595C22.2743 25.2363 22.3845 25.2834 22.4657 25.3671C22.5469 25.4509 22.5925 25.5644 22.5925 25.6828C22.5903 25.8006 22.5439 25.9128 22.4632 25.9961C22.3825 26.0793 22.2737 26.1271 22.1595 26.1294Z" fill="#010101"/>
<path d="M22.1595 26.1665H4.72364C4.66101 26.1671 4.59888 26.1548 4.54092 26.1303C4.48295 26.1058 4.43031 26.0697 4.38608 26.0239C4.34185 25.9782 4.30693 25.9238 4.28336 25.8639C4.25979 25.8041 4.24804 25.74 4.24881 25.6754C4.24804 25.6108 4.25979 25.5466 4.28336 25.4868C4.30693 25.4269 4.34185 25.3725 4.38608 25.3268C4.43031 25.281 4.48295 25.2449 4.54092 25.2204C4.59888 25.1959 4.66101 25.1836 4.72364 25.1842H22.1595C22.2221 25.1836 22.2843 25.1959 22.3422 25.2204C22.4002 25.2449 22.4528 25.281 22.4971 25.3268C22.5413 25.3725 22.5762 25.4269 22.5998 25.4868C22.6234 25.5466 22.6351 25.6108 22.6343 25.6754C22.6343 25.8054 22.5844 25.9301 22.4953 26.0221C22.4063 26.1142 22.2856 26.1661 22.1595 26.1665ZM4.72364 25.2586C4.67054 25.2582 4.61788 25.2687 4.56876 25.2895C4.51964 25.3103 4.47503 25.3411 4.43754 25.3799C4.40005 25.4187 4.37044 25.4648 4.35043 25.5155C4.33041 25.5662 4.3204 25.6206 4.32098 25.6754C4.3204 25.7301 4.33041 25.7845 4.35043 25.8352C4.37044 25.8859 4.40005 25.932 4.43754 25.9708C4.47503 26.0096 4.51964 26.0403 4.56876 26.0612C4.61788 26.082 4.67054 26.0925 4.72364 26.0921H22.1595C22.2664 26.0917 22.3688 26.0476 22.4443 25.9695C22.5198 25.8914 22.5622 25.7856 22.5622 25.6754C22.5629 25.6205 22.5531 25.5661 22.5331 25.5153C22.5132 25.4644 22.4836 25.4183 22.446 25.3794C22.4085 25.3406 22.3638 25.3099 22.3146 25.2891C22.2654 25.2684 22.2127 25.258 22.1595 25.2586H4.72364Z" fill="#010101"/>
<path d="M19.133 30.483H4.7251C4.66764 30.484 4.61056 30.4732 4.55719 30.4512C4.50383 30.4292 4.45524 30.3965 4.41427 30.3549C4.3733 30.3133 4.34076 30.2638 4.31855 30.2091C4.29634 30.1544 4.2849 30.0958 4.28491 30.0365C4.2849 29.9772 4.29634 29.9185 4.31855 29.8639C4.34076 29.8092 4.3733 29.7597 4.41427 29.7181C4.45524 29.6765 4.50383 29.6438 4.55719 29.6218C4.61056 29.5998 4.66764 29.589 4.7251 29.59H19.133C19.2479 29.59 19.358 29.637 19.4392 29.7207C19.5204 29.8045 19.566 29.9181 19.566 30.0365C19.5638 30.1542 19.5175 30.2665 19.4367 30.3497C19.356 30.433 19.2472 30.4807 19.133 30.483Z" fill="#010101"/>
<path d="M19.133 30.5202H4.72364C4.66101 30.5208 4.59888 30.5085 4.54092 30.484C4.48295 30.4595 4.43031 30.4234 4.38608 30.3776C4.34185 30.3319 4.30693 30.2775 4.28336 30.2176C4.25979 30.1577 4.24804 30.0936 4.24881 30.029C4.24804 29.9644 4.25979 29.9003 4.28336 29.8405C4.30693 29.7806 4.34185 29.7262 4.38608 29.6805C4.43031 29.6347 4.48295 29.5985 4.54092 29.5741C4.59888 29.5496 4.66101 29.5373 4.72364 29.5379H19.133C19.1957 29.5373 19.2579 29.5496 19.316 29.574C19.374 29.5985 19.4267 29.6347 19.4711 29.6804C19.5154 29.7261 19.5505 29.7805 19.5742 29.8404C19.5979 29.9002 19.6099 29.9644 19.6093 30.029C19.6093 30.1593 19.5591 30.2842 19.4698 30.3764C19.3805 30.4685 19.2593 30.5202 19.133 30.5202ZM4.72364 29.6182C4.67054 29.6178 4.61788 29.6284 4.56876 29.6492C4.51964 29.67 4.47503 29.7007 4.43754 29.7395C4.40005 29.7783 4.37044 29.8244 4.35043 29.8751C4.33041 29.9259 4.3204 29.9802 4.32098 30.035C4.3204 30.0898 4.33041 30.1441 4.35043 30.1948C4.37044 30.2456 4.40005 30.2917 4.43754 30.3305C4.47503 30.3693 4.51964 30.4 4.56876 30.4208C4.61788 30.4416 4.67054 30.4521 4.72364 30.4518H19.133C19.1861 30.4518 19.2386 30.441 19.2877 30.42C19.3367 30.3991 19.3812 30.3684 19.4188 30.3297C19.4563 30.291 19.4861 30.245 19.5064 30.1945C19.5267 30.1439 19.5371 30.0897 19.5371 30.035C19.5377 29.9801 19.5276 29.9256 19.5075 29.8748C19.4874 29.824 19.4577 29.7778 19.4201 29.739C19.3824 29.7001 19.3376 29.6695 19.2883 29.6487C19.2391 29.628 19.1862 29.6176 19.133 29.6182H4.72364Z" fill="#010101"/>
<path d="M19.273 34.8367H4.7251C4.66764 34.8376 4.61056 34.8268 4.55719 34.8048C4.50383 34.7828 4.45524 34.7501 4.41427 34.7085C4.3733 34.667 4.34076 34.6174 4.31855 34.5628C4.29634 34.5081 4.2849 34.4494 4.28491 34.3901C4.2849 34.3309 4.29634 34.2722 4.31855 34.2175C4.34076 34.1628 4.3733 34.1133 4.41427 34.0717C4.45524 34.0302 4.50383 33.9974 4.55719 33.9754C4.61056 33.9534 4.66764 33.9426 4.7251 33.9436H19.273C19.3879 33.9436 19.498 33.9906 19.5792 34.0744C19.6604 34.1581 19.706 34.2717 19.706 34.3901C19.7041 34.508 19.6579 34.6204 19.5771 34.7038C19.4963 34.7871 19.3873 34.8347 19.273 34.8367Z" fill="#010101"/>
<path d="M19.273 34.8738H4.72364C4.66107 34.8746 4.59898 34.8625 4.54102 34.8382C4.48306 34.8139 4.43041 34.7778 4.38616 34.7322C4.34192 34.6866 4.30697 34.6323 4.28338 34.5725C4.25979 34.5127 4.24804 34.4487 4.24882 34.3842C4.24804 34.3196 4.25979 34.2554 4.28336 34.1956C4.30693 34.1357 4.34185 34.0813 4.38608 34.0356C4.43031 33.9898 4.48295 33.9537 4.54092 33.9292C4.59888 33.9047 4.66101 33.8924 4.72364 33.893H19.273C19.3357 33.8924 19.3979 33.9047 19.456 33.9291C19.514 33.9536 19.5667 33.9898 19.6111 34.0355C19.6554 34.0812 19.6905 34.1356 19.7142 34.1955C19.7379 34.2553 19.7499 34.3195 19.7493 34.3842C19.7489 34.5142 19.6986 34.6387 19.6093 34.7305C19.52 34.8223 19.3991 34.8738 19.273 34.8738ZM4.72364 33.9674C4.67054 33.967 4.61788 33.9775 4.56876 33.9983C4.51964 34.0192 4.47503 34.0499 4.43754 34.0887C4.40005 34.1275 4.37044 34.1736 4.35043 34.2243C4.33041 34.275 4.3204 34.3294 4.32098 34.3842C4.32059 34.4388 4.33075 34.493 4.35085 34.5435C4.37095 34.5941 4.40059 34.64 4.43806 34.6787C4.47553 34.7173 4.52007 34.7479 4.5691 34.7686C4.61812 34.7893 4.67066 34.7998 4.72364 34.7994H19.273C19.326 34.7996 19.3785 34.789 19.4275 34.7682C19.4766 34.7475 19.5211 34.7169 19.5587 34.6783C19.5962 34.6397 19.626 34.5939 19.6463 34.5434C19.6667 34.4929 19.6771 34.4388 19.6771 34.3842C19.6777 34.3293 19.6676 34.2748 19.6475 34.224C19.6274 34.1731 19.5977 34.1269 19.5601 34.0881C19.5224 34.0493 19.4776 34.0186 19.4283 33.9979C19.3791 33.9772 19.3262 33.9668 19.273 33.9674H4.72364Z" fill="#010101"/>
<path d="M18.2887 7.93037H4.72223C4.66477 7.93136 4.60769 7.92054 4.55432 7.89854C4.50096 7.87654 4.45237 7.84381 4.4114 7.80224C4.37042 7.76068 4.33789 7.71112 4.31568 7.65645C4.29347 7.60179 4.28204 7.54312 4.28204 7.48385V4.2733C4.28107 4.2134 4.29179 4.15391 4.31356 4.09838C4.33534 4.04285 4.36773 3.99241 4.4088 3.95005C4.44987 3.90769 4.49878 3.8743 4.55263 3.85184C4.60648 3.82939 4.66416 3.81833 4.72223 3.81934H18.2887C18.3462 3.81933 18.4031 3.83112 18.4561 3.85402C18.5091 3.87693 18.5572 3.91048 18.5975 3.95274C18.6378 3.99499 18.6695 4.04511 18.6909 4.10014C18.7122 4.15518 18.7227 4.21404 18.7217 4.2733V7.48385C18.7199 7.60167 18.6737 7.71414 18.5929 7.79747C18.5121 7.88079 18.403 7.92846 18.2887 7.93037ZM5.16387 7.02391H17.8486V4.71983H5.16387V7.02391Z" fill="#010101"/>
<path d="M18.2889 7.96759H4.72242C4.65978 7.96819 4.59766 7.95587 4.53969 7.93138C4.48173 7.90688 4.42909 7.87071 4.38486 7.82496C4.34063 7.77921 4.30571 7.72481 4.28214 7.66496C4.25857 7.6051 4.24682 7.541 4.24759 7.4764V4.26587C4.24682 4.20127 4.25857 4.13716 4.28214 4.07731C4.30571 4.01745 4.34063 3.96306 4.38486 3.91731C4.42909 3.87156 4.48173 3.83536 4.53969 3.81087C4.59766 3.78638 4.65978 3.77408 4.72242 3.77468H18.2889C18.3516 3.77408 18.4137 3.78638 18.4717 3.81087C18.5296 3.83536 18.5823 3.87156 18.6265 3.91731C18.6707 3.96306 18.7057 4.01745 18.7292 4.07731C18.7528 4.13716 18.7645 4.20127 18.7638 4.26587V7.4764C18.764 7.54083 18.7518 7.60467 18.728 7.66425C18.7043 7.72383 18.6693 7.778 18.6252 7.82363C18.5811 7.86926 18.5287 7.90546 18.471 7.93016C18.4133 7.95486 18.3514 7.96759 18.2889 7.96759ZM4.72242 3.8491C4.66931 3.8487 4.61666 3.85922 4.56754 3.88004C4.51841 3.90086 4.47381 3.93156 4.43632 3.97036C4.39883 4.00916 4.36922 4.05528 4.3492 4.10601C4.32919 4.15675 4.31918 4.2111 4.31976 4.26587V7.4764C4.31918 7.53117 4.32919 7.58552 4.3492 7.63625C4.36922 7.68699 4.39883 7.73309 4.43632 7.77189C4.47381 7.81068 4.51841 7.8414 4.56754 7.86222C4.61666 7.88304 4.66931 7.89356 4.72242 7.89317H18.2889C18.3419 7.89317 18.3944 7.88237 18.4434 7.86141C18.4923 7.84044 18.5368 7.80971 18.5742 7.77099C18.6116 7.73228 18.6412 7.68633 18.6614 7.63578C18.6815 7.58522 18.6918 7.53106 18.6916 7.4764V4.26587C18.6924 4.21104 18.6825 4.1566 18.6626 4.10578C18.6426 4.05495 18.613 4.00877 18.5755 3.96993C18.538 3.93109 18.4933 3.90037 18.4441 3.87962C18.3948 3.85888 18.3421 3.8485 18.2889 3.8491H4.72242ZM17.8834 7.06112H5.12798V4.67964H17.8848L17.8834 7.06112ZM5.19869 6.9867H17.8112V4.75406H5.20014L5.19869 6.9867Z" fill="#010101"/>
<path d="M5.90299 21.2562C5.82566 21.2568 5.7497 21.2352 5.68361 21.1937C5.63335 21.1645 5.58927 21.1251 5.55397 21.078C5.51867 21.0309 5.49287 20.9769 5.47808 20.9194C5.46328 20.8618 5.4598 20.8018 5.46784 20.7428C5.47587 20.6839 5.49526 20.6272 5.52486 20.576L10.1692 12.2751C10.1977 12.2234 10.236 12.178 10.2817 12.1418C10.3275 12.1055 10.3798 12.0791 10.4356 12.064C10.4914 12.0489 10.5496 12.0454 10.6067 12.0538C10.6638 12.0622 10.7187 12.0823 10.7682 12.1128C10.8181 12.1423 10.8619 12.1817 10.8969 12.2287C10.9319 12.2758 10.9575 12.3295 10.9722 12.3869C10.9868 12.4443 10.9902 12.5041 10.9822 12.5628C10.9742 12.6216 10.9549 12.6781 10.9255 12.7291L6.28112 21.03C6.24322 21.0989 6.18822 21.1562 6.12177 21.196C6.05532 21.2357 5.97981 21.2565 5.90299 21.2562Z" fill="#010101"/>
<path d="M5.90292 21.2934C5.81845 21.2939 5.73551 21.2702 5.66334 21.225C5.6094 21.1929 5.56221 21.1501 5.52454 21.099C5.48687 21.0478 5.45947 20.9895 5.44396 20.9273C5.41212 20.8019 5.42977 20.6687 5.49304 20.5567L10.1331 12.2572C10.1641 12.2014 10.2057 12.1525 10.2552 12.1134C10.3048 12.0743 10.3614 12.0458 10.4217 12.0295C10.4819 12.0129 10.5446 12.0088 10.6063 12.0175C10.668 12.0262 10.7274 12.0475 10.7811 12.0801C10.8352 12.1121 10.8826 12.1549 10.9205 12.2061C10.9584 12.2572 10.9861 12.3155 11.0019 12.3778C11.018 12.4398 11.0219 12.5045 11.0135 12.5682C11.0051 12.6318 10.9845 12.6931 10.9528 12.7484L6.30847 21.0494C6.26752 21.1231 6.20851 21.1845 6.13733 21.2273C6.06616 21.2701 5.98532 21.2929 5.90292 21.2934ZM10.5458 12.0875C10.5118 12.0876 10.4778 12.0921 10.4448 12.1009C10.3938 12.115 10.346 12.1394 10.3042 12.1726C10.2623 12.2058 10.2272 12.2472 10.2009 12.2944L5.55654 20.5954C5.52942 20.6421 5.51162 20.694 5.50419 20.7479C5.49675 20.8018 5.49983 20.8567 5.51324 20.9094C5.52692 20.962 5.55054 21.0113 5.58274 21.0545C5.61493 21.0977 5.65508 21.1339 5.70086 21.161C5.76156 21.1996 5.83161 21.2197 5.90292 21.219C5.97328 21.2194 6.04247 21.2005 6.10336 21.1641C6.16425 21.1277 6.21463 21.0753 6.2493 21.0121L10.8937 12.7112C10.9208 12.6644 10.9386 12.6126 10.946 12.5586C10.9534 12.5047 10.9504 12.4498 10.937 12.3971C10.9234 12.3443 10.8999 12.2947 10.8677 12.2512C10.8355 12.2078 10.7953 12.1714 10.7493 12.1441C10.6874 12.1073 10.6173 12.0878 10.5458 12.0875Z" fill="#010101"/>
<path d="M6.09204 15.7952C5.61189 15.7944 5.15163 15.5973 4.81212 15.2472C4.4726 14.897 4.28153 14.4224 4.28076 13.9272C4.2819 13.4317 4.47296 12.9568 4.81227 12.606C5.15158 12.2553 5.61161 12.0571 6.09204 12.0547C6.57256 12.0555 7.03319 12.2527 7.37298 12.6032C7.71276 12.9536 7.90399 13.4287 7.90475 13.9242C7.90437 14.4201 7.71331 14.8955 7.37349 15.2462C7.03366 15.597 6.57281 15.7944 6.09204 15.7952ZM6.09204 12.9553C5.84477 12.9553 5.60762 13.0566 5.43277 13.2369C5.25793 13.4172 5.1597 13.6618 5.1597 13.9168C5.16007 14.1721 5.25829 14.4169 5.43293 14.5978C5.60757 14.7788 5.84449 14.8812 6.09204 14.8828C6.33884 14.8812 6.57511 14.7794 6.74963 14.5994C6.92415 14.4194 7.02286 14.1758 7.02437 13.9212C7.02495 13.7946 7.00125 13.6691 6.95465 13.5519C6.90805 13.4347 6.83947 13.3282 6.75283 13.2384C6.6662 13.1487 6.56323 13.0775 6.44983 13.0289C6.33643 12.9803 6.21484 12.9553 6.09204 12.9553Z" fill="#010101"/>
<path d="M6.09196 15.8324C5.602 15.832 5.13219 15.6312 4.78559 15.2741C4.439 14.9169 4.24393 14.4325 4.24316 13.9272C4.24355 13.4217 4.43845 12.9369 4.78509 12.5795C5.13172 12.222 5.60175 12.021 6.09196 12.0206C6.58218 12.021 7.0522 12.222 7.39884 12.5795C7.74547 12.9369 7.94038 13.4217 7.94076 13.9272C7.94 14.4325 7.74492 14.9169 7.39833 15.2741C7.05174 15.6312 6.58193 15.832 6.09196 15.8324ZM6.09196 12.095C5.621 12.0958 5.16955 12.2891 4.83653 12.6325C4.50352 12.976 4.31609 13.4415 4.31533 13.9272C4.31647 14.4127 4.50407 14.8779 4.83704 15.221C5.17002 15.5641 5.62125 15.7572 6.09196 15.758C6.56279 15.7576 7.01424 15.5647 7.3473 15.2215C7.68036 14.8782 7.86783 14.4128 7.8686 13.9272C7.86822 13.4414 7.68091 12.9756 7.34781 12.6321C7.01471 12.2885 6.56304 12.0954 6.09196 12.095ZM6.09196 14.923C5.83524 14.9226 5.58914 14.8173 5.40761 14.63C5.22608 14.4428 5.12392 14.189 5.12354 13.9243C5.12392 13.6595 5.22608 13.4057 5.40761 13.2185C5.58914 13.0313 5.83524 12.9259 6.09196 12.9255C6.34869 12.9259 6.59478 13.0313 6.77632 13.2185C6.95785 13.4057 7.06 13.6595 7.06038 13.9243C7.0581 14.1877 6.95511 14.4396 6.77378 14.6252C6.59246 14.8109 6.34744 14.9152 6.09196 14.9156V14.923ZM6.09196 12.9999C5.85438 13.0003 5.62663 13.0978 5.45863 13.2711C5.29064 13.4444 5.19609 13.6793 5.19571 13.9243C5.19609 14.1693 5.29064 14.4042 5.45863 14.5774C5.62663 14.7507 5.85438 14.8482 6.09196 14.8486C6.32966 14.8486 6.55763 14.7512 6.72571 14.5779C6.89379 14.4045 6.98822 14.1694 6.98822 13.9243C6.98898 13.8023 6.96637 13.6814 6.92169 13.5685C6.877 13.4556 6.81113 13.3529 6.72785 13.2663C6.64456 13.1797 6.54552 13.111 6.43639 13.064C6.32727 13.017 6.21022 12.9927 6.09196 12.9925V12.9999Z" fill="#010101"/>
<path d="M10.3538 21.2562C9.87415 21.2547 9.41463 21.0573 9.07574 20.7072C8.73685 20.3572 8.54617 19.8829 8.54541 19.3883C8.54769 18.8932 8.7394 18.419 9.07886 18.0689C9.41832 17.7189 9.87807 17.5211 10.3581 17.5188C10.8387 17.5196 11.2993 17.7168 11.6391 18.0672C11.9789 18.4176 12.1701 18.8927 12.1708 19.3883C12.1712 19.6342 12.1244 19.8778 12.0332 20.105C11.9419 20.3322 11.808 20.5385 11.6391 20.7121C11.4703 20.8857 11.2698 21.0232 11.0492 21.1166C10.8286 21.21 10.5922 21.2574 10.3538 21.2562ZM10.3538 18.4178C10.1065 18.4178 9.86938 18.5191 9.69454 18.6994C9.51969 18.8798 9.42146 19.1243 9.42146 19.3793C9.42298 19.6339 9.52169 19.8775 9.69621 20.0575C9.87073 20.2375 10.107 20.3393 10.3538 20.3409C10.6006 20.3393 10.8369 20.2375 11.0114 20.0575C11.1859 19.8775 11.2846 19.6339 11.2861 19.3793C11.2869 19.2528 11.2633 19.1275 11.2167 19.0104C11.1701 18.8934 11.1015 18.7871 11.0148 18.6977C10.928 18.6082 10.825 18.5374 10.7115 18.4894C10.598 18.4414 10.4764 18.417 10.3538 18.4178Z" fill="#010101"/>
<path d="M10.3539 21.2934C9.86396 21.293 9.39415 21.0922 9.04756 20.7351C8.70096 20.3779 8.50589 19.8936 8.50513 19.3883C8.50589 18.8828 8.70092 18.3983 9.04747 18.0409C9.39402 17.6835 9.86383 17.4824 10.3539 17.4816C10.844 17.4824 11.3138 17.6835 11.6604 18.0409C12.0069 18.3983 12.202 18.8828 12.2027 19.3883C12.2049 19.6369 12.1589 19.8834 12.0674 20.1134C11.976 20.3435 11.8409 20.5523 11.6702 20.7278C11.4982 20.9076 11.2933 21.0502 11.0673 21.1473C10.8413 21.2445 10.5988 21.2941 10.3539 21.2934ZM10.3539 17.556C9.88285 17.5564 9.43118 17.7496 9.09808 18.0931C8.76498 18.4366 8.57767 18.9024 8.57729 19.3883C8.57805 19.8738 8.76553 20.3392 9.09859 20.6824C9.43165 21.0257 9.8831 21.2186 10.3539 21.219C10.5894 21.2196 10.8227 21.1718 11.0401 21.0782C11.2574 20.9847 11.4544 20.8474 11.6197 20.6743C11.7838 20.506 11.9136 20.3055 12.0014 20.0846C12.0891 19.8637 12.133 19.6269 12.1306 19.3883C12.1287 18.9035 11.9407 18.4392 11.6077 18.0969C11.2748 17.7547 10.824 17.5623 10.3539 17.5619V17.556ZM10.3539 20.384C10.0972 20.3836 9.8511 20.2783 9.66957 20.0911C9.48804 19.9038 9.38589 19.65 9.38551 19.3853C9.38589 19.1205 9.48804 18.8667 9.66957 18.6795C9.8511 18.4923 10.0972 18.3869 10.3539 18.3865C10.4833 18.3857 10.6115 18.4117 10.731 18.4628C10.8504 18.5139 10.9588 18.5892 11.0496 18.6842C11.138 18.7758 11.2077 18.8848 11.2546 19.0047C11.3014 19.1246 11.3245 19.253 11.3223 19.3823C11.3212 19.6465 11.2187 19.8996 11.0373 20.0862C10.8558 20.2727 10.6102 20.3777 10.3539 20.3781V20.384ZM10.3539 18.461C10.1163 18.4614 9.8886 18.5589 9.7206 18.7321C9.5526 18.9054 9.45805 19.1402 9.45767 19.3853C9.45805 19.6303 9.5526 19.8652 9.7206 20.0384C9.8886 20.2117 10.1163 20.3092 10.3539 20.3096C10.5915 20.3092 10.8193 20.2117 10.9873 20.0384C11.1553 19.8652 11.2498 19.6303 11.2502 19.3853C11.2522 19.2656 11.2309 19.1468 11.1875 19.0358C11.1441 18.9249 11.0795 18.824 10.9976 18.7393C10.9145 18.6496 10.8146 18.5781 10.704 18.5293C10.5933 18.4804 10.4743 18.4552 10.3539 18.455V18.461Z" fill="#010101"/>
<path d="M26.2049 39.9628C24.1482 39.9593 22.1767 39.1151 20.7224 37.6152C19.268 36.1154 18.4495 34.0821 18.446 31.961C18.4499 29.8403 19.2686 27.8076 20.723 26.3083C22.1773 24.809 24.1486 23.9654 26.2049 23.9622C28.2615 23.9654 30.233 24.8092 31.6874 26.3088C33.1418 27.8085 33.9604 29.8415 33.9638 31.9625C33.9604 34.0836 33.1418 36.1169 31.6875 37.6167C30.2332 39.1166 28.2617 39.9608 26.2049 39.9643V39.9628ZM26.2049 24.8672C24.3813 24.8703 22.6333 25.6189 21.344 26.9489C20.0546 28.2789 19.3291 30.0818 19.3264 31.9625C19.3291 33.8431 20.0547 35.6458 21.344 36.9756C22.6334 38.3053 24.3815 39.0536 26.2049 39.0564C28.0279 39.0528 29.7752 38.3042 31.064 36.9745C32.3527 35.6449 33.0779 33.8426 33.0806 31.9625C33.0779 30.0823 32.3528 28.2799 31.0641 26.95C29.7753 25.6201 28.028 24.8711 26.2049 24.8672Z" fill="#010101"/>
<path d="M26.2049 40C24.1388 39.9972 22.158 39.1496 20.697 37.6428C19.236 36.1361 18.4141 34.0933 18.4114 31.9625C18.4137 29.8315 19.2355 27.7885 20.6966 26.2817C22.1577 24.7749 24.1386 23.9274 26.2049 23.925C28.2712 23.9274 30.2522 24.7749 31.7132 26.2817C33.1743 27.7885 33.9961 29.8315 33.9984 31.9625C33.9958 34.0933 33.1738 36.1361 31.7128 37.6428C30.2518 39.1496 28.2711 39.9972 26.2049 40ZM26.2049 23.9979C24.1576 24.0003 22.1949 24.84 20.7471 26.3328C19.2993 27.8256 18.4848 29.8497 18.4821 31.961C18.4844 34.0726 19.2988 36.0971 20.7466 37.5902C22.1944 39.0833 24.1574 39.9232 26.2049 39.9256C28.2524 39.9232 30.2154 39.0833 31.6632 37.5902C33.111 36.0971 33.9254 34.0726 33.9277 31.961C33.925 29.8497 33.1105 27.8256 31.6627 26.3328C30.2149 24.84 28.2522 24.0003 26.2049 23.9979ZM26.2049 39.0935C24.3721 39.09 22.6153 38.3376 21.3193 37.001C20.0233 35.6644 19.2937 33.8527 19.2903 31.9625C19.2934 30.0721 20.0228 28.2599 21.3188 26.923C22.6149 25.5861 24.3718 24.8335 26.2049 24.8299C28.038 24.8335 29.7949 25.5861 31.091 26.923C32.387 28.2599 33.1164 30.0721 33.1195 31.9625C33.1161 33.8527 32.3865 35.6644 31.0905 37.001C29.7945 38.3376 28.0377 39.09 26.2049 39.0935ZM26.2049 24.9044C24.3919 24.9087 22.6545 25.654 21.3733 26.977C20.0921 28.2999 19.3716 30.0927 19.3697 31.9625C19.372 33.8333 20.0936 35.6268 21.3763 36.9497C22.659 38.2725 24.3981 39.0168 26.2121 39.0191C28.0261 39.0168 29.7652 38.2725 31.0479 36.9497C32.3306 35.6268 33.0523 33.8333 33.0546 31.9625C33.0526 30.0901 32.3302 28.2951 31.0459 26.9717C29.7616 25.6483 28.0204 24.9048 26.2049 24.9044Z" fill="#010101"/>
<path d="M26.2844 28.6507C26.227 28.6517 26.1699 28.6409 26.1165 28.6189C26.0632 28.5969 26.0146 28.5642 25.9736 28.5226C25.9326 28.481 25.9001 28.4315 25.8779 28.3768C25.8557 28.3222 25.8442 28.2635 25.8442 28.2042V26.8646C25.8442 26.8053 25.8557 26.7467 25.8779 26.692C25.9001 26.6373 25.9326 26.5878 25.9736 26.5462C26.0146 26.5046 26.0632 26.4719 26.1165 26.4499C26.1699 26.4279 26.227 26.4171 26.2844 26.4181C26.3993 26.4181 26.5094 26.4651 26.5906 26.5489C26.6718 26.6326 26.7174 26.7462 26.7174 26.8646V28.2042C26.7174 28.3226 26.6718 28.4362 26.5906 28.52C26.5094 28.6037 26.3993 28.6507 26.2844 28.6507Z" fill="#010101"/>
<path d="M26.2844 28.6879C26.2217 28.6885 26.1595 28.6762 26.1015 28.6518C26.0434 28.6273 25.9907 28.5911 25.9463 28.5454C25.902 28.4997 25.8669 28.4453 25.8432 28.3854C25.8195 28.3256 25.8075 28.2614 25.8081 28.1968V26.8572C25.8075 26.7925 25.8195 26.7284 25.8432 26.6685C25.8669 26.6086 25.902 26.5542 25.9463 26.5085C25.9907 26.4628 26.0434 26.4266 26.1015 26.4022C26.1595 26.3777 26.2217 26.3654 26.2844 26.366C26.3471 26.3654 26.4093 26.3777 26.4673 26.4022C26.5254 26.4266 26.5781 26.4628 26.6225 26.5085C26.6668 26.5542 26.7019 26.6086 26.7256 26.6685C26.7493 26.7284 26.7612 26.7925 26.7607 26.8572V28.1968C26.7612 28.2614 26.7493 28.3256 26.7256 28.3854C26.7019 28.4453 26.6668 28.4997 26.6225 28.5454C26.5781 28.5911 26.5254 28.6273 26.4673 28.6518C26.4093 28.6762 26.3471 28.6885 26.2844 28.6879ZM26.2844 26.4374C26.2312 26.4368 26.1784 26.4472 26.1291 26.4679C26.0798 26.4887 26.035 26.5193 25.9974 26.5582C25.9597 26.597 25.93 26.6432 25.9099 26.694C25.8898 26.7448 25.8797 26.7993 25.8803 26.8542V28.1938C25.8797 28.2487 25.8898 28.3031 25.9099 28.354C25.93 28.4048 25.9597 28.451 25.9974 28.4898C26.035 28.5286 26.0798 28.5593 26.1291 28.58C26.1784 28.6008 26.2312 28.6111 26.2844 28.6105C26.3376 28.6111 26.3904 28.6008 26.4397 28.58C26.489 28.5593 26.5338 28.5286 26.5714 28.4898C26.6091 28.451 26.6388 28.4048 26.6589 28.354C26.679 28.3031 26.6891 28.2487 26.6885 28.1938V26.8542C26.6891 26.7993 26.679 26.7448 26.6589 26.694C26.6388 26.6432 26.6091 26.597 26.5714 26.5582C26.5338 26.5193 26.489 26.4887 26.4397 26.4679C26.3904 26.4472 26.3376 26.4368 26.2844 26.4374Z" fill="#010101"/>
<path d="M26.1256 37.5069C26.0681 37.5079 26.011 37.497 25.9576 37.475C25.9043 37.453 25.8557 37.4203 25.8147 37.3787C25.7737 37.3372 25.7412 37.2876 25.719 37.233C25.6968 37.1783 25.6854 37.1196 25.6854 37.0603V35.7208C25.6844 35.6609 25.6951 35.6014 25.7169 35.5458C25.7387 35.4903 25.771 35.4399 25.8121 35.3975C25.8532 35.3551 25.9021 35.3217 25.956 35.2993C26.0098 35.2768 26.0675 35.2658 26.1256 35.2668C26.1836 35.2658 26.2413 35.2768 26.2952 35.2993C26.349 35.3217 26.3979 35.3551 26.439 35.3975C26.4801 35.4399 26.5124 35.4903 26.5342 35.5458C26.556 35.6014 26.5667 35.6609 26.5657 35.7208V37.0603C26.5638 37.1794 26.5166 37.293 26.4343 37.3765C26.3519 37.4601 26.2411 37.5069 26.1256 37.5069Z" fill="#010101"/>
<path d="M26.1257 37.55C26.0632 37.5508 26.0011 37.5387 25.9431 37.5144C25.8852 37.4901 25.8325 37.454 25.7883 37.4084C25.744 37.3627 25.7091 37.3085 25.6855 37.2487C25.6619 37.1889 25.6501 37.1249 25.6509 37.0603V35.7208C25.6501 35.6562 25.6619 35.592 25.6855 35.5322C25.709 35.4723 25.744 35.4179 25.7882 35.3722C25.8324 35.3264 25.8851 35.2903 25.943 35.2658C26.001 35.2413 26.0631 35.229 26.1257 35.2296C26.1884 35.229 26.2506 35.2413 26.3087 35.2657C26.3667 35.2902 26.4195 35.3264 26.4638 35.3721C26.5081 35.4178 26.5432 35.4722 26.5669 35.5321C26.5907 35.5919 26.6026 35.6561 26.602 35.7208V37.0603C26.6016 37.1903 26.5513 37.3149 26.462 37.4067C26.3727 37.4985 26.2518 37.55 26.1257 37.55ZM26.1257 35.301C26.0721 35.3 26.0188 35.3102 25.9691 35.3309C25.9193 35.3517 25.8741 35.3826 25.8363 35.4218C25.7984 35.461 25.7686 35.5077 25.7486 35.559C25.7287 35.6104 25.719 35.6654 25.7202 35.7208V37.0603C25.7196 37.115 25.7296 37.1693 25.7497 37.22C25.7697 37.2706 25.7993 37.3166 25.8368 37.3553C25.8743 37.394 25.919 37.4246 25.9681 37.4452C26.0172 37.4659 26.0698 37.4762 26.1229 37.4756C26.1766 37.4761 26.2298 37.4654 26.2794 37.4441C26.329 37.4229 26.3739 37.3916 26.4115 37.3521C26.4491 37.3129 26.4788 37.2664 26.4989 37.2153C26.5189 37.1642 26.529 37.1095 26.5284 37.0544V35.7148C26.5286 35.6603 26.5183 35.6063 26.4981 35.5559C26.4779 35.5055 26.4483 35.4597 26.4108 35.4212C26.3734 35.3828 26.3289 35.3523 26.28 35.3317C26.231 35.311 26.1786 35.3006 26.1257 35.301Z" fill="#010101"/>
<path d="M26.0204 36.1673H25.8977C24.9654 36.1227 23.8772 35.4692 23.9003 33.7858C23.904 33.6673 23.9517 33.5548 24.0337 33.4717C24.1157 33.3886 24.2255 33.3411 24.3405 33.3393C24.456 33.3393 24.5668 33.3861 24.6492 33.4696C24.7315 33.5531 24.7787 33.6667 24.7806 33.7858C24.772 35.0019 25.5023 35.2281 25.9352 35.2475C26.6482 35.2832 27.5012 34.8292 27.5632 34.1579V34.1401C27.7075 33.0416 26.3581 32.4522 25.9352 32.2885C25.3464 32.0712 23.5524 31.3954 23.9825 29.6584C24.3708 28.1253 25.6105 27.5895 26.6049 27.7443C27.1573 27.8198 27.6612 28.1094 28.014 28.5542C28.3668 28.9991 28.5421 29.5658 28.5042 30.1392C28.5028 30.199 28.4897 30.2579 28.4657 30.3124C28.4417 30.3669 28.4074 30.4159 28.3647 30.4564C28.322 30.497 28.2719 30.5283 28.2173 30.5484C28.1626 30.5686 28.1046 30.5772 28.0467 30.5738C27.9887 30.5723 27.9316 30.5588 27.8787 30.5341C27.8259 30.5094 27.7784 30.474 27.7391 30.4299C27.6998 30.3859 27.6695 30.3342 27.6499 30.2779C27.6303 30.2215 27.622 30.1617 27.6253 30.102C27.6546 29.7522 27.5519 29.4043 27.3388 29.1307C27.1256 28.857 26.8182 28.6787 26.4808 28.6329C25.8919 28.5421 25.1083 28.8145 24.8369 29.8757C24.7215 30.3386 24.7922 30.8834 26.2354 31.4177C26.8127 31.6365 28.6543 32.4701 28.4335 34.2309C28.3195 35.429 27.123 36.1658 26.0146 36.1658L26.0204 36.1673Z" fill="#010101"/>
<path d="M26.0202 36.2075H25.8975C24.9478 36.1613 23.8467 35.502 23.864 33.7932C23.8658 33.6636 23.9166 33.5398 24.0055 33.4481C24.0944 33.3564 24.2145 33.304 24.3402 33.3021C24.4666 33.3021 24.5877 33.3538 24.677 33.4459C24.7663 33.538 24.8165 33.663 24.8165 33.7932C24.8079 34.9914 25.5179 35.1998 25.9422 35.2177C26.6465 35.2549 27.4735 34.8098 27.5298 34.1624V34.1475C27.6612 33.119 26.4517 32.5355 25.9264 32.3316C24.3215 31.7362 23.6561 30.8432 23.9506 29.6524C24.3446 28.0955 25.606 27.5538 26.6119 27.7175C27.1732 27.7944 27.6852 28.0887 28.0438 28.5407C28.4024 28.9926 28.5809 29.5684 28.543 30.1511C28.5414 30.2157 28.5272 30.2794 28.5011 30.3382C28.4751 30.397 28.4378 30.4498 28.3914 30.4934C28.3453 30.5373 28.2912 30.5712 28.2322 30.5932C28.1732 30.6152 28.1106 30.6248 28.0479 30.6214C27.9852 30.6197 27.9234 30.6051 27.8663 30.5783C27.8091 30.5515 27.7578 30.5132 27.7152 30.4656C27.6727 30.418 27.6399 30.3621 27.6187 30.3011C27.5975 30.2402 27.5884 30.1755 27.5919 30.1109C27.6211 29.7702 27.5214 29.4312 27.3138 29.1646C27.1061 28.898 26.8065 28.7245 26.4777 28.6805C25.9004 28.5912 25.1412 28.8576 24.8742 29.8965C24.8021 30.1942 24.6505 30.8 26.2497 31.3939C26.827 31.6142 28.6945 32.47 28.4723 34.2457C28.3582 35.4722 27.1358 36.2075 26.0202 36.2075ZM24.3402 33.3795C24.2335 33.381 24.1316 33.4254 24.0561 33.5032C23.9807 33.5811 23.9376 33.6862 23.9361 33.7962C23.9188 35.4528 24.9825 36.0914 25.8989 36.136H26.0202C27.1026 36.136 28.2904 35.4261 28.403 34.2368C28.6195 32.5147 26.7923 31.6782 26.228 31.4639C24.7646 30.9206 24.6881 30.3565 24.8064 29.8772C25.0864 28.7906 25.8888 28.5123 26.4921 28.6061C26.8388 28.6523 27.1547 28.8351 27.3737 29.1162C27.5927 29.3972 27.6978 29.7547 27.6669 30.1139C27.664 30.1687 27.6718 30.2235 27.6898 30.2752C27.7078 30.3268 27.7356 30.3743 27.7717 30.4146C27.8077 30.455 27.8512 30.4875 27.8997 30.5103C27.9481 30.533 28.0005 30.5455 28.0537 30.547C28.1064 30.5495 28.1591 30.5412 28.2086 30.5225C28.2582 30.5039 28.3036 30.4753 28.3424 30.4383C28.3827 30.4007 28.4149 30.3547 28.437 30.3035C28.4591 30.2522 28.4707 30.1968 28.4708 30.1406C28.5061 29.5769 28.3329 29.0204 27.986 28.5831C27.6392 28.1459 27.1446 27.8605 26.6018 27.7845C25.6276 27.6356 24.4023 28.1581 24.0213 29.6703C23.5883 31.3865 25.3678 32.0414 25.9509 32.2572C26.4936 32.4671 27.7405 33.0714 27.602 34.1475V34.1609C27.5385 34.8515 26.6725 35.3248 25.9365 35.2861C25.5742 35.2713 24.7314 35.0956 24.7415 33.7888C24.74 33.6797 24.6972 33.5755 24.6222 33.4984C24.5472 33.4214 24.4461 33.3776 24.3402 33.3765V33.3795Z" fill="#010101"/>
</g>
<defs>
<clipPath id="clip0_760_2344">
<rect width="34" height="40" fill="white"/>
</clipPath>
</defs>
</svg>
