<svg width="42" height="40" viewBox="0 0 42 40" fill="none" xmlns="http://www.w3.org/2000/svg">
<g clip-path="url(#clip0_760_2333)">
<path d="M21.1138 0.0093806C21.1892 0.0221011 21.2624 0.0464842 21.3306 0.081683L41.6044 10.6496C41.7492 10.7248 41.8649 10.8474 41.9327 10.9976C42.0006 11.1478 42.0167 11.3168 41.9785 11.4774C41.9402 11.6381 41.8499 11.7809 41.722 11.883C41.5941 11.9851 41.4361 12.0404 41.2734 12.0402H38.4856L38.3201 16.2312C38.3126 16.4218 38.2326 16.602 38.0969 16.7339C37.9612 16.8658 37.7805 16.939 37.5927 16.9382H36.2356V28.9169H37.7872C37.885 28.9164 37.9819 28.9362 38.0721 28.9749C38.1622 29.0136 38.2437 29.0704 38.3116 29.142C38.3795 29.2136 38.4324 29.2984 38.4672 29.3913C38.5019 29.4843 38.5177 29.5834 38.5137 29.6828L38.3482 33.8166H41.2734C41.369 33.8162 41.4638 33.835 41.5522 33.872C41.6406 33.909 41.7209 33.9634 41.7885 34.0321C41.856 34.1008 41.9095 34.1825 41.9458 34.2723C41.9821 34.3622 42.0005 34.4585 42 34.5556V39.2679C41.9997 39.3645 41.9806 39.4601 41.9439 39.5492C41.9072 39.6383 41.8536 39.7192 41.7862 39.7873C41.7187 39.8554 41.6387 39.9093 41.5507 39.9459C41.4627 39.9826 41.3685 40.0013 41.2734 40.001H0.725708C0.534534 40.0003 0.351376 39.9229 0.216194 39.7855C0.0810127 39.6482 0.00477982 39.4621 0.0041275 39.2679V34.5556C0.00369263 34.4589 0.0220146 34.3631 0.0580521 34.2736C0.0940895 34.1842 0.147133 34.1028 0.214149 34.0341C0.281166 33.9655 0.36084 33.911 0.448616 33.8736C0.536396 33.8363 0.630554 33.8169 0.725708 33.8166H2.64056L2.81019 29.6239C2.81765 29.4345 2.89673 29.2552 3.03099 29.1235C3.16525 28.9918 3.34433 28.9178 3.53095 28.9169H4.89468V16.9382H3.33483C3.23726 16.9382 3.14069 16.9181 3.05094 16.8792C2.96119 16.8403 2.8801 16.7834 2.81255 16.7119C2.745 16.6403 2.69238 16.5557 2.65784 16.4629C2.62331 16.3702 2.60757 16.2714 2.61159 16.1723L2.77709 12.041H0.725708C0.563061 12.0413 0.405052 11.9859 0.277153 11.8838C0.14925 11.7818 0.0588989 11.6389 0.020668 11.4783C-0.0175667 11.3177 -0.00145721 11.1486 0.0663948 10.9985C0.134251 10.8483 0.249901 10.7257 0.394707 10.6504L20.6686 0.081683C20.8057 0.0102294 20.9616 -0.0150909 21.1138 0.0093806ZM20.9996 1.56472L3.72541 10.5672H38.2795L20.9996 1.56472ZM37.035 12.0402H29.4815L29.3425 15.4661H36.8951L37.035 12.0402ZM28.0334 12.0402H13.221L13.0555 16.2312C13.0481 16.4211 12.9686 16.6007 12.8338 16.7324C12.699 16.8642 12.5193 16.9379 12.3323 16.9382H10.9702V28.9169H12.5325C12.6299 28.9172 12.7262 28.9375 12.8157 28.9766C12.9051 29.0156 12.9859 29.0726 13.0532 29.1441C13.1205 29.2156 13.1729 29.3002 13.2073 29.3927C13.2417 29.4853 13.2573 29.5839 13.2533 29.6828L13.0878 33.8158H27.896L28.0615 29.6239C28.069 29.434 28.1484 29.2544 28.2832 29.1226C28.418 28.9909 28.5977 28.9171 28.7847 28.9169H30.1485V16.9382H28.5886C28.4913 16.9377 28.395 16.9173 28.3056 16.8782C28.2162 16.8392 28.1355 16.7822 28.0682 16.7107C28.001 16.6392 27.9486 16.5547 27.9141 16.4622C27.8797 16.3697 27.864 16.2711 27.8679 16.1723L28.0334 12.0402ZM11.7787 12.0402H4.22688L4.08786 15.4661H11.6405L11.7787 12.0402ZM20.3624 15.208C20.5535 15.2087 20.7366 15.2861 20.8716 15.4235C21.0067 15.5609 21.0827 15.747 21.0832 15.9411V17.4998H21.4638C23.0857 17.4998 24.3766 18.9055 24.3766 20.5794C24.3766 22.2533 23.0857 23.664 21.4638 23.664H19.6565C18.8547 23.664 18.1927 24.345 18.1927 25.2698C18.1927 26.1946 18.8547 26.8781 19.6565 26.8781H23.0948C23.2869 26.8781 23.471 26.9556 23.6068 27.0936C23.7426 27.2315 23.8189 27.4186 23.8189 27.6137C23.8189 27.8088 23.7426 27.9959 23.6068 28.1339C23.471 28.2719 23.2869 28.3494 23.0948 28.3494H21.0823V29.9081C21.0823 30.1032 21.006 30.2903 20.8703 30.4282C20.7345 30.5662 20.5503 30.6437 20.3583 30.6437C20.1662 30.6437 19.9821 30.5662 19.8463 30.4282C19.7105 30.2903 19.6342 30.1032 19.6342 29.9081V28.3519C18.0222 28.3393 16.7479 26.9386 16.7479 25.2723C16.7479 23.606 18.0338 22.1936 19.6557 22.1936H21.4638C22.2648 22.1936 22.9277 21.5067 22.9277 20.5811C22.9277 19.6554 22.2657 18.9736 21.4638 18.9736H18.0272C17.8351 18.9736 17.651 18.8961 17.5152 18.7581C17.3794 18.6202 17.3031 18.4331 17.3031 18.238C17.3031 18.0429 17.3794 17.8558 17.5152 17.7178C17.651 17.5798 17.8351 17.5023 18.0272 17.5023H19.635V15.9436C19.6351 15.8468 19.654 15.7509 19.6907 15.6615C19.7273 15.5721 19.7809 15.4909 19.8485 15.4225C19.9161 15.3542 19.9962 15.3001 20.0844 15.2633C20.1726 15.2264 20.2671 15.2077 20.3624 15.208ZM34.7833 16.9382H31.5983V28.9169H34.7833V16.9382ZM9.52291 16.9382H6.34198V28.9169H9.52291V16.9382ZM37.0341 30.3898H29.4807L29.3416 33.8166H36.8943L37.0341 30.3898ZM11.7779 30.3898H4.22605L4.08703 33.8166H11.6388L11.7779 30.3898ZM40.5494 35.287H1.45143V38.5339H40.5494V35.287Z" fill="black"/>
</g>
<defs>
<clipPath id="clip0_760_2333">
<rect width="42" height="40" fill="white" transform="matrix(-1 0 0 1 42 0)"/>
</clipPath>
</defs>
</svg>
