<svg width="30" height="30" viewBox="0 0 30 30" fill="none" xmlns="http://www.w3.org/2000/svg">
<g clip-path="url(#clip0_852_3329)">
<path d="M29.0201 15.514C29.0201 17.7447 29.0201 19.9753 29.0201 22.1986C29.0128 26.0913 26.0678 29.4227 22.2042 29.9111C21.8689 29.9548 21.5263 29.9767 21.191 29.9767C16.7297 29.9767 12.2757 29.9767 7.81445 29.9767C4.00196 29.9767 0.714322 27.1775 0.0947007 23.416C0.0290938 23.0297 0.00722481 22.6433 0.00722481 22.2497C-6.48499e-05 17.7301 -6.48499e-05 13.2105 -6.48499e-05 8.69091C0.00722481 4.85655 2.99599 1.5033 6.80119 1.03676C7.16567 0.993026 7.53015 0.963867 7.89464 0.963867C12.2976 0.963867 16.7078 0.963867 21.1108 0.963867C25.0035 0.963867 28.2401 3.67562 28.918 7.50998C28.9909 7.9182 29.0128 8.33371 29.0128 8.74923C29.0201 11.0017 29.0128 13.2615 29.0128 15.514H29.0201ZM14.5209 2.17395C12.3559 2.17395 10.1909 2.17395 8.02585 2.17395C7.60305 2.17395 7.16567 2.19582 6.75016 2.27601C3.38963 2.93208 1.21002 5.5928 1.21002 9.01165C1.21002 13.3198 1.21002 17.628 1.21002 21.9289C1.21002 22.3517 1.23189 22.7891 1.30478 23.2046C1.90983 26.5141 4.607 28.7593 7.98211 28.7666C12.3413 28.7666 16.6933 28.7666 21.0525 28.7666C21.4534 28.7666 21.8616 28.7448 22.2553 28.6646C25.6012 28.0304 27.8027 25.3551 27.81 21.9435C27.81 17.6207 27.8173 13.3053 27.8027 8.98249C27.8027 8.42119 27.7444 7.84531 27.6132 7.29858C26.8842 4.24421 24.2672 2.18124 21.1254 2.15937C18.9239 2.14479 16.7151 2.15937 14.5136 2.15937L14.5209 2.17395Z" fill="white"/>
<path d="M14.5064 22.1259C10.8105 22.1259 7.85819 19.159 7.86548 15.4486C7.86548 11.76 10.8397 8.82227 14.5574 8.82227C18.2168 8.82227 21.1618 11.8037 21.1618 15.4996C21.1618 19.1663 18.1876 22.1259 14.5064 22.1259ZM19.9517 15.4559C19.9372 12.4744 17.4805 10.0251 14.4991 10.0323C11.5176 10.0323 9.06827 12.4963 9.06827 15.4704C9.06827 18.4665 11.5468 20.9304 14.5355 20.9085C17.517 20.8867 19.959 18.4227 19.9444 15.4486L19.9517 15.4559Z" fill="white"/>
</g>
<defs>
<clipPath id="clip0_852_3329">
<rect width="29.0201" height="29.0201" fill="white" transform="translate(-6.48499e-05 0.963867)"/>
</clipPath>
</defs>
</svg>
