<svg width="575" height="98" viewBox="0 0 575 98" fill="none" xmlns="http://www.w3.org/2000/svg">
<g clip-path="url(#clip0_569_3003)">
<path d="M5.84238 97.9362C5.05098 97.9328 4.26799 97.7727 3.53811 97.4648C2.80823 97.157 2.14576 96.7075 1.58851 96.1421C1.03126 95.5766 0.590161 94.9062 0.290385 94.1692C-0.00939077 93.4322 -0.16197 92.643 -0.158638 91.8467C-0.155306 91.0504 0.00387408 90.2625 0.309807 89.5281C0.61574 88.7936 1.06244 88.127 1.6244 87.5663C2.75932 86.4339 4.29483 85.8015 5.89313 85.8083C6.73704 85.7823 7.57703 85.9341 8.35921 86.254C9.14139 86.5739 9.84848 87.0548 10.4351 87.6658L9.54068 88.636C9.06969 88.1319 8.50182 87.7294 7.87153 87.4529C7.24124 87.1764 6.56167 87.0317 5.8741 87.0275C3.29861 87.0275 1.37016 89.1211 1.37016 91.8531C1.37016 94.5851 3.31129 96.7106 5.8741 96.7106C6.5838 96.709 7.28529 96.5577 7.93324 96.2663C8.5812 95.9749 9.16121 95.5501 9.63583 95.0191L10.5049 95.8681C9.92337 96.5325 9.20511 97.0616 8.39997 97.4188C7.59484 97.7759 6.72212 97.9525 5.84238 97.9362Z" fill="white"/>
<path d="M21.2002 97.9362C20.0059 97.9501 18.8345 97.6067 17.8346 96.9495C16.8347 96.2922 16.0515 95.3508 15.5843 94.2449C15.117 93.1389 14.987 91.9181 15.2105 90.7376C15.4341 89.557 16.0012 88.47 16.8399 87.6144C17.6786 86.7588 18.751 86.1732 19.921 85.9321C21.0911 85.6909 22.3059 85.805 23.4114 86.2599C24.5169 86.7147 25.4631 87.4898 26.1299 88.4868C26.7968 89.4838 27.1542 90.6577 27.1568 91.8595C27.1827 92.6575 27.047 93.4526 26.7579 94.1962C26.4689 94.9397 26.0324 95.6164 25.4752 96.1848C24.9179 96.7533 24.2516 97.2017 23.5166 97.5028C22.7817 97.8039 21.9935 97.9514 21.2002 97.9362ZM21.2002 87.0338C20.5817 87.0357 19.9701 87.1637 19.4021 87.4099C18.8341 87.6561 18.3215 88.0155 17.8953 88.4664C17.4691 88.9174 17.1381 89.4505 16.9222 90.0336C16.7063 90.6168 16.61 91.2379 16.6391 91.8595C16.6136 92.4844 16.7132 93.1081 16.932 93.6936C17.1508 94.279 17.4843 94.8142 17.9128 95.2674C18.3412 95.7205 18.8558 96.0824 19.426 96.3314C19.9962 96.5804 20.6103 96.7116 21.2319 96.7171C21.8503 96.7152 22.462 96.5872 23.03 96.341C23.598 96.0948 24.1105 95.7354 24.5367 95.2845C24.9629 94.8336 25.294 94.3005 25.5099 93.7173C25.7257 93.1341 25.822 92.513 25.7929 91.8914C25.8184 91.2665 25.7189 90.6428 25.5001 90.0573C25.2813 89.4719 24.9477 88.9367 24.5193 88.4836C24.0908 88.0304 23.5762 87.6685 23.006 87.4195C22.4359 87.1705 21.8217 87.0393 21.2002 87.0338Z" fill="white"/>
<path d="M41.8294 86.0125H43.0982V97.7382H42.0451L34.528 88.1253V97.7382H33.2593V86.0125H34.4899L41.8294 95.4084V86.0125Z" fill="white"/>
<path d="M58.2784 86.0125H59.5472V97.7382H58.5322L51.0087 88.1253V97.7382H49.74V86.0125H50.9706L58.2784 95.4084V86.0125Z" fill="white"/>
<path d="M74.613 87.2189H67.5082V91.2211H73.8518V92.4275H67.5082V96.5063H74.6955V97.7127H66.1951V86.0125H74.613V87.2189Z" fill="white"/>
<path d="M85.9935 97.9361C84.3952 97.9294 82.865 97.284 81.7396 96.142C80.6142 95 79.9858 93.4549 79.9925 91.8467C79.9992 90.2384 80.6406 88.6987 81.7755 87.5663C82.9104 86.4338 84.446 85.8015 86.0443 85.8082C86.8881 85.7831 87.7278 85.9353 88.5099 86.2551C89.292 86.5749 89.9991 87.0554 90.5862 87.6657L89.6855 88.6359C89.2152 88.1326 88.6484 87.7306 88.0192 87.4541C87.3901 87.1776 86.7117 87.0325 86.0252 87.0274C83.4434 87.0274 81.5149 89.1211 81.5149 91.8531C81.5149 94.585 83.4624 96.7106 86.0252 96.7106C86.7349 96.709 87.4364 96.5576 88.0844 96.2663C88.7323 95.9749 89.3123 95.55 89.787 95.0191L90.6307 95.868C90.053 96.5305 89.339 97.0586 88.5383 97.4157C87.7376 97.7728 86.8692 97.9504 85.9935 97.9361Z" fill="white"/>
<path d="M100.679 97.7382H99.3529V87.238H95.439V86.0125H104.586V87.238H100.672L100.679 97.7382Z" fill="white"/>
<path d="M111.812 86.0125V97.7382H110.492V86.0125H111.812Z" fill="white"/>
<path d="M127.119 86.0125H128.387V97.7382H127.334L119.811 88.1253V97.7382H118.542V86.0125H119.811L127.15 95.4084L127.119 86.0125Z" fill="white"/>
<path d="M140.421 97.9362C136.761 97.9362 134.503 95.2553 134.503 91.8914C134.476 91.1034 134.608 90.3181 134.889 89.5823C135.17 88.8464 135.596 88.1751 136.14 87.6082C136.685 87.0412 137.337 86.5903 138.058 86.2821C138.78 85.974 139.555 85.815 140.339 85.8146C141.933 85.7451 143.492 86.3039 144.684 87.3721L143.834 88.3743C142.874 87.4736 141.599 86.9917 140.288 87.0338C137.712 87.0338 135.847 89.2296 135.847 91.8594C135.847 94.6744 137.624 96.7489 140.453 96.7489C141.672 96.7432 142.855 96.33 143.815 95.5744V92.6765H140.269V91.4892H145.084V96.1553C143.797 97.3009 142.139 97.9342 140.421 97.9362Z" fill="white"/>
<path d="M163.264 86.0125H164.584V96.5063H171.137V97.7318H163.264V86.0125Z" fill="white"/>
<path d="M178.324 86.0125V97.7382H177.005V86.0125H178.324Z" fill="white"/>
<path d="M193.428 87.238H186.374V91.3998H192.679V92.5998H186.374V97.7063H185.061V86.0125H193.428V87.238Z" fill="white"/>
<path d="M207.72 87.2189H200.615V91.2211H206.959V92.4275H200.615V96.5063H207.803V97.7127H199.302V86.0125H207.72V87.2189Z" fill="white"/>
<path d="M217.946 91.2403C220.547 91.8084 221.752 92.7659 221.752 94.5723C221.752 96.5957 220.09 97.9043 217.781 97.9043C216.011 97.9246 214.303 97.2516 213.017 96.0276L213.835 95.0574C214.356 95.5885 214.978 96.009 215.663 96.2941C216.349 96.5792 217.084 96.723 217.826 96.717C219.392 96.717 220.426 95.8936 220.426 94.7063C220.426 93.5191 219.843 92.9829 217.394 92.4595C214.717 91.8722 213.487 91.0042 213.487 89.0637C213.487 87.1232 215.098 85.8721 217.293 85.8721C218.787 85.828 220.244 86.3419 221.384 87.3147L220.623 88.336C219.692 87.5161 218.498 87.0627 217.261 87.0594C215.745 87.0594 214.781 87.9019 214.781 88.9743C214.781 90.0467 215.383 90.685 217.946 91.2403Z" fill="white"/>
<path d="M231.902 97.7382H230.57V87.238H226.662V86.0125H235.816V87.238H231.902V97.7382Z" fill="white"/>
<path d="M246.574 97.7382H245.242V93.0977L240.402 86.0125H242.001L245.927 91.8721L249.886 86.0125H251.421L246.574 93.0786V97.7382Z" fill="white"/>
<path d="M256.832 86.0125H258.145V96.5063H264.704V97.7318H256.832V86.0125Z" fill="white"/>
<path d="M278.882 87.2189H271.777V91.2211H278.121V92.4275H271.777V96.5063H278.965V97.7127H270.464V86.0125H278.882V87.2189Z" fill="white"/>
<path d="M306.407 98L304.358 95.868C303.837 96.4981 303.187 97.007 302.453 97.3597C301.718 97.7123 300.915 97.9003 300.101 97.9107C297.754 97.9107 296.01 96.4297 296.01 94.2212C296.01 92.4658 297.158 91.2084 299.182 90.3913C298.287 89.3445 297.881 88.5402 297.881 87.487C297.881 85.7508 299.258 84.3657 301.326 84.3657C301.73 84.3423 302.135 84.4017 302.516 84.5402C302.897 84.6786 303.247 84.8933 303.543 85.1713C303.839 85.4492 304.077 85.7847 304.241 86.1574C304.405 86.5302 304.492 86.9326 304.497 87.3402C304.497 89.0445 303.324 90.0913 301.427 90.7679L304.402 93.819C305.016 92.8968 305.54 91.9179 305.969 90.8956L307.174 91.4573C306.658 92.6202 306.02 93.7243 305.271 94.751L307.542 97.0936L306.407 98ZM299.968 91.3552C298.236 91.9935 297.475 93.0531 297.475 94.1765C297.482 94.5225 297.559 94.8636 297.701 95.1788C297.843 95.4941 298.047 95.777 298.301 96.0104C298.555 96.2439 298.853 96.4229 299.178 96.5367C299.503 96.6504 299.847 96.6966 300.19 96.6723C300.823 96.6388 301.441 96.4694 302.004 96.1754C302.566 95.8815 303.06 95.4698 303.451 94.968L299.968 91.3552ZM301.237 85.6104C300.98 85.5953 300.722 85.634 300.481 85.724C300.239 85.814 300.019 85.9533 299.834 86.1332C299.648 86.3131 299.502 86.5297 299.404 86.7693C299.306 87.0089 299.258 87.2663 299.264 87.5253C299.264 88.3168 299.581 88.8913 300.564 89.9637C302.22 89.4019 303.102 88.6104 303.102 87.4551C303.105 87.2113 303.058 86.9696 302.964 86.7448C302.871 86.5199 302.732 86.3169 302.557 86.1481C302.382 85.9794 302.175 85.8486 301.948 85.7638C301.721 85.6789 301.479 85.6419 301.237 85.6551V85.6104Z" fill="white"/>
<path d="M329.51 93.602H326.681V97.7382H325.343V86.0125H329.701C332.327 86.0125 334.059 87.4231 334.059 89.7466C334.084 92.2934 331.991 93.602 329.51 93.602ZM329.624 87.2189H326.681V92.3764H329.561C331.464 92.3764 332.733 91.336 332.733 89.7785C332.752 88.1061 331.508 87.238 329.624 87.238V87.2189Z" fill="white"/>
<path d="M347.824 97.7382L344.449 93.1807H341.119V97.7382H339.806V86.0125H344.811C347.348 86.0125 349.023 87.404 349.023 89.5168C349.023 91.4764 347.691 92.6126 345.851 92.9445L349.429 97.7382H347.824ZM344.716 87.238H341.119V91.9934H344.697C346.448 91.9934 347.691 91.087 347.691 89.5615C347.691 88.0359 346.594 87.238 344.716 87.238Z" fill="white"/>
<path d="M360.568 97.9362C359.374 97.9501 358.203 97.6067 357.203 96.9495C356.203 96.2922 355.42 95.3508 354.952 94.2449C354.485 93.1389 354.355 91.9181 354.579 90.7376C354.802 89.557 355.369 88.47 356.208 87.6144C357.047 86.7588 358.119 86.1732 359.289 85.9321C360.459 85.6909 361.674 85.805 362.78 86.2599C363.885 86.7147 364.831 87.4898 365.498 88.4868C366.165 89.4838 366.522 90.6577 366.525 91.8595C366.551 92.6575 366.415 93.4526 366.126 94.1962C365.837 94.9397 365.401 95.6164 364.843 96.1848C364.286 96.7533 363.62 97.2017 362.885 97.5028C362.15 97.8039 361.362 97.9514 360.568 97.9362ZM360.568 87.0338C359.95 87.0357 359.338 87.1637 358.77 87.4099C358.202 87.6561 357.69 88.0155 357.263 88.4664C356.837 88.9174 356.506 89.4505 356.29 90.0336C356.074 90.6168 355.978 91.2379 356.007 91.8595C355.982 92.4844 356.081 93.1081 356.3 93.6936C356.519 94.279 356.852 94.8142 357.281 95.2674C357.709 95.7205 358.224 96.0824 358.794 96.3314C359.364 96.5804 359.978 96.7116 360.6 96.7171C361.218 96.7152 361.83 96.5872 362.398 96.341C362.966 96.0948 363.479 95.7354 363.905 95.2845C364.331 94.8336 364.662 94.3005 364.878 93.7173C365.094 93.1341 365.19 92.513 365.161 91.8914C365.187 91.2665 365.087 90.6428 364.868 90.0573C364.649 89.4719 364.316 88.9367 363.887 88.4836C363.459 88.0304 362.944 87.6685 362.374 87.4195C361.804 87.1705 361.19 87.0393 360.568 87.0338Z" fill="white"/>
<path d="M376.77 93.602H373.941V97.7382H372.627V86.0125H376.985C379.618 86.0125 381.344 87.4231 381.344 89.7466C381.344 92.2934 379.263 93.602 376.77 93.602ZM376.884 87.2189H373.941V92.3764H376.821C378.724 92.3764 379.992 91.336 379.992 89.7785C380.018 88.1061 378.768 87.238 376.884 87.238V87.2189Z" fill="white"/>
<path d="M395.49 87.2189H388.379V91.2211H394.722V92.4275H388.379V96.5063H395.572V97.7127H387.065V86.0125H395.49V87.2189Z" fill="white"/>
<path d="M409.56 97.7382L406.179 93.1807H402.855V97.7382H401.542V86.0125H406.54C409.078 86.0125 410.752 87.404 410.752 89.5168C410.752 91.4764 409.42 92.6126 407.581 92.9445L411.158 97.7382H409.56ZM406.445 87.238H402.855V91.9934H406.432C408.177 91.9934 409.427 91.087 409.427 89.5615C409.427 88.0359 408.329 87.238 406.445 87.238Z" fill="white"/>
<path d="M421.188 97.7382H419.862V87.238H415.948V86.0125H425.102V87.238H421.194L421.188 97.7382Z" fill="white"/>
<path d="M432.314 86.0125V97.7382H431.001V86.0125H432.314Z" fill="white"/>
<path d="M447.469 87.2189H440.364V91.2211H446.708V92.4275H440.364V96.5063H447.551V97.7127H439.051V86.0125H447.469V87.2189Z" fill="white"/>
<path d="M457.701 91.2403C460.296 91.8084 461.507 92.7658 461.507 94.5723C461.507 96.5957 459.845 97.9043 457.53 97.9043C455.762 97.9242 454.056 97.2512 452.772 96.0276L453.584 95.0574C454.107 95.5881 454.73 96.0083 455.416 96.2933C456.102 96.5783 456.838 96.7224 457.581 96.717C459.141 96.717 460.175 95.8936 460.175 94.7063C460.175 93.5191 459.592 92.9829 457.149 92.4595C454.466 91.8722 453.235 91.0041 453.235 89.0637C453.235 87.1232 454.853 85.8721 457.041 85.8721C458.535 85.8292 459.992 86.3429 461.133 87.3147L460.365 88.336C459.435 87.5156 458.241 87.0621 457.003 87.0594C455.494 87.0594 454.529 87.9019 454.529 88.9743C454.529 90.0467 455.138 90.685 457.701 91.2403Z" fill="white"/>
<path d="M251.294 53.8223H249.537C246.961 53.8223 244.392 53.8223 241.817 53.8223C241.501 53.8594 241.182 53.7939 240.905 53.6355C240.629 53.477 240.411 53.2338 240.282 52.9415C239.413 51.3776 239.4 51.4478 237.852 52.2202C230.119 56.05 222.45 55.7628 215.015 51.4733C211.412 49.3924 209.61 45.9073 208.843 41.854C207.447 34.4304 210.587 28.9537 216.157 24.5111C217.705 23.2791 217.718 23.2983 216.614 21.594C214.298 18.0067 213.176 14.1449 214.33 9.91288C214.85 7.93046 215.846 6.10705 217.231 4.60325C218.616 3.09945 220.347 1.96138 222.272 1.28928C224.771 0.269029 227.468 -0.165223 230.159 0.0194729C232.85 0.204169 235.463 1.00295 237.801 2.35525C241.557 4.46168 243.32 7.97239 243.752 12.2044C243.802 12.6831 243.669 12.9257 243.162 12.9257C240.808 12.9257 238.455 12.9257 236.101 12.9257C235.467 12.9257 235.467 12.5682 235.467 12.1278C235.48 9.9807 235.093 7.85016 234.325 5.84679C233.056 2.89141 230.938 1.37865 228.07 1.41695C226.665 1.4529 225.303 1.91516 224.163 2.74321C223.023 3.57126 222.159 4.72646 221.682 6.05745C220.528 9.01283 220.883 11.9236 221.961 14.8151C223.04 17.7067 224.917 19.9918 226.732 22.36C231.705 28.8495 236.687 35.3368 241.677 41.8221C241.842 42.0391 242.039 42.2433 242.312 42.5306C243.004 40.9213 243.455 39.2176 243.65 37.4752C243.929 35.6005 243.929 33.6944 243.65 31.8197C243.542 31.1048 243.694 30.7984 244.494 30.8431C245.762 30.9069 247.031 30.8878 248.262 30.8431C248.896 30.8431 249.207 30.9963 249.194 31.7368C249.217 36.4602 247.875 41.0885 245.331 45.0583C245.116 45.2948 245 45.6065 245.01 45.9272C245.019 46.2478 245.153 46.5522 245.382 46.7754C247.221 49.1244 248.947 51.5754 251.25 53.5223C251.269 53.5606 251.262 53.6436 251.294 53.8223ZM215.599 36.3645C215.565 37.7731 215.682 39.1812 215.948 40.5646C218.428 52.5904 229.859 53.9692 236.672 49.6478C237.427 49.169 237.427 48.8563 236.919 48.1733C231.401 40.7561 225.672 33.4921 220.071 26.1388C219.513 25.4111 219.259 25.5643 218.834 26.2153C216.806 29.214 215.683 32.7384 215.599 36.3645Z" fill="white"/>
<path d="M500.089 54.7544C495.433 54.6778 490.776 54.0395 486.539 51.5628C483.878 50.1098 481.712 47.886 480.322 45.1797C479.872 44.2669 479.91 44.2159 480.957 44.2159C483.094 44.2159 485.226 44.2159 487.357 44.2159C487.599 44.1776 487.846 44.2308 488.051 44.3651C488.256 44.4995 488.404 44.7056 488.467 44.9435C490.58 50.184 494.64 52.6607 500.101 53.082C502.324 53.3413 504.576 53.0136 506.635 52.1309C510.397 50.3883 512.516 46.4308 512.18 42.0392C512.074 40.7631 511.697 39.5248 511.074 38.4081C510.451 37.2914 509.597 36.3224 508.57 35.5667C506.033 33.505 503.057 32.2284 500.089 30.9326C496.041 29.1708 491.874 27.6516 488.093 25.3154C485.435 23.6686 483.075 21.7026 481.902 18.6706C480.945 16.0929 480.873 13.2673 481.698 10.6438C482.522 8.02031 484.195 5.74972 486.45 4.1937C489.708 1.90453 493.524 0.551797 497.488 0.280843C502.759 -0.178741 507.961 0.121256 512.858 2.42556C515.073 3.36781 516.917 5.01918 518.104 7.12353C518.644 8.11291 518.568 8.24057 517.47 8.24057H511.057C510.676 8.24057 510.327 8.24059 510.162 7.78101C509.02 4.40434 506.451 2.75749 503.153 2.0362C499.302 1.21916 495.604 1.54469 492.197 3.70218C487.186 6.89374 486.488 13.6088 491.246 17.4642C493.783 19.5195 496.689 20.8089 499.638 22.0473C504.034 23.8856 508.57 25.392 512.744 27.7282C514.983 28.8874 516.952 30.5102 518.523 32.4901C520.731 35.4454 520.864 38.7838 520.23 42.2371C519.018 48.8372 514.66 52.2394 508.519 53.7905C505.754 54.4276 502.926 54.7509 500.089 54.7544Z" fill="white"/>
<path d="M316.95 6.50436V8.09375C316.95 22.9877 316.95 37.8987 316.95 52.8266C316.95 53.465 317.007 53.9628 316.106 53.8671C315.593 53.816 315.345 53.6884 315.396 53.1522C315.405 52.9629 315.405 52.7733 315.396 52.5841V2.33617C315.396 1.05954 315.396 1.05954 316.608 1.05954C318.149 1.05954 319.684 1.05954 321.219 1.05954C321.469 1.03565 321.72 1.08285 321.945 1.1957C322.169 1.30856 322.357 1.48254 322.488 1.69785C328.794 10.5321 335.107 19.36 341.43 28.1814L353.026 44.3754C353.204 44.618 353.324 44.9307 353.66 45.0711C353.965 44.7137 353.813 44.286 353.813 43.9031C353.813 29.9964 353.813 16.0918 353.813 2.18937C353.813 1.78085 353.533 1.17446 354.301 1.07871C355.069 0.982963 355.379 1.07869 355.379 1.97871C355.35 18.9408 355.35 35.9029 355.379 52.8649C355.379 53.5862 355.176 53.7394 354.453 53.8479C352.043 54.2054 350.647 53.2479 349.188 51.2309C338.797 36.4986 328.254 21.8685 317.762 7.18736C317.584 6.86665 317.295 6.62338 316.95 6.50436Z" fill="white"/>
<path d="M143.974 27.4793C143.974 19.06 143.974 10.6407 143.974 2.22774C143.974 1.32133 144.202 1.05323 145.122 1.05962C154.935 1.05962 164.755 1.05962 174.575 1.05962C174.968 1.05962 175.565 0.76603 175.647 1.57669C175.73 2.38734 175.565 2.62349 174.715 2.62349C167.534 2.58519 160.346 2.62349 153.146 2.62349C151.725 2.62349 151.878 2.47668 151.878 3.90011C151.878 9.47896 151.878 15.0578 151.878 20.6367C151.878 21.5558 152.049 21.8622 153.045 21.8558C158.5 21.7984 163.962 21.8558 169.418 21.8558C169.893 21.8558 170.426 21.6963 170.433 22.5388C170.439 23.3814 169.982 23.3495 169.411 23.3431C163.924 23.3431 158.431 23.3431 152.918 23.3431C152.138 23.3431 151.852 23.4771 151.852 24.358C151.89 33.3454 151.89 42.3307 151.852 51.3139C151.852 52.1693 152.1 52.3544 152.912 52.348C160.156 52.348 167.4 52.348 174.651 52.348C175.247 52.348 175.666 52.348 175.628 53.1778C175.628 53.7714 175.393 53.9055 174.841 53.9055C164.806 53.9055 154.768 53.9055 144.729 53.9055C143.872 53.9055 143.948 53.4331 143.948 52.8778C143.969 44.3968 143.978 35.9306 143.974 27.4793Z" fill="white"/>
<path d="M434.198 27.4666C434.198 19.0472 434.198 10.6279 434.198 2.21495C434.198 1.2894 434.465 1.05319 435.365 1.05957C445.179 1.05957 455.03 1.05957 464.819 1.05957C465.212 1.05957 465.808 0.772344 465.878 1.58938C465.948 2.40642 465.751 2.67452 464.901 2.67452C457.682 2.63622 450.469 2.67452 443.25 2.62983C442.286 2.62983 442.071 2.89155 442.077 3.82986C442.123 9.50658 442.123 15.1833 442.077 20.86C442.077 21.626 442.267 21.8686 443.06 21.8622C448.579 21.8622 454.104 21.8622 459.623 21.8622C460.105 21.8622 460.626 21.7154 460.638 22.5516C460.651 23.3877 460.162 23.3494 459.598 23.3494C454.111 23.3494 448.617 23.3494 443.105 23.3494C442.312 23.3494 442.039 23.5026 442.045 24.3707C442.083 33.3071 442.083 42.2626 442.045 51.2373C442.045 52.1884 442.343 52.3607 443.212 52.3543C450.425 52.3543 457.644 52.3543 464.857 52.3543C465.294 52.3543 465.815 52.1756 465.821 52.9926C465.821 53.631 465.688 53.9182 464.946 53.9182C460.207 53.8799 455.475 53.9182 450.736 53.9182H435.442C434.173 53.9182 434.173 53.9182 434.173 52.6416L434.198 27.4666Z" fill="white"/>
<path d="M107.688 44.8797C108.025 44.6308 108.063 44.2415 108.189 43.8968C113.556 29.8794 118.919 15.86 124.277 1.83839C124.378 1.57668 124.404 1.24475 124.708 1.149C124.895 1.06502 125.097 1.02161 125.301 1.02161C125.506 1.02161 125.708 1.06502 125.894 1.149C126.3 1.41071 125.894 1.78732 125.812 2.06817C119.274 19.1579 112.742 36.2391 106.217 53.3119C106.141 53.6422 105.942 53.9306 105.661 54.1182C105.38 54.3057 105.039 54.378 104.707 54.3204C102.874 54.2501 102.867 54.3204 102.207 52.597C95.6863 35.7881 89.1693 18.9792 82.6566 2.17033C82.2379 1.09158 82.2379 1.08519 83.3671 1.08519C85.4668 1.08519 87.5729 1.08519 89.6726 1.08519C89.9462 1.0465 90.2242 1.11309 90.4512 1.27165C90.6781 1.4302 90.8373 1.66904 90.8969 1.9405C96.327 15.9834 101.772 30.039 107.232 44.1074C107.333 44.3627 107.358 44.7074 107.688 44.8797Z" fill="white"/>
<path d="M398.998 44.9691C400.133 41.9945 401.237 39.1221 402.334 36.2497C406.703 24.8112 411.072 13.3769 415.44 1.94683C415.599 1.5447 415.656 1.11064 416.259 1.06596C417.242 1.00213 417.381 1.14894 417.032 2.06811C411.932 15.3833 406.834 28.6942 401.738 42.0009C400.298 45.7605 398.839 49.5138 397.437 53.2926C397.368 53.6251 397.173 53.9175 396.894 54.1081C396.615 54.2986 396.273 54.3725 395.94 54.3139C393.663 54.2054 394.234 54.6905 393.403 52.5266C386.877 35.7178 380.358 18.9089 373.845 2.10002C373.458 1.09149 373.465 1.07874 374.562 1.07874C376.7 1.07874 378.831 1.07874 380.963 1.07874C381.207 1.04276 381.456 1.09921 381.661 1.23719C381.866 1.37516 382.013 1.58482 382.073 1.82555C387.512 15.8684 392.959 29.9219 398.414 43.986C398.493 44.3707 398.698 44.7172 398.998 44.9691Z" fill="white"/>
<path d="M558.646 28.2963C558.646 36.4284 558.646 44.5605 558.646 52.6926C558.646 53.6054 558.399 53.8671 557.492 53.8415C555.487 53.7713 553.476 53.7905 551.472 53.8415C550.799 53.8415 550.603 53.6245 550.628 52.9798C550.672 51.8436 550.628 50.7074 550.628 49.5776V3.9894C550.628 2.63618 550.628 2.63618 549.315 2.63618H535.042C534.541 2.63618 534.059 2.73831 534.059 1.92127C534.059 1.10423 534.407 1.06592 535.035 1.06592C548.014 1.06592 560.998 1.06592 573.985 1.06592C574.562 1.06592 575.038 1.06593 575 1.87659C575 2.44468 574.816 2.64895 574.239 2.63618C572.513 2.63618 570.788 2.63618 569.062 2.63618C565.992 2.63618 562.915 2.63618 559.845 2.63618C558.913 2.63618 558.615 2.83405 558.621 3.82982C558.665 11.9683 558.646 20.1323 558.646 28.2963Z" fill="white"/>
<path d="M0.0253906 27.4475C0.0253906 19.06 0.0253906 10.6726 0.0253906 2.28523C0.0253906 1.33414 0.253759 1.00859 1.22432 1.07242C3.07665 1.14902 4.92897 1.07242 6.78129 1.07242C8.05 1.07242 8.05 1.07242 8.05 2.38734V50.8161C8.05 52.2523 8.05 52.2523 9.45828 52.2523H30.4428C30.9059 52.2523 31.4451 52.0671 31.4831 52.8906C31.5212 53.714 31.1216 53.7778 30.4682 53.7778C23.0039 53.7778 15.5375 53.7778 8.06903 53.7778C5.74729 53.7778 3.42554 53.7395 1.09111 53.7778C0.260103 53.7778 0.0317369 53.5608 0.0380805 52.7246C0.0380805 44.3436 0.0253906 35.8668 0.0253906 27.4475Z" fill="white"/>
<path d="M51.8713 27.3516C51.8713 18.9706 51.8713 10.5896 51.8713 2.20857C51.8713 1.30217 52.1124 1.02766 53.0195 1.05958C54.9607 1.12341 56.9081 1.11703 58.8493 1.05958C59.6866 1.05958 59.915 1.30855 59.9086 2.13198C59.9086 11.4896 59.9086 20.8473 59.9086 30.2177C59.9086 37.6221 59.9086 45.0287 59.9086 52.4373C59.9086 54.0586 60.0038 53.8225 58.475 53.8288C56.629 53.8288 54.7767 53.7842 52.9307 53.8288C52.0807 53.8608 51.8904 53.5863 51.8904 52.7692C51.884 44.3052 51.8713 35.8284 51.8713 27.3516Z" fill="white"/>
<path d="M292.762 27.4474V52.5905C292.762 53.8161 292.762 53.8161 291.538 53.8161C289.527 53.8161 287.522 53.8161 285.518 53.8161C284.953 53.8161 284.725 53.6565 284.757 53.0693C284.795 52.3799 284.757 51.6841 284.757 50.9948V2.3235C284.757 1.04688 284.757 1.04688 285.962 1.04688H291.506C292.775 1.04688 292.775 1.04686 292.775 2.27242L292.762 27.4474Z" fill="white"/>
</g>
<defs>
<clipPath id="clip0_569_3003">
<rect width="575" height="98" fill="white"/>
</clipPath>
</defs>
</svg>
