<svg width="38" height="25" viewBox="0 0 38 25" fill="none" xmlns="http://www.w3.org/2000/svg">
<g clip-path="url(#clip0_852_3352)">
<path d="M18.519 24.9815C12.6868 24.9815 6.86072 24.9815 1.02849 24.9815C0.166283 24.9815 0 24.8157 0 23.956C0 16.63 0 9.30405 0 1.98422C0 1.13065 0.166283 0.964844 1.03465 0.964844C12.6929 0.964844 24.3574 0.964844 36.0157 0.964844C36.8594 0.964844 37.0195 1.1245 37.0195 1.96579C37.0195 9.30405 37.0195 16.6423 37.0195 23.9806C37.0195 24.8218 36.8594 24.9815 36.0095 24.9815C30.1835 24.9815 24.3512 24.9815 18.519 24.9815ZM2.35876 2.26055C7.79683 7.21004 13.1487 12.0858 18.519 16.98C23.8893 12.0858 29.2473 7.21004 34.6793 2.26055C23.8647 2.26055 13.1795 2.26055 2.35876 2.26055ZM2.37107 23.6612C13.1733 23.6612 23.877 23.6612 34.6546 23.6612C31.0272 20.3636 27.4552 17.1213 23.877 13.8667C23.7169 14.014 23.5814 14.1369 23.4459 14.2597C22.0171 15.5615 20.5945 16.8634 19.1657 18.1591C18.6237 18.6503 18.4143 18.6503 17.8785 18.1591C16.4312 16.8388 14.984 15.5185 13.5367 14.1983C13.395 14.0693 13.2472 13.9465 13.0933 13.8175C9.50893 17.1029 5.96771 20.3575 2.37107 23.6612ZM24.8439 12.9824C28.4529 16.2616 32.0495 19.5346 35.6954 22.8445C35.6954 16.237 35.6954 9.70934 35.6954 3.0957C32.0557 6.41173 28.4775 9.67864 24.8439 12.9824ZM1.3549 3.11412C1.3549 9.71548 1.3549 16.237 1.3549 22.82C4.97617 19.4978 8.54202 16.2186 12.1263 12.9271C8.52355 9.64179 4.9577 6.39945 1.3549 3.11412Z" fill="white"/>
</g>
<defs>
<clipPath id="clip0_852_3352">
<rect width="37.0257" height="24.0167" fill="white" transform="translate(0 0.964844)"/>
</clipPath>
</defs>
</svg>
