<svg width="68" height="68" viewBox="0 0 68 68" fill="none" xmlns="http://www.w3.org/2000/svg">
<circle cx="33.5" cy="29.5" r="5.5" fill="white"/>
<g clip-path="url(#clip0_0_1)">
<path d="M6.2334 34.0012C6.24389 26.6418 9.17205 19.5868 14.376 14.3828C19.5799 9.17895 26.6349 6.25079 33.9943 6.2403C41.3537 6.25079 48.4087 9.17895 53.6126 14.3828C58.8165 19.5868 61.7446 26.6418 61.7551 34.0012C61.7453 41.3608 58.8173 48.4161 53.6133 53.6202C48.4093 58.8242 41.3539 61.7522 33.9943 61.7621C26.6347 61.7522 19.5793 58.8242 14.3753 53.6202C9.17123 48.4161 6.24327 41.3608 6.2334 34.0012ZM61.5522 34.0012C61.5442 26.6967 58.6389 19.6937 53.4739 14.5286C48.3088 9.36353 41.3058 6.45828 34.0013 6.45026C26.6968 6.45828 19.6938 9.36353 14.5287 14.5286C9.36364 19.6937 6.45836 26.6967 6.45034 34.0012C6.45836 41.3057 9.36364 48.3087 14.5287 53.4738C19.6938 58.6388 26.6968 61.5441 34.0013 61.5521C41.3058 61.5441 48.3088 58.6388 53.4739 53.4738C58.6389 48.3087 61.5442 41.3057 61.5522 34.0012Z" fill="#1D1D1B"/>
<path d="M34.0012 62C26.5798 61.9901 19.4651 59.0376 14.2173 53.7898C8.96951 48.542 6.01696 41.4273 6.00708 34.0058C6.01757 26.5845 8.97033 19.4702 14.218 14.2225C19.4656 8.97488 26.58 6.02215 34.0012 6.01166C41.4225 6.02215 48.5369 8.97488 53.7845 14.2225C59.0322 19.4702 61.9849 26.5845 61.9954 34.0058C61.9855 41.4273 59.033 48.542 53.7852 53.7898C48.5374 59.0376 41.4227 61.9901 34.0012 62ZM34.0012 6.68352C26.7586 6.69155 19.8149 9.5722 14.6936 14.6935C9.57232 19.8148 6.69164 26.7585 6.68361 34.0012C6.69164 41.2438 9.57232 48.1875 14.6936 53.3088C19.8149 58.4301 26.7586 61.3108 34.0012 61.3188C41.2439 61.3108 48.1875 58.4301 53.3089 53.3088C58.4302 48.1875 61.3109 41.2438 61.3189 34.0012C61.3109 26.7585 58.4302 19.8148 53.3089 14.6935C48.1875 9.5722 41.2439 6.69155 34.0012 6.68352Z" fill="#1D1D1B"/>
</g>
<path d="M43.999 28.2207C43.9826 26.8839 43.701 25.5632 43.1699 24.3332C42.8002 23.4753 42.3157 22.6702 41.7293 21.9394C41.2656 21.3587 40.7392 20.8297 40.1594 20.3616C39.2765 19.6439 38.2808 19.0732 37.2115 18.672C36.4429 18.3795 35.6402 18.183 34.8222 18.087C34.5517 18.057 34.2808 18.0287 34.0099 18H32.9902C32.8137 18.0192 32.6372 18.0435 32.4607 18.057C31.7193 18.1227 30.9881 18.2724 30.2815 18.5031C29.0735 18.8853 27.9475 19.4841 26.9599 20.2693C25.4715 21.4369 24.3328 22.9814 23.6656 24.7379C23.3801 25.485 23.1855 26.2629 23.0858 27.0552C22.978 27.8756 22.9717 28.7059 23.0673 29.5278C23.2332 30.9344 23.6568 32.265 24.4078 33.4771C25.281 34.8864 26.1797 36.2801 27.0675 37.6811C27.7864 38.8156 28.5052 39.9506 29.2238 41.086C30.1063 42.4787 30.9888 43.8715 31.8712 45.2643C32.136 45.6804 32.3962 46.098 32.6518 46.5173C32.7214 46.6364 32.8168 46.7389 32.9312 46.8175C33.0456 46.896 33.1762 46.9487 33.3136 46.9717C33.3363 46.9788 33.3582 46.9883 33.3789 47H33.709C33.8608 46.9338 34.0205 46.8803 34.1639 46.7989C34.4467 46.6374 34.5557 46.335 34.7181 46.0803C36.0006 44.0669 37.2802 42.0512 38.5568 40.0331C39.444 38.6319 40.3301 37.2299 41.2152 35.827C41.7081 35.0435 42.2084 34.2653 42.6757 33.4675C43.154 32.6502 43.4699 31.7644 43.6972 30.8487C43.91 29.9888 44.0114 29.1058 43.999 28.2207ZM33.724 33.0615C30.9133 33.1755 28.8263 30.968 28.7292 28.575C28.6158 25.7917 30.8705 23.7482 33.2827 23.6503C36.0952 23.5362 38.3009 25.8069 38.2744 28.3683C38.2775 30.9162 36.1865 32.9609 33.724 33.0615Z" fill="black"/>
<defs>
<clipPath id="clip0_0_1">
<rect width="56" height="56" fill="white" transform="translate(6 6)"/>
</clipPath>
</defs>
</svg>
