<svg width="36" height="36" viewBox="0 0 36 36" fill="none" xmlns="http://www.w3.org/2000/svg">
<g clip-path="url(#clip0_1642_229)">
<path d="M32.8702 16.7083H31.6059V13.0379C31.6059 12.7134 31.4728 12.4023 31.2357 12.1729C30.9986 11.9434 30.677 11.8145 30.3417 11.8145H5.05695C4.72165 11.8145 4.40018 11.9434 4.16309 12.1729C3.926 12.4023 3.79271 12.7134 3.79271 13.0379V16.7083H2.52847C1.85788 16.7083 1.21479 16.9661 0.74061 17.425C0.266429 17.8839 0 18.5062 0 19.1552V27.1076C0 27.9188 0.333075 28.6969 0.925801 29.2705C1.51853 29.8441 2.32235 30.1663 3.16059 30.1663H5.05695V33.8367C5.05695 34.1611 5.19024 34.4724 5.42733 34.7018C5.66442 34.9313 5.98589 35.0601 6.32119 35.0601H8.84966C9.12535 35.074 9.39825 35.0004 9.62654 34.8501C9.85482 34.6999 10.0259 34.4815 10.1139 34.2282L11.3781 30.5579C11.3967 30.428 11.3967 30.2962 11.3781 30.1663H24.3113L25.3354 34.1425C25.407 34.4117 25.5713 34.6493 25.8011 34.8161C26.0309 34.9829 26.3125 35.0689 26.5996 35.0601H29.1281C29.4634 35.0601 29.7848 34.9313 30.0219 34.7018C30.259 34.4724 30.3923 34.1611 30.3923 33.8367V30.1663H32.2887C33.1269 30.1663 33.9307 29.8441 34.5235 29.2705C35.1162 28.6969 35.4493 27.9188 35.4493 27.1076V19.1552C35.4493 18.8297 35.3823 18.5075 35.252 18.2074C35.1218 17.9073 34.9311 17.6354 34.6909 17.4075C34.4507 17.1797 34.166 17.0004 33.8534 16.8803C33.5408 16.7603 33.2064 16.7018 32.8702 16.7083ZM6.32119 14.2614H29.0775V16.7083H6.32119V14.2614ZM7.93945 32.6132H7.58542V30.1663H8.84966L7.93945 32.6132ZM27.8132 32.6132H27.5351L26.903 30.1663H27.8132V32.6132ZM32.8702 27.1076C32.8702 27.2699 32.8035 27.4256 32.685 27.5403C32.5664 27.655 32.4057 27.7194 32.2381 27.7194H3.16059C2.99295 27.7194 2.83221 27.655 2.71367 27.5403C2.59512 27.4256 2.52847 27.2699 2.52847 27.1076V19.1552H32.8702V27.1076Z" fill="black"/>
<path d="M6.32137 10.5909C6.65666 10.5909 6.97829 10.462 7.21538 10.2326C7.45247 10.0031 7.5856 9.69189 7.5856 9.36741V3.87411C7.5856 3.70862 7.65358 3.54995 7.7745 3.43294C7.89541 3.31592 8.05938 3.25013 8.23038 3.25013H27.1939C27.3649 3.25013 27.5289 3.31592 27.6498 3.43294C27.7707 3.54995 27.8387 3.70862 27.8387 3.87411V9.36741C27.8387 9.69189 27.9718 10.0031 28.2089 10.2326C28.446 10.462 28.7677 10.5909 29.1029 10.5909C29.4382 10.5909 29.7599 10.462 29.997 10.2326C30.234 10.0031 30.3672 9.69189 30.3672 9.36741V3.87411C30.3672 3.05966 30.0329 2.27864 29.4378 1.70274C28.8427 1.12684 28.0355 0.803223 27.1939 0.803223H8.23038C7.38878 0.803223 6.58173 1.12684 5.98663 1.70274C5.39154 2.27864 5.05713 3.05966 5.05713 3.87411V9.36741C5.05713 9.69189 5.19042 10.0031 5.42751 10.2326C5.6646 10.462 5.98607 10.5909 6.32137 10.5909Z" fill="black"/>
</g>
<defs>
<clipPath id="clip0_1642_229">
<rect width="35.3986" height="34.2568" fill="white" transform="translate(0 0.803223)"/>
</clipPath>
</defs>
</svg>
