<svg width="36" height="36" viewBox="0 0 36 36" fill="none" xmlns="http://www.w3.org/2000/svg">
<path d="M1.26454 23.4367V26.4953C1.26454 28.7667 2.19681 30.9451 3.85644 32.5512C5.51608 34.1573 7.76713 35.0595 10.1142 35.0595H25.2851C27.6321 35.0595 29.883 34.1573 31.5427 32.5512C33.2023 30.9451 34.1347 28.7667 34.1347 26.4953V23.4367C34.5325 23.1566 34.8549 22.7881 35.0749 22.3623C35.2949 21.9365 35.4061 21.4658 35.399 20.9898C35.4056 20.5877 35.3299 20.1882 35.1763 19.8146C35.0226 19.4409 34.7942 19.1004 34.5039 18.8126C34.2136 18.5248 33.8672 18.2956 33.4849 18.138C33.1025 17.9804 32.6917 17.8976 32.2762 17.8944H7.58573V6.8833C7.58573 5.90986 7.98529 4.97641 8.69657 4.28809C9.40784 3.59976 10.3726 3.21293 11.3784 3.21293H12.6427C13.4652 3.19648 14.2701 3.44464 14.9313 3.91845C15.5925 4.39226 16.0726 5.06495 16.2963 5.83115C14.9027 6.13821 13.6578 6.89336 12.7646 7.97324C11.8714 9.05311 11.3828 10.3939 11.3784 11.7771C11.3784 12.1016 11.5116 12.4129 11.7487 12.6423C11.9858 12.8717 12.3074 13.0006 12.6427 13.0006H22.7566C23.0919 13.0006 23.4133 12.8717 23.6504 12.6423C23.8875 12.4129 24.0208 12.1016 24.0208 11.7771C24.016 10.3513 23.4965 8.97196 22.5524 7.87736C21.6083 6.78276 20.2987 6.0418 18.85 5.78231C18.6103 4.36413 17.8513 3.07677 16.7115 2.1557C15.5717 1.23464 14.1274 0.741303 12.6427 0.766023H11.3784C9.70196 0.766023 8.09415 1.41053 6.9087 2.55775C5.72325 3.70496 5.05725 5.2609 5.05725 6.8833V17.8944H3.13559C2.30405 17.8944 1.50653 18.2142 0.918543 18.7832C0.330558 19.3522 0.000303967 20.124 0.000303967 20.9287C-0.00659981 21.4134 0.104184 21.8928 0.323771 22.3284C0.543359 22.764 0.865613 23.1436 1.26454 23.4367ZM17.6996 8.1435C18.4843 8.1431 19.2497 8.37821 19.8904 8.81646C20.5312 9.2547 21.0158 9.87449 21.2774 10.5904H14.1217C14.3833 9.87449 14.8679 9.2547 15.5087 8.81646C16.1494 8.37821 16.915 8.1431 17.6996 8.1435ZM32.8705 20.9653C32.8774 21.0454 32.8673 21.1261 32.8407 21.2023C32.8141 21.2785 32.7715 21.3485 32.7158 21.4081C32.6601 21.4677 32.5924 21.5157 32.5168 21.5489C32.4411 21.5822 32.3592 21.6001 32.2762 21.6015H3.19871C3.03993 21.6015 2.8876 21.5414 2.77416 21.4339C2.66071 21.3264 2.59521 21.1801 2.5919 21.0265C2.58678 20.9452 2.59857 20.8637 2.62647 20.7868C2.65436 20.7099 2.69787 20.6392 2.7544 20.5788C2.81093 20.5184 2.87933 20.4694 2.95564 20.435C3.03196 20.4005 3.11456 20.3812 3.19871 20.3781H6.08121C6.17911 20.4113 6.28113 20.4319 6.38461 20.4393C6.49223 20.432 6.59845 20.4114 6.70067 20.3781H32.3394C32.4869 20.396 32.6224 20.4658 32.7203 20.574C32.8182 20.6822 32.8716 20.8215 32.8705 20.9653ZM3.79302 24.0484H31.6062V26.4953C31.6062 28.1177 30.9402 29.6737 29.7548 30.8209C28.5693 31.9681 26.9615 32.6126 25.2851 32.6126H10.1142C8.43772 32.6126 6.82992 31.9681 5.64446 30.8209C4.45901 29.6737 3.79302 28.1177 3.79302 26.4953V24.0484Z" fill="black"/>
</svg>
