<svg width="25" height="32" viewBox="0 0 25 32" fill="none" xmlns="http://www.w3.org/2000/svg">
<path d="M16.7726 5.18544H0.977877V26.1755H16.7726C16.7726 26.0529 16.7726 25.938 16.7726 25.8154C16.7726 23.6619 16.7726 21.5162 16.7726 19.3628C16.7726 18.8493 16.929 18.6194 17.2654 18.6271C17.5861 18.6347 17.7426 18.8723 17.7426 19.3551C17.7426 22.5814 17.7426 25.8077 17.7426 29.034C17.7426 30.7813 16.53 31.9844 14.7464 31.9844C10.8271 31.9921 6.91555 31.9921 2.99622 31.9844C1.19692 31.9768 0 30.7889 0 29.034C0 20.6502 0 12.2664 0 3.88265C0 2.44193 0.860532 1.34606 2.21391 1.04719C2.48772 0.985881 2.76935 0.962891 3.05098 0.962891C6.94684 0.962891 10.8427 0.962891 14.7386 0.962891C16.5222 0.962891 17.7348 2.15838 17.7426 3.90564C17.7426 4.92488 17.7426 5.95178 17.7426 6.97101C17.7426 7.04765 17.7426 7.11662 17.7348 7.19325C17.6878 7.45381 17.461 7.65306 17.2185 7.6224C16.9525 7.58409 16.7882 7.43082 16.7804 7.1626C16.7726 6.62616 16.7804 6.08972 16.7804 5.55328C16.7804 5.43833 16.7804 5.32338 16.7804 5.18544H16.7726ZM0.962231 27.1488C0.962231 27.9075 0.946585 28.6355 0.962231 29.3635C0.977877 29.7697 1.16563 30.1299 1.45508 30.4364C1.89317 30.8962 2.44078 31.0342 3.0588 31.0342C6.64174 31.0342 10.2247 31.0342 13.8076 31.0342C14.2379 31.0342 14.6682 31.0418 15.0984 31.0112C15.8729 30.9499 16.5926 30.4058 16.6787 29.6547C16.7804 28.8424 16.7021 27.9994 16.7021 27.1565H0.962231V27.1488ZM16.7256 4.21218C16.9759 2.96304 16.0998 1.92082 14.8011 1.92082C12.1804 1.91315 9.5519 1.92082 6.93119 1.92082C5.57781 1.92082 4.22443 1.90549 2.86322 1.92082C1.58807 1.93615 0.711895 3.02435 1.00135 4.21218H16.7256Z" fill="white"/>
<path d="M13.3226 17.7384C12.8141 17.7384 12.3447 17.7384 11.8753 17.7384C11.1243 17.7384 10.4515 17.5468 9.88827 17.041C9.27807 16.4969 9.01209 15.8072 9.00427 15.0102C9.00427 13.6538 8.98862 12.2897 9.00427 10.9333C9.01991 9.31631 10.1386 8.21278 11.7893 8.21278C14.9419 8.20512 18.0946 8.20512 21.2473 8.21278C22.8979 8.21278 24.0088 9.3393 24.0088 10.9563C24.0088 12.3127 24.0088 13.6768 24.0088 15.0332C24.0088 16.5353 22.984 17.6465 21.4507 17.7078C19.9487 17.7691 18.4388 17.7384 16.929 17.7307C16.6708 17.7307 16.4909 17.8074 16.311 17.9836C15.646 18.658 14.9576 19.3094 14.2848 19.9761C14.0892 20.1677 13.8937 20.321 13.6042 20.206C13.3148 20.0834 13.3069 19.8305 13.3069 19.5623C13.3069 18.9646 13.3069 18.3668 13.3069 17.7307L13.3226 17.7384ZM14.2848 18.5507L14.3709 18.5737C14.8481 18.1063 15.3409 17.6464 15.8025 17.1637C16.0685 16.8878 16.3501 16.7728 16.7334 16.7728C18.2433 16.7881 19.7453 16.7805 21.2551 16.7728C22.3425 16.7728 23.0622 16.0678 23.0622 15.0102C23.0622 13.6385 23.0622 12.2667 23.0622 10.895C23.0622 9.85275 22.3347 9.14005 21.2786 9.14005C18.1181 9.14005 14.9498 9.14005 11.7893 9.14005C10.694 9.14005 9.98997 9.8221 9.98215 10.895C9.97432 12.2744 9.9665 13.6538 9.98215 15.0409C9.98997 16.0754 10.694 16.7575 11.7501 16.7652C12.3603 16.7652 12.9784 16.7652 13.5886 16.7652C14.144 16.7652 14.277 16.9031 14.2848 17.4319C14.2848 17.7997 14.2848 18.1599 14.2848 18.5277V18.5507Z" fill="white"/>
<path d="M8.84782 29.4172C8.48014 29.4172 8.12028 29.4172 7.7526 29.4172C7.41621 29.4172 7.22845 29.241 7.22845 28.9498C7.22845 28.6662 7.42403 28.4823 7.76042 28.4823C8.50361 28.4746 9.23897 28.4746 9.98216 28.4823C10.3029 28.4823 10.5141 28.6892 10.5141 28.9574C10.5141 29.2257 10.3029 29.4172 9.97433 29.4172C9.59883 29.4172 9.22332 29.4172 8.84782 29.4172Z" fill="white"/>
</svg>
