<svg width="33" height="33" viewBox="0 0 33 33" fill="none" xmlns="http://www.w3.org/2000/svg">
<g clip-path="url(#clip0_553_1838)">
<path d="M16.5107 33C13.2515 32.9975 10.0662 32.0269 7.35773 30.2111C4.64931 28.3952 2.53946 25.8157 1.29507 22.7987C0.0506766 19.7818 -0.272352 16.463 0.366854 13.2621C1.00606 10.0613 2.57878 7.1222 4.88606 4.81668C7.19335 2.51116 10.1315 0.942773 13.329 0.309923C16.5264 -0.322927 19.8394 0.00820279 22.8489 1.2614C25.8584 2.5146 28.4292 4.63355 30.236 7.35026C32.0429 10.067 33.0047 13.2594 32.9997 16.5236C32.9931 20.8979 31.2525 25.0906 28.1606 28.1801C25.0686 31.2697 20.8784 33.0033 16.5107 33ZM1.42356 16.5079C1.42294 19.4914 2.30571 22.4081 3.96023 24.8892C5.61475 27.3702 7.9667 29.3042 10.7187 30.4465C13.4707 31.5888 16.4991 31.8882 19.4209 31.3068C22.3428 30.7253 25.0269 29.2892 27.1338 27.1799C29.2407 25.0707 30.6758 22.3831 31.2576 19.457C31.8393 16.5309 31.5417 13.4978 30.4023 10.7411C29.2628 7.98447 27.3328 5.62811 24.8562 3.97003C22.3796 2.31196 19.4677 1.42662 16.4887 1.426C12.497 1.43017 8.67011 3.02078 5.84842 5.84855C3.02674 8.67631 1.44094 12.5101 1.43928 16.5079H1.42356Z" fill="black"/>
<path d="M14.6902 16.4984C14.6902 15.447 14.6902 14.3956 14.6902 13.3505C14.6812 13.2736 14.6949 13.1959 14.7294 13.1267C14.764 13.0576 14.818 13.0001 14.8848 12.9613C14.9516 12.9225 15.0283 12.904 15.1054 12.9083C15.1825 12.9126 15.2567 12.9394 15.3188 12.9853C17.1481 14.0588 18.99 15.1133 20.8288 16.1742C20.8969 16.2033 20.9548 16.2523 20.9946 16.3149C21.0345 16.3775 21.0546 16.4507 21.0522 16.5249C21.0498 16.599 21.0251 16.6708 20.9813 16.7307C20.9375 16.7906 20.8767 16.8358 20.8068 16.8604L17.6887 18.6611C16.9155 19.1081 16.1455 19.5582 15.3691 19.9989C15.2611 20.0628 15.1392 20.0996 15.0139 20.106C14.8222 20.106 14.6996 19.9391 14.6996 19.7125C14.6996 18.8468 14.6996 17.9811 14.6996 17.1154L14.6902 16.4984Z" fill="black"/>
</g>
<defs>
<clipPath id="clip0_553_1838">
<rect width="33" height="33" fill="white"/>
</clipPath>
</defs>
</svg>
