<svg width="36" height="36" viewBox="0 0 36 36" fill="none" xmlns="http://www.w3.org/2000/svg">
<g clip-path="url(#clip0_636_6478)">
<path d="M6.13525 26.8774V16.9887H8.97688V18.4844C9.33439 17.9613 9.80747 17.5277 10.3595 17.2171C10.9114 16.9065 11.5275 16.7272 12.1599 16.6932C12.785 16.6423 13.4098 16.7945 13.9417 17.1272C14.4736 17.4598 14.884 17.9552 15.1122 18.5398C15.6842 17.6579 16.5782 17.035 17.6032 16.8041C19.9743 16.3794 21.5612 17.5059 21.6719 19.9066C21.7826 22.3072 21.6719 24.5227 21.6719 26.8864H18.7934V25.9631C18.7934 24.3011 18.7934 22.6487 18.7934 20.9868C18.7934 19.8696 18.369 19.2141 17.6124 19.0202C16.4407 18.7155 15.4259 19.5741 15.3797 21.0053C15.3797 22.7041 15.3797 24.4123 15.3797 26.1204V26.8684H12.4735C12.4735 26.6468 12.4735 26.4067 12.4735 26.1759C12.4735 24.3293 12.4735 22.5471 12.4735 20.7375C12.4735 19.5925 11.8831 18.9922 10.9605 18.9368C10.5182 18.9293 10.089 19.0868 9.75643 19.3786C9.42387 19.6705 9.21175 20.0759 9.16139 20.5156C9.09023 20.9024 9.05625 21.2951 9.05991 21.6883C9.05991 23.4056 9.05991 25.1231 9.05991 26.8774H6.13525Z" fill="white"/>
<path d="M25.593 19.0026H28.8959V20.4151H23.7293C23.619 19.9469 23.6325 19.4582 23.7684 18.9968C23.9043 18.5354 24.1579 18.1171 24.5043 17.7836C25.0948 17.1742 25.8236 16.7219 26.4233 16.1218C26.7826 15.7891 27.0442 15.3644 27.1798 14.8937C27.2262 14.7348 27.2289 14.5662 27.1879 14.4059C27.1468 14.2456 27.0635 14.0994 26.9465 13.9823C26.8296 13.8653 26.6833 13.7818 26.5231 13.7407C26.3629 13.6996 26.1946 13.7025 26.0358 13.7488C25.4553 13.9084 24.8878 14.112 24.3382 14.3581L23.6094 13.4348C24.1535 12.8853 24.8522 12.515 25.6121 12.3731C26.372 12.2312 27.1571 12.3247 27.8626 12.6409C28.1219 12.7951 28.3475 13 28.5261 13.2432C28.7048 13.4864 28.8327 13.763 28.9024 14.0567C28.9721 14.3504 28.9822 14.6551 28.9319 14.9528C28.8817 15.2504 28.7721 15.5348 28.6099 15.7893C28.1413 16.4128 27.5957 16.9744 26.9861 17.4605C26.5063 17.9037 25.9805 18.3101 25.4638 18.7348L25.593 19.0026Z" fill="white"/>
<path d="M21.9209 1.6537C21.5334 1.6537 21.1459 1.6537 20.7492 1.6537C20.3524 1.6537 19.8727 1.35831 19.8911 0.80432C19.8905 0.693875 19.9132 0.58462 19.9577 0.48355C20.0022 0.382479 20.0675 0.291858 20.1494 0.217781C20.2312 0.143704 20.3278 0.0878456 20.4327 0.0536767C20.5377 0.0195077 20.6486 0.00771703 20.7584 0.0194131C21.5426 0.0194131 22.3268 0.0194131 23.111 0.0194131C23.2202 0.00587842 23.331 0.0163441 23.4358 0.05007C23.5405 0.0837959 23.6366 0.140134 23.7174 0.214851C23.7982 0.289568 23.8618 0.381053 23.9036 0.482873C23.9455 0.584693 23.9647 0.694324 23.9598 0.80432C23.9598 1.35831 23.6277 1.626 23.1018 1.6537C22.5759 1.6814 22.3176 1.6537 21.9209 1.6537Z" fill="white"/>
<path d="M35.9722 27.3387C35.9722 27.7542 35.9722 28.1698 35.9722 28.5853C35.9735 28.6895 35.9537 28.7927 35.9142 28.8891C35.8747 28.9855 35.8161 29.0729 35.7421 29.1461C35.668 29.2194 35.5799 29.2772 35.4832 29.3156C35.3864 29.3541 35.2828 29.3727 35.1787 29.3702C35.0738 29.3806 34.9678 29.3685 34.8678 29.335C34.7678 29.3015 34.676 29.2474 34.5985 29.1759C34.5209 29.1044 34.4593 29.0173 34.4178 28.9202C34.3763 28.8232 34.3558 28.7183 34.3576 28.6128C34.2838 27.7464 34.2838 26.8755 34.3576 26.0092C34.3576 25.7414 34.8189 25.3906 35.1234 25.3167C35.5939 25.2059 35.8892 25.575 35.9353 26.0367C35.9584 26.4703 35.9584 26.9051 35.9353 27.3387H35.9722Z" fill="white"/>
<path d="M8.70938 1.65241C8.29761 1.67546 7.88487 1.67546 7.47309 1.65241C6.98411 1.65241 6.63352 1.34781 6.6612 0.821522C6.65808 0.711604 6.67836 0.602231 6.72068 0.500751C6.76299 0.399272 6.82639 0.308045 6.90666 0.232954C6.98693 0.157863 7.08222 0.100663 7.18625 0.0652432C7.29027 0.0298234 7.40063 0.016856 7.51001 0.0273729C8.29114 0.0273729 9.07535 0.0273729 9.86263 0.0273729C9.97754 0.0130981 10.0942 0.0248744 10.204 0.0616365C10.3138 0.0983986 10.414 0.159347 10.4972 0.239942C10.5803 0.320538 10.6444 0.418713 10.6847 0.527351C10.725 0.635989 10.7404 0.752339 10.7299 0.867733C10.7299 1.40325 10.3701 1.62472 9.88109 1.66166C9.39211 1.69859 9.09687 1.65241 8.70938 1.65241Z" fill="white"/>
<path d="M28.5455 0.00976562C28.9515 0.00976562 29.3667 0.00976562 29.7818 0.00976562C29.9972 0.00976563 30.2037 0.0954311 30.3559 0.247807C30.5082 0.400184 30.5937 0.606906 30.5937 0.822399C30.5937 1.03789 30.5082 1.24461 30.3559 1.39699C30.2037 1.54937 29.9972 1.63481 29.7818 1.63481C28.933 1.63481 28.0842 1.63481 27.2354 1.63481C27.1311 1.63547 27.0278 1.61412 26.9324 1.57192C26.837 1.52971 26.7516 1.46765 26.6818 1.39C26.6121 1.31235 26.5596 1.22075 26.5278 1.1213C26.496 1.02186 26.4856 0.916903 26.4974 0.813157C26.4936 0.708638 26.5112 0.60449 26.5491 0.507039C26.5871 0.409587 26.6445 0.320841 26.718 0.246455C26.7915 0.172069 26.8793 0.113569 26.9763 0.0744607C27.0732 0.0353523 27.1771 0.0164181 27.2816 0.0190078C27.6968 0.0190078 28.1119 0.0190078 28.5271 0.0190078L28.5455 0.00976562Z" fill="white"/>
<path d="M35.9723 7.48899C35.9723 7.85831 35.9723 8.2276 35.9723 8.59692C35.9723 9.12321 35.7047 9.52023 35.142 9.52023C34.5792 9.52023 34.3393 9.15091 34.3301 8.59692C34.3301 7.8398 34.3301 7.07348 34.3301 6.31636C34.3301 5.79931 34.5976 5.39305 35.1512 5.39305C35.269 5.389 35.3863 5.41107 35.4947 5.45752C35.6031 5.50397 35.6999 5.5736 35.7783 5.66175C35.8567 5.74989 35.9147 5.85429 35.9483 5.96742C35.9818 6.08054 35.99 6.1997 35.9723 6.31636C35.9816 6.69492 35.9723 7.09196 35.9723 7.48899Z" fill="white"/>
<path d="M35.9724 14.0895C35.9724 14.4773 35.9724 14.8743 35.9724 15.2621C35.9801 15.3718 35.9649 15.4819 35.9279 15.5854C35.8909 15.6888 35.8328 15.7835 35.7574 15.8633C35.6819 15.9432 35.5908 16.0063 35.4896 16.0491C35.3885 16.0918 35.2795 16.1133 35.1697 16.1117C35.0594 16.1199 34.9486 16.1043 34.8448 16.066C34.741 16.0277 34.6466 15.9675 34.568 15.8897C34.4893 15.8119 34.4282 15.7179 34.3888 15.6145C34.3494 15.511 34.3325 15.4004 34.3394 15.2899C34.3394 14.4681 34.3394 13.6372 34.3394 12.8154C34.3326 12.7053 34.3506 12.5951 34.3919 12.4929C34.4333 12.3906 34.497 12.2988 34.5784 12.2244C34.6598 12.15 34.7569 12.0949 34.8624 12.063C34.9679 12.0311 35.0792 12.023 35.1882 12.0398C35.2928 12.0396 35.3963 12.0609 35.4923 12.1022C35.5884 12.1436 35.6749 12.2042 35.7467 12.2803C35.8184 12.3564 35.8738 12.4466 35.9095 12.5449C35.9451 12.6433 35.9602 12.748 35.9539 12.8524C35.9539 13.2587 35.9539 13.674 35.9539 14.0895H35.9724Z" fill="white"/>
<path d="M35.9725 20.7559C35.9725 21.1437 35.9725 21.5408 35.9725 21.9285C35.9778 22.0387 35.96 22.1486 35.92 22.2513C35.8801 22.3541 35.8189 22.4475 35.7406 22.525C35.6623 22.6025 35.5685 22.6624 35.4654 22.7013C35.3622 22.7401 35.2521 22.7566 35.1421 22.75C35.036 22.7539 34.9304 22.7359 34.8317 22.6968C34.733 22.6577 34.6435 22.5987 34.5689 22.5232C34.4943 22.4477 34.4362 22.3573 34.3983 22.2581C34.3604 22.1589 34.3435 22.0531 34.3487 21.947C34.3487 21.1253 34.3487 20.2941 34.3487 19.4724C34.3418 19.3619 34.3586 19.2512 34.398 19.1478C34.4375 19.0443 34.4986 18.9506 34.5772 18.8728C34.6559 18.7949 34.7503 18.7348 34.8541 18.6965C34.9579 18.6582 35.0687 18.6424 35.179 18.6505C35.2896 18.6489 35.3994 18.6703 35.5012 18.7136C35.6031 18.7569 35.6947 18.8212 35.7703 18.9021C35.8459 18.9829 35.9037 19.0788 35.9401 19.1834C35.9765 19.288 35.9907 19.399 35.9817 19.5094C35.9817 19.9248 35.9817 20.3404 35.9817 20.7559H35.9725Z" fill="white"/>
<path d="M15.3708 1.63343C14.9095 1.63343 14.4482 1.63343 14.0053 1.63343C13.8084 1.61222 13.6264 1.51892 13.4941 1.3715C13.3618 1.22407 13.2886 1.03293 13.2886 0.834775C13.2886 0.636621 13.3618 0.44548 13.4941 0.298054C13.6264 0.150628 13.8084 0.0573316 14.0053 0.0361178C14.8449 0.0361178 15.6937 0.0361178 16.5425 0.0361178C16.6468 0.0308181 16.7512 0.0474677 16.8487 0.0850336C16.9463 0.122599 17.0349 0.180361 17.1088 0.254323C17.1827 0.328284 17.2402 0.416837 17.2778 0.514456C17.3153 0.612074 17.332 0.716562 17.3267 0.821024C17.3362 0.930965 17.3219 1.04173 17.2847 1.14563C17.2475 1.24952 17.1884 1.34399 17.1113 1.42289C17.0342 1.5018 16.941 1.56325 16.8381 1.60278C16.7351 1.6423 16.6248 1.65898 16.5148 1.65192C16.1273 1.65192 15.7306 1.65192 15.3431 1.65192L15.3708 1.63343Z" fill="white"/>
<path d="M34.284 1.68926C34.0995 1.68926 33.8966 1.6892 33.8135 1.62457C33.5552 1.37527 33.2046 1.1076 33.1492 0.793676C33.0939 0.479749 33.4168 0.0734192 33.8597 0.0272535C34.3139 -0.0142928 34.7709 -0.0142928 35.2251 0.0272535C35.3374 0.0305414 35.4478 0.0584237 35.5483 0.10863C35.6489 0.158835 35.7374 0.230204 35.8076 0.318043C35.8778 0.405883 35.9281 0.507944 35.955 0.617173C35.9818 0.726403 35.9846 0.840146 35.9632 0.950567C35.9078 1.61535 36.3046 2.45557 35.3819 2.79719C34.8192 3.05572 34.4317 2.63104 34.284 1.68926Z" fill="white"/>
<path d="M2.74016 0.0101163C3.66277 0.0101163 4.11485 0.241053 4.1333 0.813507C4.15176 1.38596 3.73658 1.66288 2.71249 1.66288C2.51874 1.66288 2.325 1.66288 2.13125 1.66288C1.63305 1.60749 1.28246 1.34905 1.29168 0.831992C1.29014 0.720901 1.31165 0.610641 1.35483 0.508291C1.39802 0.405941 1.46195 0.313699 1.54259 0.237338C1.62323 0.160977 1.71882 0.102172 1.82332 0.0646675C1.92782 0.0271632 2.03895 0.0116856 2.1497 0.0193584C2.34344 0.000892157 2.53719 0.0101163 2.74016 0.0101163Z" fill="white"/>
<path d="M35.9817 33.3403C35.9817 33.6081 36.0462 33.9219 35.9263 34.1158C35.8064 34.3097 35.4281 34.7346 35.1606 34.7438C34.9942 34.712 34.8382 34.64 34.7063 34.5337C34.5744 34.4275 34.4706 34.2901 34.404 34.1343C34.2915 33.6434 34.2758 33.1357 34.3579 32.6388C34.3648 32.5397 34.3915 32.4426 34.4363 32.3539C34.481 32.2652 34.543 32.1862 34.6186 32.1217C34.6942 32.0573 34.7819 32.0085 34.8765 31.9784C34.9712 31.9482 35.0708 31.9375 35.1698 31.9464C35.37 31.946 35.5628 32.0223 35.7086 32.1596C35.8544 32.2969 35.9422 32.4848 35.954 32.6848C35.9724 32.903 35.9724 33.1222 35.954 33.3403H35.9817Z" fill="white"/>
<path d="M14.0787 34.3481C14.4662 34.3481 14.863 34.3481 15.2505 34.3481C15.6379 34.3481 16.1731 34.6437 16.1085 35.2069C16.1093 35.317 16.0866 35.4259 16.042 35.5265C15.9974 35.6272 15.9319 35.7174 15.8499 35.7907C15.7679 35.8641 15.6711 35.9191 15.5662 35.9521C15.4612 35.9852 15.3505 35.9954 15.2412 35.9823C14.4662 35.9823 13.682 35.9823 12.8978 35.9823C12.7881 35.9944 12.6771 35.9829 12.5724 35.9481C12.4677 35.9132 12.3718 35.8558 12.2912 35.7804C12.2106 35.7049 12.1472 35.613 12.1054 35.5108C12.0636 35.4086 12.0444 35.2987 12.049 35.1884C12.049 34.6344 12.3812 34.3665 12.907 34.3481C13.4329 34.3296 13.6913 34.3481 14.0787 34.3481Z" fill="white"/>
<path d="M0.0368559 8.65067C0.0368559 8.23518 0.0368559 7.81961 0.0368559 7.41335C0.0342682 7.30879 0.0530894 7.20491 0.0921677 7.10791C0.131246 7.01091 0.189757 6.92287 0.264086 6.84935C0.338415 6.77583 0.426994 6.71826 0.524371 6.68029C0.621747 6.64232 0.725858 6.62486 0.830296 6.62867C0.935237 6.61823 1.04119 6.63014 1.1412 6.66361C1.24122 6.69708 1.33303 6.75124 1.41058 6.82275C1.48814 6.89427 1.54969 6.98136 1.5912 7.07838C1.63271 7.1754 1.65323 7.2801 1.65141 7.38562C1.72065 8.25215 1.72065 9.1229 1.65141 9.98943C1.58537 10.1575 1.48085 10.3078 1.34625 10.4281C1.21165 10.5484 1.05073 10.6352 0.876429 10.6819C0.405901 10.7927 0.110663 10.4141 0.0645329 9.95246C0.0414445 9.51881 0.0414445 9.08432 0.0645329 8.65067H0.0368559Z" fill="white"/>
<path d="M27.3001 34.3385C27.7153 34.3385 28.1304 34.3385 28.5364 34.3385C28.651 34.33 28.766 34.3457 28.8742 34.3845C28.9824 34.4233 29.0812 34.4845 29.1643 34.5639C29.2473 34.6433 29.3128 34.7393 29.3565 34.8457C29.4002 34.952 29.4211 35.0662 29.4179 35.1811C29.4146 35.296 29.3873 35.4092 29.3377 35.5129C29.2881 35.6166 29.2173 35.7088 29.1298 35.7834C29.0424 35.858 28.9403 35.9131 28.8301 35.9457C28.72 35.9784 28.6042 35.9877 28.4902 35.9728C27.706 35.9728 26.931 35.9728 26.1468 35.9728C26.0319 35.987 25.9153 35.9753 25.8055 35.9385C25.6957 35.9017 25.5955 35.841 25.5123 35.7604C25.4291 35.6798 25.365 35.5814 25.3248 35.4728C25.2845 35.3642 25.269 35.2478 25.2796 35.1324C25.2796 34.5969 25.6394 34.3662 26.1284 34.3385C26.6174 34.3108 26.9126 34.3385 27.3001 34.3385Z" fill="white"/>
<path d="M7.46365 35.9815C7.04848 35.9815 6.63329 35.9815 6.22735 35.9815C6.12283 35.9852 6.01864 35.9682 5.92089 35.931C5.82313 35.8938 5.7338 35.8374 5.65815 35.7651C5.5825 35.6928 5.52206 35.6059 5.48038 35.5099C5.4387 35.4139 5.41663 35.3107 5.41547 35.2061C5.40177 35.096 5.41241 34.9842 5.44663 34.8787C5.48086 34.7732 5.53783 34.6767 5.61353 34.5956C5.68922 34.5146 5.78178 34.4512 5.88466 34.4099C5.98755 34.3686 6.09824 34.3504 6.20891 34.3567C7.04847 34.3567 7.89727 34.3567 8.74607 34.3567C8.85082 34.3573 8.95426 34.3797 9.0497 34.4229C9.14513 34.4662 9.23042 34.5294 9.30001 34.6078C9.36961 34.6861 9.42197 34.7779 9.45369 34.8778C9.48541 34.9778 9.49579 35.0834 9.48415 35.1876C9.48945 35.292 9.47278 35.3965 9.43525 35.4941C9.39771 35.5918 9.34013 35.6803 9.26623 35.7543C9.19232 35.8282 9.10374 35.8858 9.0062 35.9233C8.90865 35.9609 8.80432 35.9778 8.69993 35.9725C8.29399 35.9725 7.87882 35.9725 7.46365 35.9725V35.9815Z" fill="white"/>
<path d="M0.027832 28.5213C0.027832 28.1519 0.027832 27.7736 0.027832 27.4135C0.027832 26.878 0.295387 26.4902 0.848949 26.4902C1.40251 26.4902 1.66084 26.8688 1.67007 27.4135C1.67007 28.1707 1.67007 28.9275 1.67007 29.6939C1.67007 30.2109 1.41174 30.6172 0.848949 30.6172C0.286161 30.6172 0.046279 30.2479 0.037053 29.6939C0.027827 29.1399 0.027832 28.909 0.027832 28.5213Z" fill="white"/>
<path d="M0.0277905 21.9098C0.0277905 21.5128 0.0277905 21.125 0.0277905 20.7372C0.020188 20.6271 0.0353145 20.5165 0.0722342 20.4126C0.109154 20.3086 0.167073 20.2136 0.242379 20.1331C0.317685 20.0525 0.408765 19.9884 0.509942 19.9446C0.611118 19.9008 0.720219 19.8781 0.830451 19.8784C0.94043 19.8717 1.05057 19.8887 1.15369 19.9275C1.25681 19.9663 1.35059 20.0262 1.42893 20.1038C1.50727 20.1813 1.56841 20.2747 1.60836 20.3774C1.64831 20.4802 1.66617 20.5901 1.66079 20.7002C1.66079 21.522 1.66079 22.3531 1.66079 23.1749C1.66587 23.2857 1.64652 23.396 1.60413 23.4986C1.56173 23.6011 1.49731 23.6933 1.41544 23.7682C1.33357 23.8431 1.23626 23.8992 1.13038 23.9323C1.0245 23.9653 0.912666 23.9743 0.802774 23.9593C0.698989 23.9583 0.596498 23.9363 0.501537 23.8944C0.406576 23.8525 0.321117 23.7914 0.250361 23.7154C0.179604 23.6394 0.125035 23.5499 0.0899441 23.4521C0.0548528 23.3544 0.0399746 23.2506 0.0462324 23.1469C0.0462324 22.7314 0.0462324 22.3161 0.0462324 21.9098H0.0277905Z" fill="white"/>
<path d="M0.0367111 15.2437C0.0367111 14.8467 0.0367111 14.4589 0.0367111 14.0711C0.0326625 13.9605 0.0517468 13.8504 0.0927549 13.7476C0.133763 13.6448 0.195786 13.5518 0.274837 13.4744C0.353888 13.397 0.448231 13.3371 0.551804 13.2983C0.655378 13.2596 0.765902 13.2429 0.876284 13.2494C0.981121 13.2455 1.08564 13.2633 1.18319 13.3019C1.28075 13.3406 1.36921 13.399 1.44296 13.4737C1.51671 13.5484 1.57413 13.6376 1.61158 13.7356C1.64903 13.8337 1.66568 13.9387 1.66049 14.0436C1.66049 14.8746 1.66049 15.6962 1.66049 16.5272C1.66898 16.6419 1.65333 16.7571 1.61455 16.8654C1.57577 16.9736 1.51474 17.0723 1.43537 17.1555C1.356 17.2386 1.26008 17.3043 1.15381 17.348C1.04754 17.3917 0.933291 17.4125 0.818438 17.4093C0.703585 17.406 0.590695 17.3787 0.48706 17.329C0.383426 17.2794 0.291358 17.2087 0.216809 17.1212C0.142259 17.0337 0.0868774 16.9314 0.0542661 16.8212C0.0216548 16.7109 0.0125412 16.595 0.0274901 16.481C0.0274901 16.0655 0.0274901 15.6592 0.0274901 15.2437H0.0367111Z" fill="white"/>
<path d="M20.6388 34.3656C21.0909 34.3656 21.5614 34.3656 22.0043 34.3656C22.1028 34.3666 22.2002 34.3881 22.2902 34.4283C22.3802 34.4685 22.461 34.5264 22.5277 34.5992C22.5943 34.6719 22.6452 34.7575 22.6774 34.8507C22.7096 34.944 22.7223 35.0432 22.7147 35.1415C22.728 35.2455 22.7187 35.3511 22.6875 35.4512C22.6562 35.5514 22.6038 35.6433 22.5338 35.7213C22.4637 35.7993 22.3777 35.8613 22.2815 35.903C22.1854 35.9447 22.0814 35.9651 21.9766 35.9629C21.1278 35.9629 20.279 35.9629 19.4394 35.9629C19.3338 35.9682 19.2283 35.9514 19.1297 35.9134C19.031 35.8753 18.9414 35.8173 18.8666 35.7425C18.7919 35.6677 18.7336 35.5779 18.6956 35.4792C18.6576 35.3805 18.6407 35.2747 18.646 35.169C18.6393 35.0594 18.6559 34.9494 18.6947 34.8467C18.7336 34.7439 18.7939 34.6507 18.8715 34.573C18.9492 34.4953 19.0424 34.4352 19.1451 34.3963C19.2478 34.3574 19.3575 34.3404 19.4671 34.3471C19.8546 34.3471 20.2421 34.3471 20.6388 34.3471V34.3656Z" fill="white"/>
<path d="M1.72537 34.3109C1.90066 34.3109 2.10364 34.3112 2.18667 34.3758C2.445 34.6251 2.79558 34.8926 2.86017 35.1973C2.92475 35.502 2.58338 35.9268 2.14976 35.9637C1.69602 36.0145 1.23805 36.0145 0.784308 35.9637C0.671953 35.9604 0.561654 35.9327 0.461068 35.8825C0.360481 35.8323 0.272014 35.7607 0.201796 35.6729C0.131579 35.5851 0.0812934 35.4832 0.0544298 35.374C0.0275662 35.2648 0.0247643 35.1508 0.0462224 35.0404C0.101579 34.3756 -0.295131 33.5354 0.618246 33.1938C1.21794 32.9445 1.5962 33.3414 1.72537 34.3109Z" fill="white"/>
<path d="M33.2691 35.9819C32.2912 35.9819 31.8852 35.7604 31.8668 35.188C31.8483 34.6155 32.2727 34.3386 33.2876 34.3386C33.4842 34.3246 33.6815 34.3246 33.8781 34.3386C34.3763 34.3847 34.7268 34.6432 34.7084 35.1695C34.7099 35.2793 34.6887 35.3883 34.646 35.4896C34.6032 35.5908 34.54 35.6823 34.4602 35.7578C34.3804 35.8333 34.2858 35.8912 34.1825 35.9282C34.0791 35.9653 33.9692 35.9805 33.8596 35.9729C33.6659 35.9913 33.509 35.9819 33.2691 35.9819Z" fill="white"/>
<path d="M0.018238 2.69695C0.018238 2.43842 -0.0463375 2.11519 0.082827 1.93052C0.211992 1.74586 0.581035 1.30273 0.84859 1.30273C1.01554 1.33293 1.17225 1.40456 1.30442 1.51102C1.43658 1.61748 1.53996 1.75528 1.60512 1.91204C1.70232 2.40278 1.70232 2.90794 1.60512 3.39867C1.60071 3.49873 1.57576 3.59677 1.53183 3.68676C1.48789 3.77675 1.42591 3.85668 1.34975 3.92164C1.27358 3.98661 1.18485 4.03518 1.08911 4.06433C0.993364 4.09349 0.892637 4.10267 0.793222 4.09116C0.59427 4.08722 0.403874 4.00944 0.258969 3.87295C0.114063 3.73647 0.0249889 3.55097 0.00901701 3.35246C-0.00951609 3.13434 -0.00951609 2.91507 0.00901701 2.69695H0.018238Z" fill="white"/>
</g>
<defs>
<clipPath id="clip0_636_6478">
<rect width="36" height="36" fill="white"/>
</clipPath>
</defs>
</svg>
