<svg width="47" height="47" viewBox="0 0 47 47" fill="none" xmlns="http://www.w3.org/2000/svg">
<g clip-path="url(#clip0_636_6512)">
<path d="M13.3721 30.3015V22.1059H15.7274V23.3372C16.0227 22.9016 16.4153 22.541 16.8742 22.2839C17.3332 22.0267 17.8457 21.8801 18.3711 21.8557C18.8872 21.8134 19.4032 21.9383 19.8429 22.212C20.2827 22.4857 20.6227 22.8937 20.8129 23.3757C21.2875 22.6435 22.0292 22.1258 22.8798 21.9328C24.8505 21.5769 26.1579 22.5099 26.254 24.5011C26.3502 26.4923 26.254 28.3488 26.254 30.2727H23.8795V29.5223C23.8795 28.1371 23.8795 26.7615 23.8795 25.386C23.8795 24.424 23.5334 23.9143 22.9182 23.7604C21.9568 23.5103 21.1109 24.2124 21.0724 25.4052C21.0244 26.8193 21.0724 28.2332 21.0724 29.6473V30.263H18.6499V29.6954C18.6499 28.1852 18.6499 26.6846 18.6499 25.184C18.6499 24.2221 18.1596 23.7314 17.4001 23.693C17.0323 23.6814 16.6738 23.8101 16.3972 24.053C16.1205 24.2958 15.9464 24.6348 15.91 25.0013C15.8474 25.318 15.8184 25.6404 15.8235 25.9632C15.8235 27.3965 15.8235 28.849 15.8235 30.2727L13.3721 30.3015Z" fill="white"/>
<path d="M29.5132 23.7974H32.2338V24.9517H27.9655C27.8748 24.5638 27.8856 24.1592 27.9968 23.7768C28.1079 23.3943 28.3156 23.0469 28.5999 22.7681C29.0902 22.2583 29.7055 21.8832 30.2054 21.383C30.5033 21.1069 30.7195 20.7541 30.8303 20.3633C30.8792 20.229 30.8888 20.0836 30.8579 19.9441C30.827 19.8045 30.757 19.6769 30.656 19.5758C30.555 19.4748 30.4273 19.4045 30.2879 19.3736C30.1484 19.3427 30.0031 19.3524 29.8689 19.4013C29.3851 19.5295 28.9125 19.6968 28.4557 19.9015L27.8501 19.1705C28.305 18.717 28.8863 18.4119 29.5177 18.2952C30.1491 18.1785 30.8011 18.2556 31.3879 18.5164C31.6035 18.6445 31.7911 18.8148 31.9395 19.0171C32.0879 19.2194 32.1939 19.4495 32.2514 19.6937C32.3088 19.938 32.3164 20.1914 32.2738 20.4386C32.2311 20.6859 32.1391 20.922 32.0031 21.1328C31.6147 21.6467 31.1625 22.1089 30.6572 22.5083C30.2535 22.8835 29.8209 23.2203 29.3979 23.5762L29.5132 23.7974Z" fill="white"/>
<path d="M26.4659 9.39819C26.139 9.39819 25.8218 9.39819 25.5045 9.39819C25.1873 9.39819 24.7739 9.14809 24.7931 8.68637C24.7925 8.59485 24.8113 8.50419 24.8484 8.42052C24.8854 8.33685 24.9399 8.26191 25.0081 8.20094C25.0763 8.13996 25.1567 8.0943 25.244 8.06684C25.3312 8.03938 25.4233 8.03078 25.5141 8.04171C26.1582 8.04171 26.8119 8.04171 27.4368 8.04171C27.5277 8.03214 27.6196 8.04214 27.7063 8.07083C27.7931 8.09952 27.8728 8.14635 27.94 8.20822C28.0073 8.27009 28.0607 8.34559 28.0966 8.42968C28.1325 8.51377 28.1501 8.60458 28.1482 8.69599C28.1482 9.15772 27.8694 9.37895 27.4272 9.39819C26.985 9.41743 26.7831 9.39819 26.4659 9.39819Z" fill="white"/>
<path d="M38.1171 30.7148C38.1171 31.0515 38.1171 31.3979 38.1171 31.7442C38.1171 31.8304 38.0998 31.9157 38.0663 31.9952C38.0327 32.0747 37.9835 32.1467 37.9216 32.2068C37.8598 32.2669 37.7865 32.3139 37.7061 32.3451C37.6258 32.3764 37.5399 32.3911 37.4537 32.3886C37.3667 32.3982 37.2785 32.389 37.1952 32.3618C37.112 32.3346 37.0355 32.29 36.9708 32.2308C36.9062 32.1716 36.855 32.0993 36.8205 32.0187C36.7861 31.9381 36.7693 31.8511 36.7712 31.7634C36.7136 31.0463 36.7136 30.3258 36.7712 29.6087C36.7712 29.3874 37.1653 29.0892 37.4153 29.0314C37.8094 28.9352 38.0498 29.2432 38.0882 29.628C38.1075 29.99 38.1075 30.3527 38.0882 30.7148H38.1171Z" fill="white"/>
<path d="M15.4967 9.39837C15.1506 9.39837 14.8141 9.39837 14.468 9.39837C14.3722 9.40981 14.2751 9.40069 14.1831 9.37184C14.091 9.34298 14.0061 9.29501 13.934 9.23093C13.8619 9.16685 13.8041 9.08811 13.7646 9.00007C13.725 8.91204 13.7046 8.81665 13.7046 8.72014C13.7046 8.62362 13.725 8.52823 13.7646 8.4402C13.8041 8.35216 13.8619 8.27342 13.934 8.20934C14.0061 8.14527 14.091 8.0973 14.1831 8.06844C14.2751 8.03958 14.3722 8.03046 14.468 8.0419C15.1217 8.0419 15.7658 8.0419 16.3907 8.0419C16.8233 8.0419 17.1117 8.26312 17.1021 8.73446C17.0925 9.20581 16.8041 9.36952 16.4003 9.39837C15.9965 9.42723 15.8427 9.39837 15.4967 9.39837Z" fill="white"/>
<path d="M31.955 8.04132C32.3011 8.04132 32.6376 8.04132 32.9836 8.04132C33.0703 8.03876 33.1566 8.05364 33.2375 8.08476C33.3184 8.11589 33.3923 8.16264 33.455 8.22262C33.5176 8.28259 33.5677 8.35446 33.6023 8.43398C33.6369 8.5135 33.6554 8.59924 33.6566 8.68597C33.6663 8.77647 33.6564 8.86781 33.6277 8.95416C33.599 9.04052 33.552 9.11983 33.49 9.18643C33.428 9.25303 33.3524 9.30545 33.2684 9.34025C33.1843 9.37506 33.0938 9.39144 33.0029 9.38816C32.3011 9.38816 31.5897 9.38816 30.8879 9.38816C30.8007 9.38733 30.7146 9.36817 30.6352 9.33203C30.5558 9.29589 30.4848 9.24345 30.4269 9.17821C30.3689 9.11297 30.3253 9.03637 30.2987 8.95323C30.2721 8.87008 30.2633 8.78238 30.2727 8.6956C30.27 8.60898 30.2851 8.52253 30.317 8.44196C30.3489 8.3614 30.397 8.28836 30.4582 8.22708C30.5195 8.1658 30.5926 8.11763 30.6731 8.0857C30.7536 8.05377 30.8398 8.03865 30.9264 8.04132C31.2725 8.04132 31.6089 8.04132 31.955 8.04132Z" fill="white"/>
<path d="M38.127 14.2374C38.127 14.5356 38.127 14.8433 38.127 15.1512C38.127 15.459 37.9059 15.8919 37.4444 15.8919C36.983 15.8919 36.7715 15.5744 36.7715 15.1415C36.7715 14.5163 36.7715 13.8814 36.7715 13.2177C36.7715 12.7848 36.9926 12.4577 37.4541 12.4673C37.5502 12.4634 37.6461 12.4808 37.7347 12.5183C37.8234 12.5558 37.9027 12.6124 37.967 12.6841C38.0313 12.7558 38.0789 12.8406 38.1066 12.9328C38.1342 13.025 38.1412 13.1224 38.127 13.2177C38.127 13.5832 38.127 13.9103 38.127 14.2374Z" fill="white"/>
<path d="M38.1268 19.7203C38.1268 20.0378 38.1268 20.3648 38.1268 20.6823C38.1335 20.7729 38.1212 20.8639 38.0908 20.9495C38.0603 21.0352 38.0123 21.1136 37.9499 21.1797C37.8875 21.2458 37.812 21.298 37.7283 21.3333C37.6445 21.3685 37.5543 21.386 37.4635 21.3845C37.3716 21.3915 37.2793 21.3788 37.1928 21.3471C37.1062 21.3154 37.0275 21.2655 36.9619 21.2008C36.8963 21.1361 36.8453 21.058 36.8124 20.9718C36.7795 20.8857 36.7655 20.7935 36.7713 20.7015C36.7713 20.0186 36.7713 19.3355 36.7713 18.6525C36.7676 18.561 36.784 18.4697 36.8194 18.3852C36.8548 18.3008 36.9084 18.2253 36.9763 18.1638C37.0441 18.1023 37.1247 18.0563 37.2122 18.0294C37.2997 18.0025 37.392 17.9953 37.4827 18.0081C37.5694 18.0079 37.6551 18.0255 37.7347 18.0597C37.8143 18.094 37.8861 18.1444 37.9455 18.2075C38.005 18.2705 38.0508 18.345 38.0804 18.4266C38.1099 18.5081 38.1224 18.5948 38.1172 18.6814C38.1172 19.0181 38.1172 19.3644 38.1172 19.7107L38.1268 19.7203Z" fill="white"/>
<path d="M38.1173 25.2416C38.1173 25.5686 38.1173 25.8957 38.1173 26.2035C38.1201 26.2944 38.104 26.3846 38.07 26.4689C38.0359 26.5532 37.9847 26.6296 37.9196 26.6929C37.8545 26.7563 37.7769 26.8052 37.6917 26.8369C37.6066 26.8686 37.5158 26.8822 37.4251 26.8768C37.3382 26.8809 37.2513 26.8669 37.1702 26.8355C37.089 26.8041 37.0153 26.7559 36.9537 26.6944C36.8922 26.6328 36.8442 26.559 36.8128 26.4778C36.7814 26.3966 36.7673 26.3098 36.7714 26.2228C36.7714 25.5302 36.7714 24.8471 36.7714 24.1641C36.76 24.0683 36.769 23.9711 36.7978 23.879C36.8267 23.7869 36.8747 23.702 36.9387 23.6298C37.0028 23.5577 37.0814 23.4998 37.1693 23.4603C37.2573 23.4207 37.3527 23.4004 37.4492 23.4004C37.5456 23.4004 37.641 23.4207 37.729 23.4603C37.8169 23.4998 37.8955 23.5577 37.9596 23.6298C38.0236 23.702 38.0717 23.7869 38.1005 23.879C38.1293 23.9711 38.1383 24.0683 38.1269 24.1641C38.1269 24.5104 38.1269 24.8568 38.1269 25.1934L38.1173 25.2416Z" fill="white"/>
<path d="M21.0246 9.3792C20.6467 9.39844 20.268 9.39844 19.8902 9.3792C19.8089 9.37947 19.7286 9.3628 19.6541 9.33035C19.5796 9.2979 19.5127 9.25031 19.4575 9.19062C19.4024 9.13093 19.3603 9.06056 19.3338 8.98372C19.3073 8.90688 19.2971 8.82518 19.3038 8.74417C19.2926 8.65756 19.3004 8.56966 19.3264 8.48631C19.3524 8.40297 19.3962 8.32619 19.4546 8.26133C19.513 8.19647 19.5848 8.14509 19.6649 8.11056C19.7451 8.07602 19.8318 8.05914 19.919 8.06124C20.624 8.06124 21.3258 8.06124 22.0243 8.06124C22.1113 8.05712 22.1981 8.07139 22.2793 8.10281C22.3605 8.13422 22.4342 8.18213 22.4957 8.24372C22.5573 8.3053 22.6053 8.37902 22.6367 8.46024C22.6681 8.54147 22.6822 8.62853 22.678 8.71552C22.6837 8.80668 22.6699 8.89784 22.6376 8.98325C22.6052 9.06866 22.5552 9.14624 22.4906 9.21081C22.4261 9.27539 22.3486 9.3255 22.2632 9.35783C22.1778 9.39016 22.0866 9.40408 21.9955 9.39846C21.6783 9.39846 21.3514 9.39846 21.0342 9.39846L21.0246 9.3792Z" fill="white"/>
<path d="M36.7231 9.42639C36.5693 9.42639 36.4058 9.42634 36.3289 9.37824C36.252 9.33015 35.829 8.9454 35.781 8.68568C35.7329 8.42596 36.0021 8.08913 36.3674 8.05066C36.7448 8.01697 37.1244 8.01697 37.5018 8.05066C37.5931 8.05503 37.6824 8.07863 37.7641 8.1197C37.8458 8.16077 37.9179 8.21855 37.9759 8.28926C38.0339 8.35996 38.0764 8.44205 38.1007 8.53021C38.125 8.61838 38.1306 8.71054 38.117 8.80099C38.069 9.34929 38.3958 10.0516 37.6364 10.3691C37.1653 10.5614 36.8288 10.2152 36.7231 9.42639Z" fill="white"/>
<path d="M10.546 8.03125C11.3535 8.03125 11.69 8.22381 11.7092 8.69516C11.7284 9.16651 11.3727 9.40698 10.5267 9.40698C10.3635 9.4166 10.1997 9.4166 10.0365 9.40698C9.63269 9.40698 9.33468 9.14729 9.35391 8.71442C9.35232 8.62351 9.3697 8.53309 9.40493 8.44928C9.44015 8.36547 9.49245 8.29004 9.55848 8.22758C9.62451 8.16513 9.70282 8.11714 9.78843 8.08667C9.87404 8.0562 9.96508 8.04381 10.0557 8.05051L10.546 8.03125Z" fill="white"/>
<path d="M38.1266 35.6485C38.1266 35.8698 38.1843 36.1294 38.0785 36.293C37.9728 36.4565 37.6652 36.8028 37.444 36.8124C37.3054 36.787 37.1754 36.7268 37.0661 36.6377C36.9569 36.5486 36.872 36.4334 36.8192 36.3026C36.7374 35.8962 36.7374 35.4776 36.8192 35.0713C36.8226 34.9882 36.8431 34.9066 36.8794 34.8317C36.9157 34.7569 36.967 34.6903 37.0302 34.6361C37.0933 34.582 37.1669 34.5415 37.2464 34.517C37.3258 34.4926 37.4095 34.4847 37.4921 34.494C37.6583 34.496 37.8178 34.5604 37.9389 34.6744C38.0599 34.7884 38.1338 34.9439 38.1458 35.1098C38.1603 35.2891 38.1603 35.4693 38.1458 35.6485H38.1266Z" fill="white"/>
<path d="M4.3068 36.0729C4.42216 35.8035 4.47023 35.4379 4.67211 35.284C4.87399 35.1301 5.4604 34.7935 5.73918 34.8897C6.01797 34.9859 6.21986 35.4957 6.34484 35.8516C6.40252 36.0536 6.22948 36.3326 6.14296 36.5635C5.47964 38.3815 4.80669 40.1995 4.15298 42.0175C4.11613 42.2452 3.99879 42.4519 3.82234 42.6002C3.64589 42.7485 3.42206 42.8286 3.19164 42.8256C2.964 42.8294 2.74243 42.7522 2.56639 42.6077C2.39034 42.4633 2.27124 42.2609 2.23029 42.0368C1.55735 40.1706 0.865193 38.3141 0.192253 36.4479C-0.105763 35.611 0.0480627 35.0821 0.653708 34.8704C1.25935 34.6588 1.61503 34.957 1.9515 35.7842L2.20145 36.3711V6.55122C2.0188 6.96485 1.92267 7.2342 1.78808 7.51316C1.70261 7.72613 1.53611 7.89642 1.32519 7.98661C1.11428 8.0768 0.876203 8.07951 0.663302 7.99412C0.543964 7.96779 0.431746 7.91582 0.334366 7.84194C0.236986 7.76806 0.156779 7.67387 0.0992232 7.566C0.0416676 7.45813 0.00814256 7.33908 0.000970823 7.21701C-0.00620092 7.09494 0.0131235 6.97275 0.0576515 6.85887C0.807498 4.75224 1.56696 2.6552 2.37449 0.577429C2.45208 0.429294 2.56427 0.302065 2.70152 0.206606C2.83876 0.111147 2.997 0.0504493 3.1628 0.0292969C3.34074 0.0442908 3.51293 0.0996536 3.6662 0.191341C3.81948 0.283029 3.9498 0.408432 4.04724 0.558172C4.84516 2.61671 5.59499 4.69469 6.316 6.78208C6.368 6.89203 6.39514 7.012 6.39547 7.13364C6.3958 7.25528 6.36931 7.37545 6.3179 7.48568C6.26649 7.59591 6.19143 7.69337 6.09805 7.77125C6.00466 7.84913 5.89527 7.90561 5.77765 7.93635C5.66029 7.98633 5.53369 8.01094 5.40617 8.00845C5.27865 8.00596 5.15307 7.97631 5.03775 7.92179C4.92242 7.86727 4.81994 7.7891 4.73703 7.69211C4.65413 7.59512 4.5927 7.48155 4.55675 7.3591C4.47038 7.10339 4.3438 6.86311 4.18182 6.64728V36.0921L4.3068 36.0729Z" fill="white"/>
<path d="M40.3091 44.7881H10.8921V44.8745C11.1612 44.9899 11.44 45.0862 11.69 45.2209C11.8546 45.3473 11.9739 45.5236 12.0301 45.7235C12.0863 45.9234 12.0763 46.1363 12.0017 46.3301C11.927 46.5239 11.7917 46.6879 11.616 46.7984C11.4402 46.9088 11.2335 46.9594 11.0266 46.9426C8.92131 46.1923 6.82558 45.4324 4.74908 44.6244C4.60467 44.543 4.48208 44.4281 4.39169 44.289C4.3013 44.15 4.24583 43.9912 4.22998 43.8262C4.24496 43.6507 4.30051 43.4811 4.39228 43.3309C4.48404 43.1806 4.6095 43.0537 4.75871 42.9603C6.78714 42.1619 8.84439 41.4213 10.9017 40.6903C11.0165 40.6349 11.1421 40.6053 11.2695 40.6036C11.397 40.6019 11.5233 40.6279 11.6396 40.6802C11.7559 40.7324 11.8594 40.8094 11.9428 40.9058C12.0262 41.0023 12.0876 41.1157 12.1226 41.2384C12.1705 41.3566 12.1925 41.4837 12.1873 41.6111C12.1821 41.7385 12.1498 41.8633 12.0924 41.9772C12.035 42.0911 11.954 42.1913 11.8548 42.2712C11.7555 42.3512 11.6403 42.409 11.5169 42.4408C11.2645 42.5385 11.0255 42.6679 10.8056 42.8257H40.2899V42.7294C40.0496 42.6332 39.8092 42.5466 39.5785 42.4408C39.4634 42.4049 39.3566 42.3463 39.2645 42.2684C39.1723 42.1905 39.0967 42.0949 39.0421 41.9873C38.9874 41.8797 38.9548 41.7625 38.9462 41.6421C38.9377 41.5217 38.9532 41.4008 38.9921 41.2865C39.0184 41.1619 39.0722 41.0448 39.1496 40.9437C39.2269 40.8425 39.3258 40.7598 39.4391 40.7018C39.5524 40.6437 39.6772 40.6117 39.8044 40.6081C39.9316 40.6044 40.0581 40.6292 40.1745 40.6806C40.7994 40.8634 41.4147 41.1038 42.0203 41.325C43.3854 41.8252 44.7505 42.3447 46.1252 42.8257C46.6155 42.9989 47.0001 43.2586 47.0001 43.7876C47.0001 44.3167 46.6059 44.6053 46.106 44.7496C44.241 45.4133 42.3856 46.1058 40.5206 46.7791C39.7996 47.0388 39.2517 46.8754 39.0498 46.3559C38.8479 45.8365 39.1171 45.3171 39.8861 45.0093L40.3476 44.8167L40.3091 44.7881Z" fill="white"/>
</g>
<defs>
<clipPath id="clip0_636_6512">
<rect width="47" height="47" fill="white"/>
</clipPath>
</defs>
</svg>
