<svg width="36" height="37" viewBox="0 0 36 37" fill="none" xmlns="http://www.w3.org/2000/svg">
<g clip-path="url(#clip0_1642_234)">
<path d="M1.02754 0.953796C0.804853 0.978342 0.598869 1.08378 0.448741 1.25008C0.298613 1.41638 0.21475 1.63192 0.213029 1.85596V6.35451C0.213029 6.59379 0.30815 6.82316 0.477345 6.99236C0.646539 7.16155 0.875911 7.25667 1.11519 7.25667H2.46858V29.7488H1.02754C0.802673 29.7679 0.593388 29.8717 0.442164 30.0392C0.290939 30.2067 0.209047 30.4255 0.213029 30.6512V35.137C0.213029 35.3763 0.30815 35.6058 0.477345 35.775C0.646539 35.9442 0.875911 36.0392 1.11519 36.0392H5.61375C5.85302 36.0392 6.0824 35.9442 6.25159 35.775C6.42078 35.6058 6.5159 35.3763 6.5159 35.137V33.7963H26.3141C26.5534 33.7963 26.7828 33.7012 26.952 33.532C27.1212 33.3628 27.2163 33.1333 27.2163 32.894C27.2163 32.6547 27.1212 32.4254 26.952 32.2562C26.7828 32.087 26.5534 31.9919 26.3141 31.9919H6.49082V30.6512C6.49082 30.4119 6.39585 30.1824 6.22666 30.0132C6.05746 29.844 5.82794 29.7488 5.58866 29.7488H4.23542V7.25667H5.58866C5.82794 7.25667 6.05746 7.16155 6.22666 6.99236C6.39585 6.82316 6.49082 6.59379 6.49082 6.35451V5.00112H26.2891C26.4156 5.01611 26.5439 5.00412 26.6655 4.96594C26.7871 4.92776 26.8991 4.86428 26.9944 4.77964C27.0896 4.69499 27.1659 4.59119 27.2181 4.47494C27.2704 4.35869 27.2974 4.23267 27.2974 4.10523C27.2974 3.9778 27.2704 3.85178 27.2181 3.73553C27.1659 3.61928 27.0896 3.51548 26.9944 3.43083C26.8991 3.34619 26.7871 3.28271 26.6655 3.24453C26.5439 3.20635 26.4156 3.19435 26.2891 3.20935H6.46573V1.85596C6.46573 1.61668 6.37077 1.38731 6.20157 1.21811C6.03238 1.04892 5.80285 0.953796 5.56358 0.953796H1.02754ZM29.8477 0.953796C29.6239 0.975652 29.4163 1.08029 29.2657 1.24717C29.115 1.41406 29.0321 1.63113 29.0332 1.85596V6.35451C29.0315 6.4724 29.0533 6.58944 29.0973 6.69883C29.1412 6.80822 29.2066 6.9078 29.2894 6.99174C29.3722 7.07569 29.4708 7.14235 29.5795 7.18784C29.6883 7.23333 29.805 7.25668 29.9229 7.25667H31.2762V26.9295C31.2762 27.1688 31.3711 27.3983 31.5403 27.5675C31.7095 27.7367 31.9391 27.8318 32.1783 27.8318C32.4176 27.8318 32.6471 27.7367 32.8163 27.5675C32.9855 27.3983 33.0805 27.1688 33.0805 26.9295V7.23159H34.4213C34.6606 7.23159 34.89 7.13662 35.0592 6.96742C35.2284 6.79823 35.3235 6.56871 35.3235 6.32943V1.83102C35.3235 1.59175 35.2284 1.36222 35.0592 1.19303C34.89 1.02383 34.6606 0.928711 34.4213 0.928711H29.8477V0.953796ZM2.04259 2.75827H4.73652V5.4522H2.04259V2.75827ZM30.8627 2.75827H33.5692V5.4522H30.8627V2.75827ZM29.8853 29.7865C29.6593 29.8026 29.4482 29.9054 29.2964 30.0736C29.1446 30.2418 29.0638 30.4622 29.0708 30.6886V35.1747C29.0691 35.2925 29.0909 35.4096 29.1349 35.519C29.1789 35.6284 29.2441 35.7279 29.3269 35.8119C29.4096 35.8958 29.5083 35.9625 29.617 36.008C29.7258 36.0535 29.8425 36.0768 29.9604 36.0768H34.459C34.6982 36.0768 34.9276 35.9817 35.0968 35.8125C35.266 35.6433 35.3611 35.4139 35.3611 35.1747V30.6886C35.3611 30.4494 35.266 30.22 35.0968 30.0508C34.9276 29.8816 34.6982 29.7865 34.459 29.7865H29.8853ZM2.08006 31.5784H4.77415V34.2849H2.08006V31.5784ZM30.9002 31.5784H33.6068V34.2849H30.9002V31.5784Z" fill="black" stroke="black" stroke-width="0.25" stroke-miterlimit="10"/>
</g>
<defs>
<clipPath id="clip0_1642_234">
<rect width="35.3986" height="35.3986" fill="white" transform="translate(0 0.803223)"/>
</clipPath>
</defs>
</svg>
