<svg width="48" height="40" viewBox="0 0 48 40" fill="none" xmlns="http://www.w3.org/2000/svg">
<g clip-path="url(#clip0_760_2338)">
<path d="M42.0443 6.40959H29.4248V5.36645C29.4221 3.94398 28.8469 2.58052 27.8252 1.57468C26.8035 0.568838 25.4186 0.00261364 23.9737 0C22.5315 0.0109897 21.1514 0.579908 20.1315 1.58394C19.1117 2.58798 18.5338 3.94657 18.5227 5.36645V6.40959H5.90562C4.3413 6.41351 2.84229 7.02754 1.73685 8.11722C0.631403 9.20689 0.00955606 10.6834 0.00756836 12.2235V34.1861C0.00956153 35.7275 0.632351 37.2051 1.73942 38.295C2.84649 39.3849 4.34747 39.998 5.9131 40H42.102C43.6676 39.998 45.1686 39.3849 46.2757 38.295C47.3828 37.2051 48.0056 35.7275 48.0075 34.1861V12.174C47.9838 10.6354 47.3456 9.16779 46.2309 8.08896C45.1163 7.01012 43.615 6.40681 42.0519 6.40959H42.0443ZM20.3907 5.36645C20.394 4.43193 20.7725 3.53663 21.4437 2.87583C22.115 2.21502 23.0245 1.84234 23.9737 1.83908C24.9232 1.84233 25.8328 2.21492 26.5044 2.87566C27.1761 3.5364 27.5552 4.4317 27.5592 5.36645V10.5327H20.3907V5.36645ZM46.0817 34.1861C46.0798 35.2266 45.6591 36.2239 44.9118 36.9596C44.1644 37.6953 43.1514 38.1095 42.0945 38.1115H5.90562C4.84875 38.1095 3.83571 37.6953 3.08839 36.9596C2.34107 36.2239 1.92029 35.2266 1.91829 34.1861V12.174C1.91962 11.1331 2.34014 10.1352 3.08753 9.39895C3.83493 8.66269 4.84832 8.24816 5.90562 8.2462H18.5227V11.425C18.5227 11.6755 18.6237 11.9156 18.8035 12.0927C18.9834 12.2698 19.2274 12.3693 19.4818 12.3693H28.5208C28.7752 12.3693 29.0192 12.2698 29.1991 12.0927C29.3789 11.9156 29.4799 11.6755 29.4799 11.425V8.2462H42.0996C42.624 8.24324 43.1438 8.34276 43.6289 8.53898C44.114 8.7352 44.5548 9.02423 44.9256 9.38932C45.2965 9.75441 45.59 10.1883 45.7893 10.6659C45.9887 11.1435 46.0898 11.6552 46.0868 12.1715L46.0817 34.1861Z" fill="#010101"/>
<path d="M40.0758 16.9448H26.7506C26.6247 16.9448 26.5 16.9692 26.3837 17.0166C26.2673 17.0641 26.1616 17.1337 26.0725 17.2213C25.9835 17.309 25.9128 17.4131 25.8646 17.5277C25.8164 17.6422 25.7915 17.765 25.7915 17.889C25.7873 18.0141 25.8093 18.1388 25.856 18.2552C25.9027 18.3716 25.9732 18.4774 26.0631 18.5659C26.153 18.6544 26.2605 18.7238 26.3788 18.7698C26.497 18.8158 26.6235 18.8374 26.7506 18.8333H40.0758C40.3302 18.8333 40.5742 18.7338 40.754 18.5567C40.9339 18.3796 41.0349 18.1395 41.0349 17.889C41.0391 17.7639 41.0171 17.6393 40.9704 17.5229C40.9237 17.4064 40.8533 17.3007 40.7633 17.2121C40.6734 17.1236 40.566 17.0542 40.4478 17.0082C40.3295 16.9623 40.2029 16.9406 40.0758 16.9448Z" fill="#010101"/>
<path d="M40.0758 24.2986H26.7506C26.6246 24.2986 26.5 24.323 26.3837 24.3705C26.2673 24.4179 26.1616 24.4875 26.0725 24.5752C25.9834 24.6628 25.9128 24.7669 25.8646 24.8815C25.8164 24.9961 25.7915 25.1189 25.7915 25.2429C25.7915 25.4933 25.8926 25.7335 26.0725 25.9105C26.2524 26.0876 26.4962 26.1871 26.7506 26.1871H40.0758C40.3302 26.1871 40.5741 26.0876 40.754 25.9105C40.9339 25.7335 41.0349 25.4933 41.0349 25.2429C41.0391 25.1177 41.0171 24.9931 40.9704 24.8767C40.9237 24.7602 40.8532 24.6545 40.7633 24.566C40.6734 24.4774 40.566 24.4081 40.4478 24.3621C40.3295 24.3161 40.2029 24.2945 40.0758 24.2986Z" fill="#010101"/>
<path d="M40.0758 31.603H26.7506C26.4962 31.603 26.2524 31.7025 26.0725 31.8796C25.8926 32.0567 25.7915 32.2969 25.7915 32.5473C25.7915 32.7977 25.8926 33.0379 26.0725 33.215C26.2524 33.3921 26.4962 33.4916 26.7506 33.4916H40.0758C40.3302 33.4916 40.5741 33.3921 40.754 33.215C40.9339 33.0379 41.0349 32.7977 41.0349 32.5473C41.0391 32.4222 41.0171 32.2975 40.9704 32.1811C40.9237 32.0647 40.8532 31.9589 40.7633 31.8704C40.6734 31.7819 40.566 31.7125 40.4478 31.6665C40.3295 31.6205 40.2029 31.5989 40.0758 31.603Z" fill="#010101"/>
<path d="M16.8078 24.5952C17.4498 24.1433 17.9725 23.5466 18.3325 22.8551C18.6924 22.1637 18.8789 21.3974 18.8767 20.6205C18.8721 19.3041 18.3389 18.043 17.3935 17.1122C16.448 16.1815 15.1669 15.6565 13.8298 15.652C12.4923 15.6559 11.2108 16.1805 10.2647 17.1114C9.31875 18.0422 8.78519 19.3037 8.78055 20.6205C8.77837 21.3977 8.96537 22.1641 9.32575 22.8556C9.68614 23.5472 10.2094 24.1437 10.852 24.5952C8.59224 25.9375 6.71167 28.7208 6.71167 32.2581C6.71167 32.5085 6.81267 32.7487 6.99255 32.9258C7.17242 33.1028 7.41639 33.2023 7.67077 33.2023C7.92515 33.2023 8.16912 33.1028 8.349 32.9258C8.52887 32.7487 8.62987 32.5085 8.62987 32.2581C8.62987 28.8296 11.2035 25.5988 13.8801 25.5988C16.6044 25.5988 19.1278 28.8296 19.1278 32.2581C19.1278 32.5085 19.2289 32.7487 19.4088 32.9258C19.5886 33.1028 19.8326 33.2023 20.087 33.2023C20.3414 33.2023 20.5853 33.1028 20.7652 32.9258C20.9451 32.7487 21.0461 32.5085 21.0461 32.2581C20.9457 28.7307 19.0776 25.9474 16.8078 24.5952ZM13.7771 23.7029C13.359 23.7045 12.9447 23.6246 12.5581 23.4678C12.1715 23.3109 11.8204 23.0803 11.5248 22.7891C11.2293 22.4979 10.9953 22.152 10.8363 21.7713C10.6773 21.3906 10.5965 20.9826 10.5985 20.571C10.5968 20.1596 10.6779 19.7519 10.837 19.3715C10.9962 18.9911 11.2302 18.6455 11.5257 18.3546C11.8212 18.0636 12.1723 17.8332 12.5587 17.6765C12.9451 17.5198 13.3592 17.44 13.7771 17.4416C14.1952 17.4397 14.6097 17.5192 14.9964 17.6758C15.3831 17.8323 15.7344 18.0627 16.0302 18.3537C16.3259 18.6446 16.5603 18.9904 16.7197 19.3709C16.879 19.7515 16.96 20.1594 16.9584 20.571C16.96 20.9828 16.8789 21.3908 16.7197 21.7715C16.5604 22.1522 16.3261 22.4981 16.0304 22.7892C15.7347 23.0804 15.3832 23.311 14.9965 23.4678C14.6098 23.6246 14.1954 23.7045 13.7771 23.7029Z" fill="#010101"/>
</g>
<defs>
<clipPath id="clip0_760_2338">
<rect width="48" height="40" fill="white"/>
</clipPath>
</defs>
</svg>
