<svg width="56" height="83" viewBox="0 0 56 83" fill="none" xmlns="http://www.w3.org/2000/svg">
<path d="M1.53315 47.2834C1.53315 36.2129 1.55251 25.1328 1.50412 14.0624C1.49445 12.8044 1.80411 12.4076 3.10082 12.456C5.55876 12.5625 8.01671 12.4851 10.4747 12.4851C12.1294 12.4851 12.1391 12.4851 12.1391 14.2172C12.1391 35.5356 12.1391 56.8442 12.1391 78.1625C12.1391 80.0592 12.1391 80.0592 14.0164 80.0592C23.3063 80.0592 32.6058 80.0592 41.8957 80.0689C42.5054 80.0689 43.2215 79.827 43.2698 80.9495C43.3182 82.072 42.786 82.1301 41.9247 82.1204C32.0059 82.1011 22.087 82.1107 12.1681 82.1107C9.08117 82.1107 5.99423 82.0623 2.91696 82.1398C1.81379 82.1688 1.5138 81.8591 1.5138 80.756C1.54283 69.5984 1.53315 58.4409 1.53315 47.2834Z" fill="black"/>
<path d="M33.322 36.5324C33.322 47.2641 33.3026 57.9959 33.351 68.7276C33.3607 69.9372 33.022 70.2856 31.8221 70.2469C29.1609 70.1598 26.4901 70.1888 23.8289 70.2372C22.9386 70.2566 22.6773 69.9566 22.7064 69.105C22.7644 67.6051 22.7161 66.1148 22.7161 64.6149C22.7161 44.5643 22.7161 24.5136 22.7161 4.47267C22.7161 2.69212 22.7161 2.68244 20.9742 2.68244C14.6455 2.68244 8.31676 2.68244 1.98803 2.68244C1.32032 2.68244 0.681641 2.81792 0.681641 1.7341C0.681641 0.708342 1.14613 0.611572 1.97835 0.611572C19.2227 0.630926 36.4573 0.621249 53.7016 0.621249C54.4661 0.621249 55.0951 0.592219 55.0467 1.69539C55.008 2.45019 54.8048 2.71147 54.0403 2.70179C51.7469 2.66309 49.4631 2.69212 47.1697 2.69212C43.086 2.69212 39.0024 2.7405 34.9284 2.66309C33.6994 2.64373 33.3026 2.92436 33.3026 4.23075C33.351 14.9818 33.322 25.762 33.322 36.5324Z" fill="black"/>
</svg>
