<!-- Generated by IcoMoon.io -->
<svg version="1.1" xmlns="http://www.w3.org/2000/svg" width="640" height="640" viewBox="0 0 640 640">
<title></title>
<g id="icomoon-ignore">
</g>
<path fill="#b9c4d5" d="M436.859 231.908c0-45.671-36.641-82.798-81.676-82.798s-81.659 37.144-81.659 82.814 36.641 82.814 81.659 82.814 81.676-37.16 81.676-82.831zM310.383 231.908c0-25.349 20.105-45.956 44.8-45.956s44.817 20.607 44.817 45.956-20.105 45.956-44.817 45.956-44.8-20.608-44.8-45.956z"></path>
<path fill="#b9c4d5" d="M189.202 472.896c0.234 9.996 8.394 18.011 18.424 18.011 0.002 0 0.003 0 0.005 0h0.419c9.999-0.232 18.016-8.392 18.016-18.424 0-0.149-0.002-0.297-0.005-0.446l0.001 0.022c-0.905-40.059 5.579-66.547 19.786-80.955 18.58-18.831 52.876-18.513 92.583-18.161 11.007 0.101 22.383 0.101 33.391 0 39.874-0.352 74.304-0.67 92.884 18.228 14.174 14.408 20.574 40.863 19.535 80.837-0.004 0.14-0.006 0.304-0.006 0.469 0 10.181 8.254 18.435 18.435 18.435 10.017 0 18.167-7.989 18.429-17.942l0.001-0.024c1.29-50.496-8.561-85.696-30.157-107.627-29.554-30.040-73.248-29.654-119.489-29.236-10.806 0.101-21.947 0.101-32.754 0-46.090-0.419-89.65-0.804-119.187 29.118-21.495 21.898-31.431 57.114-30.308 107.694z"></path>
<path fill="#b9c4d5" d="M48.586 211.284h91.879c10.178 0 18.429-8.251 18.429-18.429s-8.251-18.429-18.429-18.429v0h-91.879c-10.178 0-18.429 8.251-18.429 18.429s8.251 18.429 18.429 18.429v0z"></path>
<path fill="#b9c4d5" d="M158.894 454.249c0-10.178-8.251-18.429-18.429-18.429v0h-91.879c-10.178 0-18.429 8.251-18.429 18.429s8.251 18.429 18.429 18.429v0h91.879c10.178 0 18.429-8.251 18.429-18.429v0z"></path>
<path fill="#b9c4d5" d="M77.068 248.662v155.56c0 10.178 8.251 18.429 18.429 18.429s18.429-8.251 18.429-18.429v0-155.56c0-10.178-8.251-18.429-18.429-18.429s-18.429 8.251-18.429 18.429v0z"></path>
<path fill="#b9c4d5" d="M548.624 0h-453.127c-10.178 0-18.429 8.251-18.429 18.429v0 121.483c0 10.178 8.251 18.429 18.429 18.429s18.429-8.251 18.429-18.429v0-103.053h434.697c13.453 0.047 24.341 10.954 24.36 24.409v517.464c-0.019 13.456-10.908 24.363-24.356 24.411h-434.702v-91.761c0-10.178-8.251-18.429-18.429-18.429s-18.429 8.251-18.429 18.429v0 110.191c0 10.178 8.251 18.429 18.429 18.429v0h453.127c33.798-0.076 61.171-27.468 61.219-61.264v-517.466c-0.048-33.801-27.422-61.193-61.211-61.269h-0.007z"></path>
</svg>
