<!-- Generated by IcoMoon.io -->
<svg version="1.1" xmlns="http://www.w3.org/2000/svg" width="640" height="640" viewBox="0 0 640 640">
<title></title>
<g id="icomoon-ignore">
</g>
<path fill="#000" d="M547.964 58.883h-62.309v-38.729c0-11.131-9.023-20.154-20.154-20.154s-20.154 9.023-20.154 20.154v0 38.746h-255.281v-38.746c0-11.131-9.023-20.154-20.154-20.154s-20.154 9.023-20.154 20.154v0 38.746h-57.841c-50.742 0.057-91.861 41.176-91.918 91.913v397.253c0.057 50.745 41.174 91.868 91.912 91.935h456.053c50.747-0.058 91.87-41.186 91.918-91.93v-397.252c-0.058-50.745-41.174-91.868-91.912-91.935h-0.006zM91.918 99.19h57.841v29.257c0 11.131 9.023 20.154 20.154 20.154s20.154-9.023 20.154-20.154v0-29.24h255.281v29.24c0 11.131 9.023 20.154 20.154 20.154s20.154-9.023 20.154-20.154v0-29.24h62.309c28.488 0.038 51.572 23.122 51.611 51.607v49.146h-559.267v-49.142c0.029-28.492 23.118-51.582 51.608-51.611h0.002zM547.964 599.676h-456.046c-28.488-0.038-51.573-23.122-51.611-51.607v-307.786h559.268v307.782c-0.029 28.492-23.118 51.582-51.608 51.611h-0.002z"></path>
<path fill="#000" d="M344.394 301.904h-55.624c-11.131 0-20.154 9.023-20.154 20.154v0 55.624c0 11.131 9.023 20.154 20.154 20.154v0h55.624c11.131 0 20.154-9.023 20.154-20.154v0-55.624c0-11.131-9.023-20.154-20.154-20.154v0zM324.241 357.528h-15.317v-15.317h15.317z"></path>
<path fill="#000" d="M506.884 301.904h-55.624c-11.131 0-20.154 9.023-20.154 20.154v0 55.624c0 11.131 9.023 20.154 20.154 20.154v0h55.624c11.131 0 20.154-9.023 20.154-20.154v0-55.624c0-11.131-9.023-20.154-20.154-20.154v0zM486.731 357.528h-15.317v-15.317h15.317z"></path>
<path fill="#000" d="M344.394 441.301h-55.624c-11.131 0-20.154 9.023-20.154 20.154v0 55.624c0 11.131 9.023 20.154 20.154 20.154v0h55.624c11.131 0 20.154-9.023 20.154-20.154v0-55.624c0-11.131-9.023-20.154-20.154-20.154v0zM324.241 496.925h-15.317v-15.317h15.317z"></path>
<path fill="#000" d="M182.744 441.301h-55.624c-11.131 0-20.154 9.023-20.154 20.154v0 55.624c0 11.131 9.023 20.154 20.154 20.154v0h55.624c11.131 0 20.154-9.023 20.154-20.154v0-55.624c0-11.131-9.023-20.154-20.154-20.154v0zM162.591 496.925h-15.317v-15.317h15.317z"></path>
<path fill="#000" d="M506.884 441.301h-55.624c-11.131 0-20.154 9.023-20.154 20.154v0 55.624c0 11.131 9.023 20.154 20.154 20.154v0h55.624c11.131 0 20.154-9.023 20.154-20.154v0-55.624c0-11.131-9.023-20.154-20.154-20.154v0zM486.731 496.925h-15.317v-15.317h15.317z"></path>
</svg>
