<?xml version="1.0" encoding="UTF-8"?>
<svg id="Layer_1" xmlns="http://www.w3.org/2000/svg" version="1.1" viewBox="0 0 530 477">
  <!-- Generator: Adobe Illustrator 29.2.0, SVG Export Plug-In . SVG Version: 2.1.0 Build 108)  -->
  <defs>
    <style>
      .st0 {
        fill: #e32828;
      }

      .st1 {
        fill: #236eb4;
      }

      .st2 {
        fill: #0b9949;
      }
    </style>
  </defs>
  <path class="st1" d="M49.7,177.3c-5.1,0-9.8-2.5-12.2-7.3l-10.5-18.1c-8-13.4-8-29.6,0-43,8-13.4,21.7-21.3,37.1-21.3h324c8,0,14.4,6.4,14.4,14.4s-6.4,14.4-14.4,14.4H64.3c-7.6,0-11.2,5.1-12.2,7.3s-3.6,8,0,14.4l10.5,18.1c3.9,6.8,1.5,15.6-5.4,19.5-2.2,1-4.7,1.5-7.3,1.5l-.2.2Z"/>
  <path class="st0" d="M232.4,441.1c-24.2,0-45.9-12.7-57.8-33.5l-97.7-169.5c-8-13.4-8-29.6,0-43s21.7-21.3,37.1-21.3h224.8c8,0,14.4,6.4,14.4,14.4s-6.4,14.4-14.4,14.4H113.5c-7.6,0-11.2,5.1-12.2,7.3s-3.6,8,0,14.4l97.7,169.5c6.8,11.9,19.1,19.1,33.2,19.1s25.9-7.3,33.2-19.1l43-74.4c3.9-6.8,12.7-9.3,19.5-5.4,6.8,3.9,9.3,12.7,5.4,19.5l-43,74.4c-13,20.5-34.7,33.2-58.1,33.2l.2.2Z"/>
  <path class="st2" d="M508.5,98.3l-14.4-53.4h0s0-.3-.3-.7h0s0-.3-.3-.3h0s0-.3-.3-.3h0s-.3-.3-.3-.7h0c-1-2.2-2.5-3.9-4.4-5.4h0s-.3-.3-.7-.3h-.3l-.3-.3-.3-.3h0c-2.5-1.5-5.4-1.9-8-1.5h-2.2l-53.7,14.4c-7.6,2.2-12.2,9.8-10.2,17.6,2.2,7.6,9.8,12.2,17.6,10.2l20.5-5.4-97.7,168.9c-6.8,11.9-19.5,19.1-33.2,19.1h-115.8c-8,0-14.4,6.4-14.4,14.4s6.4,14.4,14.4,14.4h116.2c23.9,0,45.9-12.7,57.8-33.5l97.7-168.9,5.4,20.2c1.9,6.4,7.6,10.5,13.7,10.5s2.5,0,3.6-.3c7.6-2.5,12.2-10.2,10.2-18.1h0Z"/>
</svg>