<svg id="Layer_1" data-name="Layer 1" xmlns="http://www.w3.org/2000/svg" viewBox="0 0 156.1 166.15"><title>signup-form</title><line x1="118.92" y1="165.15" x2="116.24" y2="165.15" style="fill:none;stroke:#191919;stroke-linecap:round;stroke-linejoin:round;stroke-width:2px"/><path d="M138.73,162.52V43.34h23.42a15.44,15.44,0,0,1,15.44,15.44V165.92a15.44,15.44,0,0,1-15.44,15.44H145.53" transform="translate(-22.49 -16.21)" style="fill:none;stroke:#191919;stroke-linecap:round;stroke-linejoin:round;stroke-width:2px"/><path d="M164.19,88.94v13.32a.71.71,0,0,1-.71.71H138.73V88.23h24.75A.71.71,0,0,1,164.19,88.94Z" transform="translate(-22.49 -16.21)" style="fill:none;stroke:#191919;stroke-linecap:round;stroke-linejoin:round;stroke-width:2px"/><path d="M164.19,118.42v13.32a.71.71,0,0,1-.71.71H138.73V117.71h24.75A.71.71,0,0,1,164.19,118.42Z" transform="translate(-22.49 -16.21)" style="fill:none;stroke:#191919;stroke-linecap:round;stroke-linejoin:round;stroke-width:2px"/><path d="M155.64,146.56v14.66a.7.7,0,0,1-.7.71H138.73V145.85h16.21A.7.7,0,0,1,155.64,146.56Z" transform="translate(-22.49 -16.21)" style="fill:none;stroke:#f47f22;stroke-linecap:round;stroke-linejoin:round;stroke-width:2px"/><line x1="155.1" y1="53.26" x2="116.24" y2="53.26" style="fill:none;stroke:#191919;stroke-linecap:round;stroke-linejoin:round;stroke-width:2px"/><path d="M36.89,165.26V32.65A15.43,15.43,0,0,1,52.32,17.21H38.92A15.43,15.43,0,0,0,23.49,32.65V165.26a15.43,15.43,0,0,0,15.43,15.43h13.4A15.43,15.43,0,0,1,36.89,165.26Z" transform="translate(-22.49 -16.21)" style="fill:#edeced"/><rect x="1" y="1" width="115.24" height="163.48" rx="11.52" style="fill:none;stroke:#191919;stroke-linecap:round;stroke-linejoin:round;stroke-width:2px"/><rect x="14.4" y="85.08" width="29.48" height="11.05" rx="0.53" style="fill:none;stroke:#191919;stroke-linecap:round;stroke-linejoin:round;stroke-width:2px"/><rect x="54.6" y="85.08" width="48.24" height="11.05" rx="0.53" style="fill:none;stroke:#191919;stroke-linecap:round;stroke-linejoin:round;stroke-width:2px"/><rect x="14.4" y="107.19" width="29.48" height="11.05" rx="0.53" style="fill:none;stroke:#191919;stroke-linecap:round;stroke-linejoin:round;stroke-width:2px"/><rect x="54.6" y="107.19" width="48.24" height="11.05" rx="0.53" style="fill:none;stroke:#191919;stroke-linecap:round;stroke-linejoin:round;stroke-width:2px"/><rect x="14.4" y="41.87" width="29.48" height="11.05" rx="0.53" style="fill:none;stroke:#191919;stroke-linecap:round;stroke-linejoin:round;stroke-width:2px"/><rect x="54.6" y="41.87" width="48.24" height="11.05" rx="0.53" style="fill:none;stroke:#191919;stroke-linecap:round;stroke-linejoin:round;stroke-width:2px"/><rect x="14.4" y="63.98" width="29.48" height="11.05" rx="0.53" style="fill:none;stroke:#191919;stroke-linecap:round;stroke-linejoin:round;stroke-width:2px"/><rect x="54.6" y="63.98" width="48.24" height="11.05" rx="0.53" style="fill:none;stroke:#191919;stroke-linecap:round;stroke-linejoin:round;stroke-width:2px"/><path d="M54.81,163.23V148.57a.71.71,0,0,1,.71-.71H46.14a.71.71,0,0,0-.71.71v14.66a.71.71,0,0,0,.71.71h9.38A.71.71,0,0,1,54.81,163.23Z" transform="translate(-22.49 -16.21)" style="fill:#f3e5db"/><rect x="22.94" y="131.65" width="71.35" height="16.08" rx="0.53" style="fill:none;stroke:#f47f22;stroke-linecap:round;stroke-linejoin:round;stroke-width:2px"/><line x1="1" y1="27.13" x2="116.24" y2="27.13" style="fill:none;stroke:#191919;stroke-linecap:round;stroke-linejoin:round;stroke-width:2px"/></svg>