<svg id="sign-up-from_ok_copy" data-name="sign-up-from_ok copy" xmlns="http://www.w3.org/2000/svg" viewBox="0 0 260.29 176.89"><path d="M251.52,76.73a66.59,66.59,0,0,0-28.68-8.86,5.12,5.12,0,0,1-3.91-2.27A66.56,66.56,0,0,0,197,45.11a65.68,65.68,0,0,0-42.87-8.33,5.32,5.32,0,0,1-5.31-2.44,46.45,46.45,0,0,0-16-15.29c-21-12.18-47.16-6.27-58.44,13.18C65.84,46.93,68.28,65.14,79,78.41A5.34,5.34,0,0,1,76,87h0c-23.73,5.1-39.77,24.09-35.83,42.41s26.37,29,50.09,23.94c11.76-2.52,46.39-3.13,49-4.68,11.33-6.74,30.89,4.93,35.5,7.6,9.15,5.31,12.45,16.27,18.17,21.54,25.59,23.6,67.64,9,83.82-18.91S281.63,94.19,251.52,76.73Z" transform="translate(-32.06 -12.71)" style="fill:#d6daef;opacity:0.36"/><path d="M246.86,24.29a.84.84,0,0,0-.84.83V28h-2.83a.83.83,0,1,0,0,1.66H246v2.83a.84.84,0,0,0,1.67,0V29.61h2.83a.83.83,0,0,0,0-1.66h-2.83V25.12A.83.83,0,0,0,246.86,24.29Z" transform="translate(-32.06 -12.71)" style="fill:#d6daef"/><path d="M40.75,57.06V52.53h4.54a1.39,1.39,0,0,0,0-2.77H40.75V45.22a1.39,1.39,0,1,0-2.77,0v4.54H33.44a1.39,1.39,0,0,0,0,2.77H38v4.53a1.39,1.39,0,1,0,2.77,0Z" transform="translate(-32.06 -12.71)" style="fill:#d6daef"/><path d="M71.88,95.33V92.5h2.83a.83.83,0,0,0,0-1.66H71.88V88a.83.83,0,0,0-1.66,0v2.83H67.39a.83.83,0,0,0,0,1.66h2.83v2.83a.83.83,0,0,0,1.66,0Z" transform="translate(-32.06 -12.71)" style="fill:#d6daef"/><path d="M276.34,134.47V139H271.8a1.39,1.39,0,0,0,0,2.77h4.54v4.54a1.39,1.39,0,0,0,2.77,0v-4.54h4.54a1.39,1.39,0,1,0,0-2.77h-4.54v-4.54a1.39,1.39,0,0,0-2.77,0Z" transform="translate(-32.06 -12.71)" style="fill:#d6daef"/><path d="M283.65,50v4.54h-4.54a1.39,1.39,0,0,0,0,2.77h4.54v4.54a1.39,1.39,0,0,0,2.77,0V57.33H291a1.39,1.39,0,0,0,0-2.77h-4.54V50a1.39,1.39,0,0,0-2.77,0Z" transform="translate(-32.06 -12.71)" style="fill:#d6daef"/><path d="M49.47,141.6H44.93v-4.54a1.39,1.39,0,1,0-2.77,0v4.54H37.62a1.39,1.39,0,1,0,0,2.77h4.54v4.53a1.39,1.39,0,1,0,2.77,0v-4.53h4.54a1.39,1.39,0,0,0,0-2.77Z" transform="translate(-32.06 -12.71)" style="fill:#d6daef"/><circle cx="49.4" cy="14.36" r="3.09" style="fill:none;stroke:#d6daef;stroke-miterlimit:10;stroke-width:2px"/><circle cx="42.09" cy="172.27" r="3.09" style="fill:none;stroke:#d6daef;stroke-miterlimit:10;stroke-width:2px"/><circle cx="226.63" cy="86.54" r="3.09" style="fill:none;stroke:#d6daef;stroke-miterlimit:10;stroke-width:2px"/><circle cx="226.63" cy="170.11" r="3.09" style="fill:none;stroke:#d6daef;stroke-miterlimit:10;stroke-width:2px"/><path d="M223.55,181.16H96.49a9.38,9.38,0,0,1-9.37-9.37V32.91a9.37,9.37,0,0,1,9.37-9.37h128a9.37,9.37,0,0,1,9.37,9.37l-1,138.88A9.37,9.37,0,0,1,223.55,181.16Z" transform="translate(-32.06 -12.71)" style="fill:#fff"/><path d="M232,155.34l-.12,16.45a9.37,9.37,0,0,1-9.37,9.37H95.49a9.38,9.38,0,0,1-9.37-9.37V154.7" transform="translate(-32.06 -12.71)" style="fill:#d6daef"/><path d="M86.12,118.59V32.91a9.37,9.37,0,0,1,9.37-9.37h128a9.37,9.37,0,0,1,9.37,9.37l-1,138.88a9.37,9.37,0,0,1-9.37,9.37H95.49a9.38,9.38,0,0,1-9.37-9.37V147.7" transform="translate(-32.06 -12.71)" style="fill:none;stroke:#4a5ba5;stroke-linecap:round;stroke-linejoin:round;stroke-width:2px"/><rect x="66.52" y="53.77" width="121" height="24.01" rx="6.41" style="fill:#fff;stroke:#4a5ba5;stroke-linecap:round;stroke-linejoin:round;stroke-width:2px"/><path d="M213.6,126.6H105.4a6.41,6.41,0,0,1-6.4-6.41V109a6.4,6.4,0,0,1,6.4-6.4H213.6A6.4,6.4,0,0,1,220,109v11.19A6.41,6.41,0,0,1,213.6,126.6Z" transform="translate(-32.06 -12.71)" style="fill:#fff;stroke:#4a5ba5;stroke-linecap:round;stroke-linejoin:round;stroke-width:2px"/><rect x="65.94" y="126.88" width="121.58" height="20.09" rx="5.87" style="fill:#e95b63"/><polyline points="54.06 124.96 54.06 120.38 54.06 115.34" style="fill:#fff;stroke:#4a5ba5;stroke-linecap:round;stroke-linejoin:round;stroke-width:1.915930151939392px"/><circle cx="83.87" cy="62.73" r="3.49" style="fill:#fff;stroke:#4a5ba5;stroke-linecap:round;stroke-linejoin:round;stroke-width:2px"/><path d="M110.34,84.42l-.26-.32A1.92,1.92,0,0,0,110.34,84.42Z" transform="translate(-32.06 -12.71)" style="fill:#fff;stroke:#4a5ba5;stroke-linecap:round;stroke-linejoin:round;stroke-width:2px"/><path d="M122.15,82.72s0-.07,0-.11,0-.08,0-.12a.3.3,0,0,0,0-.1.58.58,0,0,0,0-.14.29.29,0,0,0,0-.09s0-.1,0-.14a.36.36,0,0,0,0-.09.75.75,0,0,0-.06-.13,1,1,0,0,0-.08-.14l0-.07a1.94,1.94,0,0,0-.51-.52,9.92,9.92,0,0,0-5.34-1.27h0a9.94,9.94,0,0,0-5.34,1.27,2.29,2.29,0,0,0-.51.52.16.16,0,0,1,0,.07.64.64,0,0,0-.08.14l-.06.13,0,.09a.57.57,0,0,0,0,.14l0,.09,0,.14a.44.44,0,0,1,0,.1v.12a.41.41,0,0,0,0,.11v.22l0,0h0a2.06,2.06,0,0,0,1.51,2h0a1.54,1.54,0,0,0,.31.05h8.7a1.64,1.64,0,0,0,.32-.05h0a2.06,2.06,0,0,0,1.51-2h0l0,0Z" transform="translate(-32.06 -12.71)" style="fill:#fff;stroke:#4a5ba5;stroke-linecap:round;stroke-linejoin:round;stroke-width:2px"/><path d="M121.81,84.1l-.26.32A2.6,2.6,0,0,0,121.81,84.1Z" transform="translate(-32.06 -12.71)" style="fill:#fff;stroke:#4a5ba5;stroke-linecap:round;stroke-linejoin:round;stroke-width:2px"/><path d="M78.14,97.08H90.81a.46.46,0,0,1,.46.46v7.79a0,0,0,0,1,0,0H77.68a0,0,0,0,1,0,0V97.53A.46.46,0,0,1,78.14,97.08Z" style="fill:#fff;stroke:#4a5ba5;stroke-linecap:round;stroke-linejoin:round;stroke-width:2px"/><path d="M123.32,119.41H109.74v-8.8a.46.46,0,0,1,.7-.39l6.09,3.79,6.09-3.79a.46.46,0,0,1,.7.39Z" transform="translate(-32.06 -12.71)" style="fill:#fff;stroke:#4a5ba5;stroke-linecap:round;stroke-linejoin:round;stroke-width:2px"/><line x1="54.06" y1="33.12" x2="200.7" y2="33.12" style="fill:none;stroke:#4a5ba5;stroke-linecap:round;stroke-linejoin:round;stroke-width:2px"/><line x1="66.48" y1="22.56" x2="133.59" y2="22.56" style="fill:none;stroke:#4a5ba5;stroke-linecap:round;stroke-linejoin:round;stroke-width:2px"/></svg>