<svg id="Layer_1" data-name="Layer 1" xmlns="http://www.w3.org/2000/svg" viewBox="0 0 320 200"><defs><style>.cls-1,.cls-5,.cls-7{fill:#d6d9ec;}.cls-1{isolation:isolate;opacity:0.36;}.cls-2,.cls-6{fill:#fff;}.cls-2,.cls-4,.cls-5,.cls-9{stroke:#4d5a9f;stroke-linecap:round;stroke-linejoin:round;}.cls-2,.cls-5,.cls-8,.cls-9{stroke-width:2px;}.cls-3{fill:#bdc2e0;}.cls-4,.cls-8,.cls-9{fill:none;}.cls-4{stroke-width:1.46px;}.cls-8{stroke:#d6d9ec;stroke-miterlimit:10;}.cls-10{fill:#e95b63;}</style></defs><path class="cls-1" d="M75.35,40.62C43.35,78.38,41,129.06,70.2,153.8c17.79,15.08,43.17,17,67.53,7.7a35.79,35.79,0,0,1,28.47,1c.86.42,1.72.82,2.58,1.21a36,36,0,0,1,14.65,11.73,54.48,54.48,0,0,0,89.16-62.63A54.91,54.91,0,0,0,242.43,91.5a45.43,45.43,0,0,1-25.74-17.93c-1.27-1.86-2.59-3.7-4-5.54a38.82,38.82,0,0,1-7.3-16.36c-2.44-13.62-8.83-25.81-19.25-34.62-18.93-16-46.45-17.23-72.2-5.78C112.35,12,80.49,34.51,75.35,40.62Z"/><path class="cls-2" d="M79.84,127.69V47.38a6.76,6.76,0,0,1,6.76-6.76H237.35a6.77,6.77,0,0,1,6.77,6.76V170.25a6.77,6.77,0,0,1-6.74,6.8H86.6a6.76,6.76,0,0,1-6.76-6.76V158.35"/><path class="cls-3" d="M79.84,158.35v11.9a6.76,6.76,0,0,0,6.72,6.8H237.35a6.78,6.78,0,0,0,6.77-6.76V158.35"/><path class="cls-4" d="M79.84,127.69V47.38a6.76,6.76,0,0,1,6.76-6.76H237.35a6.77,6.77,0,0,1,6.77,6.76V170.25a6.77,6.77,0,0,1-6.74,6.8H86.6a6.76,6.76,0,0,1-6.76-6.76V158.35"/><polyline class="cls-5" points="79.83 151.22 79.83 147.81 79.83 142.85 79.83 138.82"/><path class="cls-2" d="M86.6,40.05H237.35a6.76,6.76,0,0,1,6.76,6.76V61.49H79.84V46.81a6.76,6.76,0,0,1,6.76-6.76Z"/><circle class="cls-6" cx="230.37" cy="52.2" r="3.43"/><circle class="cls-6" cx="221.37" cy="52.2" r="3.43"/><circle class="cls-6" cx="212.36" cy="52.2" r="3.43"/><path class="cls-7" d="M244.82,12.65a.83.83,0,0,0-.83.83h0v2.83h-2.83a.83.83,0,1,0,0,1.66H244V20.8a.83.83,0,0,0,1.66,0V18h2.83a.83.83,0,1,0,0-1.66h-2.83V13.48a.83.83,0,0,0-.83-.83Z"/><path class="cls-7" d="M38.72,45.42V40.88h4.54a1.39,1.39,0,0,0,0-2.77H38.72V33.57a1.39,1.39,0,0,0-2.77,0v4.54H31.41a1.39,1.39,0,0,0-.24,2.77H36v4.54a1.39,1.39,0,0,0,2.77.24A1,1,0,0,0,38.72,45.42Z"/><path class="cls-7" d="M69.85,83.69V80.86h2.83a.83.83,0,0,0,0-1.66H69.85V76.37a.83.83,0,0,0-1.66,0V79.2H65.35a.83.83,0,0,0,0,1.66h2.83v2.83a.83.83,0,0,0,1.66,0Z"/><path class="cls-7" d="M274.35,122.83v4.54h-4.54a1.39,1.39,0,0,0,0,2.77h4.54v4.54a1.39,1.39,0,0,0,2.77,0v-4.54h4.54a1.39,1.39,0,0,0,0-2.77h-4.54v-4.54a1.39,1.39,0,0,0-2.77-.24A1,1,0,0,0,274.35,122.83Z"/><path class="cls-7" d="M281.62,38.38v4.54h-4.54a1.39,1.39,0,0,0,0,2.77h4.54v4.53a1.39,1.39,0,0,0,2.77.24,1,1,0,0,0,0-.24V45.69h4.54a1.39,1.39,0,0,0,0-2.77h-4.58V38.38a1.39,1.39,0,0,0-2.77-.24,1,1,0,0,0,0,.24Z"/><path class="cls-7" d="M47.43,130H42.89v-4.54a1.38,1.38,0,0,0-2.76,0V130H35.59a1.39,1.39,0,0,0-.24,2.77h4.78v4.54a1.38,1.38,0,0,0,2.76,0h0v-4.54h4.54a1.39,1.39,0,1,0,.23-2.77Z"/><circle class="cls-8" cx="79.42" cy="15.43" r="3.09"/><circle class="cls-8" cx="72.11" cy="173.33" r="3.09"/><circle class="cls-8" cx="256.65" cy="87.61" r="3.09"/><circle class="cls-8" cx="256.65" cy="171.17" r="3.09"/><circle class="cls-9" cx="91.99" cy="51.11" r="1"/><circle class="cls-9" cx="99.49" cy="51.11" r="1"/><circle class="cls-9" cx="106.99" cy="51.11" r="1"/><path class="cls-2" d="M132.23,89l3.92,2.89a1.91,1.91,0,0,1,.71,1l10,32.22a2,2,0,0,0,1.88,1.37h35.67"/><path class="cls-2" d="M183.73,117.82H146.39a2,2,0,0,1-1.88-1.37L138.8,98.92a2,2,0,0,1,1.88-2.58H190A2,2,0,0,1,191.88,99l-6.29,17.53A2,2,0,0,1,183.73,117.82Z"/><circle class="cls-10" cx="152.9" cy="135.1" r="5.37"/><circle class="cls-10" cx="180.45" cy="135.1" r="5.37"/><line class="cls-2" x1="148.07" y1="96.34" x2="142.83" y2="111.29"/><line class="cls-2" x1="156.88" y1="96.34" x2="149.98" y2="117.82"/><line class="cls-2" x1="166.05" y1="96.34" x2="158.73" y2="117.82"/><line class="cls-2" x1="175.08" y1="96.34" x2="167.96" y2="117.82"/><line class="cls-2" x1="184.27" y1="96.34" x2="176.77" y2="117.82"/><circle class="cls-2" cx="130.48" cy="90.1" r="2.57"/></svg>