<svg id="web_analytics" data-name="web analytics" xmlns="http://www.w3.org/2000/svg" viewBox="0 0 260.29 174.36"><path d="M85.68,161.78a66.61,66.61,0,0,0,30,1,5.17,5.17,0,0,1,4.37,1.16,66.54,66.54,0,0,0,26.56,14,65.63,65.63,0,0,0,43.55-3.27,5.33,5.33,0,0,1,5.77,1,46.39,46.39,0,0,0,19.46,10.54c23.46,6.21,47.15-6.38,52.9-28.13,4.35-16.42-2.79-33.34-16.66-43.32a5.33,5.33,0,0,1,.68-9.06h0c21.54-11.18,32-33.72,23.39-50.36s-33.09-21.07-54.64-9.89c-10.67,5.53-43.92,15.25-46,17.43-9.15,9.49-31.09,3.39-36.25,2-10.22-2.71-16.3-12.41-23.2-16C84.68,32.82,48,58,39.7,89.18S52,152.87,85.68,161.78Z" transform="translate(-29.86 -17.45)" style="fill:#d6daef;opacity:0.36"/><path d="M38.55,59.81V55.27h4.54a1.39,1.39,0,0,0,0-2.77H38.55V48a1.39,1.39,0,1,0-2.77,0V52.5H31.24a1.39,1.39,0,0,0,0,2.77h4.54v4.54a1.39,1.39,0,0,0,2.77,0Z" transform="translate(-29.86 -17.45)" style="fill:#d6daef"/><path d="M274.14,137.21v4.54H269.6a1.39,1.39,0,0,0,0,2.77h4.54v4.54a1.39,1.39,0,1,0,2.77,0v-4.54h4.54a1.39,1.39,0,1,0,0-2.77h-4.54v-4.54a1.39,1.39,0,0,0-2.77,0Z" transform="translate(-29.86 -17.45)" style="fill:#d6daef"/><path d="M281.45,52.76V57.3h-4.54a1.39,1.39,0,0,0,0,2.77h4.54v4.54a1.39,1.39,0,0,0,2.77,0V60.07h4.54a1.39,1.39,0,0,0,0-2.77h-4.54V52.76a1.39,1.39,0,0,0-2.77,0Z" transform="translate(-29.86 -17.45)" style="fill:#d6daef"/><path d="M47.27,144.34H42.73V139.8a1.39,1.39,0,1,0-2.77,0v4.54H35.42a1.39,1.39,0,1,0,0,2.77H40v4.54a1.39,1.39,0,0,0,2.77,0v-4.54h4.54a1.39,1.39,0,0,0,0-2.77Z" transform="translate(-29.86 -17.45)" style="fill:#d6daef"/><circle cx="38.99" cy="3.81" r="2.88" style="fill:none;stroke:#d6daef;stroke-miterlimit:10;stroke-width:1.86333822870284px"/><circle cx="42.09" cy="170.27" r="3.09" style="fill:none;stroke:#d6daef;stroke-miterlimit:10;stroke-width:2px"/><circle cx="226.63" cy="84.54" r="3.09" style="fill:none;stroke:#d6daef;stroke-miterlimit:10;stroke-width:2px"/><path d="M70.18,97.58V94.75H73a.83.83,0,0,0,0-1.66H70.18V90.26a.83.83,0,1,0-1.66,0v2.83H65.69a.83.83,0,0,0,0,1.66h2.83v2.83a.83.83,0,1,0,1.66,0Z" transform="translate(-29.86 -17.45)" style="fill:#d6daef"/><rect x="30.1" y="20.59" width="196.68" height="133.11" rx="10.45" style="fill:#fff"/><path d="M256.64,151.29v8.42a10.45,10.45,0,0,1-10.45,10.45H70.41A10.45,10.45,0,0,1,60,159.71v-8" transform="translate(-29.86 -17.45)" style="fill:#bdc3e4"/><path d="M60,109.37V48.5A10.45,10.45,0,0,1,70.41,38.05H246.19A10.45,10.45,0,0,1,256.64,48.5V160.71a10.45,10.45,0,0,1-10.45,10.45H70.41A10.45,10.45,0,0,1,60,160.71V137.44" transform="translate(-29.86 -17.45)" style="fill:none;stroke:#4a5aa5;stroke-linecap:round;stroke-linejoin:round;stroke-width:2px"/><line x1="30.1" y1="108.6" x2="30.1" y2="101.24" style="fill:none;stroke:#4a5aa5;stroke-linecap:round;stroke-linejoin:round;stroke-width:2px"/><line x1="30.1" y1="42" x2="226.09" y2="42" style="fill:#fff;stroke:#4a5aa5;stroke-linecap:round;stroke-linejoin:round;stroke-width:2px"/><circle cx="47.21" cy="32.41" r="1.57" style="fill:#4a5aa5"/><circle cx="59.43" cy="32.41" r="1.57" style="fill:#4a5aa5"/><circle cx="71.64" cy="32.41" r="1.57" style="fill:#4a5aa5"/><line x1="41.87" y1="58.7" x2="98.35" y2="58.7" style="fill:#fff;stroke:#4a5aa5;stroke-linecap:round;stroke-linejoin:round;stroke-width:2px"/><line x1="132.87" y1="58.7" x2="149.35" y2="58.7" style="fill:#fff;stroke:#4a5aa5;stroke-linecap:round;stroke-linejoin:round;stroke-width:2px"/><line x1="164.87" y1="58.7" x2="181.35" y2="58.7" style="fill:#fff;stroke:#4a5aa5;stroke-linecap:round;stroke-linejoin:round;stroke-width:2px"/><line x1="196.87" y1="58.7" x2="213.35" y2="58.7" style="fill:#fff;stroke:#4a5aa5;stroke-linecap:round;stroke-linejoin:round;stroke-width:2px"/><polyline points="56.43 131.33 102.25 97.83 152.48 114.07 200.77 80.25" style="fill:none;stroke:#e95b63;stroke-linecap:round;stroke-linejoin:round;stroke-width:2px"/><circle cx="56.43" cy="131.33" r="6.89" style="fill:#fff;stroke:#4a5aa5;stroke-linecap:round;stroke-linejoin:round;stroke-width:2px"/><circle cx="102.25" cy="97.84" r="6.89" style="fill:#fff;stroke:#4a5aa5;stroke-linecap:round;stroke-linejoin:round;stroke-width:2px"/><circle cx="152.48" cy="114.07" r="6.89" style="fill:#fff;stroke:#4a5aa5;stroke-linecap:round;stroke-linejoin:round;stroke-width:2px"/><circle cx="200.77" cy="80.25" r="6.89" style="fill:#fff;stroke:#4a5aa5;stroke-linecap:round;stroke-linejoin:round;stroke-width:2px"/></svg>