<svg id="Layer_1" data-name="Layer 1" xmlns="http://www.w3.org/2000/svg" viewBox="0 0 197.34 154.3"><defs><style>.cls-1,.cls-2,.cls-5,.cls-6{fill:none;}.cls-1,.cls-2{stroke:#1e1e1e;}.cls-1,.cls-10,.cls-2,.cls-3,.cls-4,.cls-5,.cls-9{stroke-linecap:round;}.cls-1,.cls-10,.cls-2,.cls-3,.cls-4,.cls-5,.cls-6,.cls-9{stroke-linejoin:round;}.cls-1{stroke-width:2.13px;}.cls-2,.cls-3,.cls-4,.cls-5,.cls-6{stroke-width:2.13px;}.cls-3{fill:#d3e1e8;}.cls-10,.cls-3,.cls-4,.cls-5,.cls-6,.cls-9{stroke:#000100;}.cls-4{fill:#39b8b9;}.cls-7{fill:#fcc22a;}.cls-8{fill:#1e1e1c;}.cls-10,.cls-9{fill:#fff;}.cls-9{stroke-width:1.09px;}.cls-10{stroke-width:1.09px;}</style></defs><title>zc_activitybased</title><line class="cls-1" x1="138.01" y1="153.23" x2="143.84" y2="153.23"/><line class="cls-1" x1="63.64" y1="153.23" x2="78.55" y2="153.23"/><line class="cls-1" x1="53.26" y1="153.23" x2="58.39" y2="153.23"/><line class="cls-1" x1="84.01" y1="153.23" x2="132.42" y2="153.23"/><line class="cls-1" x1="5.63" y1="141.12" x2="1.07" y2="141.12"/><line class="cls-1" x1="10.49" y1="141.12" x2="171.88" y2="141.12"/><line class="cls-1" x1="176.88" y1="141.12" x2="181.44" y2="141.12"/><line class="cls-2" x1="185.88" y1="141.12" x2="196.28" y2="141.12"/><rect class="cls-3" x="34.93" y="1.07" width="123.99" height="140.06" rx="3" ry="3"/><circle class="cls-4" cx="63.2" cy="32.41" r="13.24"/><circle class="cls-4" cx="129.9" cy="58.88" r="13.24"/><circle class="cls-4" cx="59.82" cy="85.36" r="13.24"/><circle class="cls-4" cx="130.82" cy="111.83" r="13.24"/><line class="cls-5" x1="59.82" y1="72.12" x2="130.82" y2="72.12"/><line class="cls-5" x1="59.82" y1="98.59" x2="130.82" y2="98.59"/><line class="cls-6" x1="63.2" y1="45.65" x2="129.9" y2="45.65"/><path class="cls-7" d="M164.41,185a32.75,32.75,0,1,1,32.75-32.75A32.79,32.79,0,0,1,164.41,185Z" transform="translate(-1.37 -44.14)"/><path class="cls-8" d="M164.41,120.71a31.55,31.55,0,1,1-31.55,31.55,31.55,31.55,0,0,1,31.55-31.55m0-2.41a34,34,0,1,0,34,34,34,34,0,0,0-34-34h0Z" transform="translate(-1.37 -44.14)"/><rect class="cls-9" x="175.41" y="130.28" width="2.91" height="19.68" rx="1.24" ry="1.24" transform="translate(149.51 -128.17) rotate(45)"/><path class="cls-10" d="M177.58,151.48a8.56,8.56,0,0,0,0-12.07h0a8.56,8.56,0,0,0-12.07,0l-1.94,1.94,12.07,12.07Z" transform="translate(-1.37 -44.14)"/><rect class="cls-9" x="157.41" y="146.42" width="2.91" height="11.79" rx="1.24" ry="1.24" transform="translate(152.87 -111.87) rotate(45)"/><rect class="cls-9" x="151.02" y="154.67" width="2.91" height="19.68" rx="1.24" ry="1.24" transform="translate(159.62 -103.78) rotate(45)"/><rect class="cls-9" x="162.94" y="151.95" width="2.91" height="11.79" rx="1.24" ry="1.24" transform="translate(158.39 -114.15) rotate(45)"/><path class="cls-9" d="M156,149l-4.43,4.43a8.56,8.56,0,0,0,0,12.07h0a8.56,8.56,0,0,0,12.07,0L168,161Z" transform="translate(-1.37 -44.14)"/></svg>