<?xml version="1.0" encoding="UTF-8"?><svg id="Layer_1" xmlns="http://www.w3.org/2000/svg" viewBox="0 0 64 64"><defs><style>.cls-1,.cls-2{stroke-width:0px;}.cls-2{fill-rule:evenodd;}</style></defs><path class="cls-1" d="m50.51,63H13.49c-2.85,0-5.17-2.35-5.17-5.23V6.23c0-2.88,2.32-5.23,5.17-5.23h37.02c2.85,0,5.17,2.35,5.17,5.23v51.54c0,2.88-2.32,5.23-5.17,5.23ZM13.49,4c-1.19,0-2.17,1-2.17,2.23v51.54c0,1.23.97,2.23,2.17,2.23h37.02c1.19,0,2.17-1,2.17-2.23V6.23c0-1.23-.97-2.23-2.17-2.23H13.49Z"/><g id="Rectangle-5"><rect class="cls-1" x="16.72" y="24.85" width="4.63" height="2.86"/></g><g id="Rectangle-5-2"><rect class="cls-1" x="24.14" y="24.85" width="22.21" height="2.86"/></g><g id="Rectangle-5-3"><rect class="cls-1" x="16.72" y="34.38" width="4.63" height="2.86"/></g><g id="Rectangle-5-4"><rect class="cls-1" x="24.14" y="34.38" width="22.21" height="2.86"/></g><g id="Rectangle-5-5"><polygon class="cls-2" points="22.73 45.05 41.27 45.05 41.27 50.78 22.73 50.78 22.73 45.05"/></g><g id="Rectangle-5-6"><rect class="cls-1" x="16.72" y="15.29" width="4.63" height="2.86"/></g><g id="Rectangle-5-7"><rect class="cls-1" x="24.14" y="15.29" width="22.21" height="2.86"/></g></svg>